<svg width="211" height="200" viewBox="0 0 211 200" fill="none" xmlns="http://www.w3.org/2000/svg">
<path d="M0 0H210.938V200H0V0Z" fill="#FF4431"/>
<path d="M201.889 63.8908C201.654 63.8908 201.419 63.8405 201.2 63.7313L155.727 41.9055C155.685 43.4081 154.955 44.8772 153.612 45.8006L76.7681 98.7954C75.9203 99.383 74.9465 99.66 73.9895 99.66C72.4365 99.66 70.9003 98.9213 69.9517 97.5362C68.4155 95.3032 68.9696 92.256 71.2025 90.7198L148.046 37.725C149.582 36.6589 151.522 36.6002 153.075 37.3976C153.377 37.3557 153.696 37.3893 153.99 37.5404L202.569 60.8604C203.366 61.2382 203.694 62.1867 203.316 62.9842C203.047 63.5634 202.476 63.8908 201.889 63.8908Z" fill="white"/>
<path d="M201.889 87.2109C201.654 87.2109 201.419 87.1606 201.2 87.0514L155.727 65.2256C155.685 66.7282 154.955 68.1973 153.612 69.1207L76.7681 122.115C75.9203 122.703 74.9465 122.98 73.9895 122.98C72.4365 122.98 70.9003 122.241 69.9517 120.856C68.4155 118.623 68.9696 115.576 71.2025 114.04L148.046 61.0451C149.582 59.979 151.522 59.9202 153.075 60.7177C153.377 60.6757 153.696 60.7093 153.99 60.8604L202.569 84.1805C203.366 84.5582 203.694 85.5068 203.316 86.3043C203.047 86.8835 202.476 87.2109 201.889 87.2109Z" fill="white"/>
<path d="M202.577 84.1887L154.149 60.9443C153.108 60.449 151.975 60.1887 150.816 60.1887V64.621L156.667 64.3608L202.275 86.0271L202.577 84.1887Z" fill="white"/>
<path d="M150.816 70.002C153.528 70.002 155.727 67.8034 155.727 65.0912C155.727 62.3791 153.528 60.1804 150.816 60.1804C148.104 60.1804 145.906 62.3791 145.906 65.0912C145.906 67.8034 148.104 70.002 150.816 70.002Z" fill="white"/>
<path d="M201.889 110.531C201.654 110.531 201.419 110.48 201.2 110.371L155.727 88.5454C155.685 90.048 154.955 91.5171 153.612 92.4405L76.7681 145.435C75.9203 146.023 74.9465 146.3 73.9895 146.3C72.4365 146.3 70.9003 145.561 69.9517 144.176C68.4155 141.943 68.9696 138.896 71.2025 137.36L148.046 84.3649C149.582 83.2988 151.522 83.2401 153.075 84.0375C153.377 83.9956 153.696 84.0291 153.99 84.1802L202.569 107.5C203.366 107.878 203.694 108.827 203.316 109.624C203.047 110.195 202.476 110.531 201.889 110.531Z" fill="white"/>
<path d="M202.577 107.509L154.149 84.2643C153.108 83.769 151.975 83.5088 150.816 83.5088V87.9411L156.667 87.6809L202.275 109.347L202.577 107.509Z" fill="white"/>
<path d="M150.816 93.3219C153.528 93.3219 155.727 91.1232 155.727 88.4111C155.727 85.6989 153.528 83.5002 150.816 83.5002C148.104 83.5002 145.906 85.6989 145.906 88.4111C145.906 91.1232 148.104 93.3219 150.816 93.3219Z" fill="white"/>
<path d="M201.889 133.851C201.654 133.851 201.419 133.801 201.2 133.692L155.727 111.866C155.685 113.368 154.955 114.837 153.612 115.761L76.7681 168.756C75.9203 169.343 74.9465 169.62 73.9895 169.62C72.4365 169.62 70.9003 168.881 69.9517 167.496C68.4155 165.263 68.9696 162.216 71.2025 160.68L148.046 107.685C149.582 106.619 151.522 106.56 153.075 107.358C153.377 107.316 153.696 107.349 153.99 107.501L202.569 130.821C203.366 131.198 203.694 132.147 203.316 132.944C203.047 133.515 202.476 133.851 201.889 133.851Z" fill="white"/>
<path d="M202.577 130.821L154.149 107.576C153.108 107.081 151.975 106.821 150.816 106.821V111.253L156.667 110.993L202.275 132.659L202.577 130.821Z" fill="white"/>
<path d="M150.816 116.642C153.528 116.642 155.727 114.444 155.727 111.731C155.727 109.019 153.528 106.821 150.816 106.821C148.104 106.821 145.906 109.019 145.906 111.731C145.906 114.444 148.104 116.642 150.816 116.642Z" fill="white"/>
<path d="M201.889 157.163C201.654 157.163 201.419 157.112 201.2 157.003L155.727 135.177C155.685 136.68 154.955 138.149 153.612 139.072L76.7681 192.067C75.9203 192.655 74.9465 192.932 73.9895 192.932C72.4365 192.932 70.9003 192.193 69.9517 190.808C68.4155 188.575 68.9696 185.528 71.2025 183.992L148.046 130.997C149.582 129.931 151.522 129.872 153.075 130.669C153.377 130.627 153.696 130.661 153.99 130.812L202.569 154.132C203.366 154.51 203.694 155.458 203.316 156.256C203.047 156.835 202.476 157.163 201.889 157.163Z" fill="white"/>
<path d="M202.577 154.14L154.149 130.896C153.108 130.401 151.975 130.14 150.816 130.14V134.573L156.667 134.312L202.275 155.979L202.577 154.14Z" fill="white"/>
<path d="M150.816 139.954C153.528 139.954 155.727 137.755 155.727 135.043C155.727 132.331 153.528 130.132 150.816 130.132C148.104 130.132 145.906 132.331 145.906 135.043C145.906 137.755 148.104 139.954 150.816 139.954Z" fill="white"/>
<path d="M202.577 60.8687L154.149 37.6242C153.108 37.1289 151.975 36.8687 150.816 36.8687V41.301L156.667 41.0407L202.275 62.7071L202.577 60.8687Z" fill="white"/>
<path d="M150.816 46.682C153.529 46.682 155.727 44.4833 155.727 41.7712C155.727 39.059 153.529 36.8604 150.816 36.8604C148.104 36.8604 145.906 39.059 145.906 41.7712C145.906 44.4833 148.104 46.682 150.816 46.682Z" fill="white"/>
</svg>
