<svg width="1090" height="200" viewBox="0 0 1090 200" fill="none" xmlns="http://www.w3.org/2000/svg">
<path d="M241.087 158.38C239.45 158.38 238.158 158.002 237.184 157.246C236.21 156.474 235.656 155.458 235.505 154.182C235.354 152.898 235.631 151.446 236.344 149.809L278.418 54.0103C279.333 51.9704 280.433 50.5182 281.709 49.6535C282.993 48.7805 284.395 48.344 285.923 48.344C287.45 48.344 288.844 48.7805 290.12 49.6535C291.404 50.5182 292.454 51.9704 293.268 54.0103L335.501 149.809C336.315 151.446 336.642 152.923 336.5 154.25C336.349 155.576 335.811 156.6 334.888 157.314C333.981 158.019 332.705 158.38 331.077 158.38C329.23 158.38 327.753 157.893 326.636 156.927C325.52 155.962 324.596 154.56 323.874 152.713L312.559 126.548L318.678 129.763H252.865L259.144 126.548L247.971 152.713C247.048 154.661 246.074 156.096 245.05 157.011C244.042 157.926 242.716 158.38 241.087 158.38ZM285.772 64.1173L261.134 122.107L257.457 119.202H314.086L310.729 122.107L286.091 64.1173H285.772Z" fill="white"/>
<path d="M361.213 158.38C359.173 158.38 357.611 157.792 356.545 156.634C355.471 155.458 354.934 153.847 354.934 151.807V55.8403C354.934 53.6997 355.496 52.0963 356.613 51.0302C357.737 49.9557 359.324 49.4185 361.372 49.4185H397.645C409.171 49.4185 418.044 52.1215 424.264 57.536C430.493 62.9337 433.599 70.6315 433.599 80.6378C433.599 86.9589 432.189 92.4405 429.385 97.0911C426.589 101.733 422.484 105.251 417.07 107.651C411.655 110.044 405.183 111.236 397.637 111.236L399.156 109.238H402.22C406.207 109.238 409.674 110.262 412.629 112.302C415.593 114.342 418.296 117.607 420.747 122.098L435.437 149.507C436.252 150.934 436.638 152.327 436.596 153.704C436.545 155.081 436.058 156.205 435.143 157.078C434.22 157.943 432.894 158.371 431.156 158.371C429.427 158.371 428 157.96 426.875 157.146C425.758 156.331 424.785 155.165 423.97 153.628L407.282 122.711C404.94 118.329 402.228 115.4 399.164 113.914C396.109 112.436 392.079 111.689 387.076 111.689H367.492V151.79C367.492 153.83 366.98 155.442 365.956 156.617C364.94 157.792 363.353 158.38 361.213 158.38ZM367.492 101.75H395.807C404.168 101.75 410.489 99.9956 414.778 96.4866C419.068 92.9693 421.217 87.6892 421.217 80.6378C421.217 73.7962 419.068 68.6168 414.778 65.1079C410.489 61.5905 404.159 59.8277 395.807 59.8277H367.492V101.75Z" fill="white"/>
<path d="M503.225 158.699C492.615 158.699 483.532 156.457 475.977 151.966C468.43 147.484 462.638 141.104 458.608 132.835C454.587 124.575 452.573 114.728 452.573 103.295C452.573 94.724 453.714 87.0513 456.014 80.2602C458.306 73.4774 461.622 67.7103 465.945 62.9674C470.285 58.2245 475.616 54.5477 481.945 51.9538C488.275 49.3598 495.36 48.0503 503.209 48.0503C509.538 48.0503 515.557 48.9401 521.274 50.7282C526.982 52.5078 531.935 55.1437 536.124 58.619C537.45 59.6348 538.348 60.7848 538.801 62.0608C539.255 63.3368 539.297 64.554 538.944 65.7376C538.592 66.9044 537.979 67.8698 537.106 68.6421C536.241 69.406 535.2 69.7754 533.975 69.7754C532.749 69.7754 531.372 69.2717 529.844 68.256C526.168 65.2927 522.138 63.1017 517.739 61.683C513.358 60.2476 508.615 59.534 503.519 59.534C495.46 59.534 488.627 61.2465 483.003 64.6547C477.395 68.0713 473.164 73.0492 470.31 79.5886C467.448 86.1196 466.029 94.0272 466.029 103.303C466.029 112.588 467.456 120.52 470.31 127.102C473.164 133.675 477.395 138.678 483.003 142.086C488.619 145.503 495.46 147.207 503.519 147.207C508.522 147.207 513.265 146.468 517.756 145.007C522.239 143.53 526.377 141.305 530.155 138.342C531.683 137.318 533.06 136.831 534.285 136.89C535.511 136.94 536.526 137.326 537.349 138.048C538.163 138.762 538.751 139.677 539.095 140.793C539.456 141.91 539.456 143.085 539.095 144.311C538.743 145.536 537.962 146.611 536.736 147.526C532.447 151.202 527.418 153.981 521.643 155.87C515.893 157.75 509.748 158.699 503.225 158.699Z" fill="white"/>
<path d="M554.492 158.38C552.855 158.38 551.563 158.002 550.589 157.246C549.615 156.474 549.061 155.458 548.91 154.182C548.759 152.898 549.036 151.446 549.749 149.809L591.823 54.0103C592.738 51.9704 593.837 50.5182 595.113 49.6535C596.398 48.7805 597.8 48.344 599.327 48.344C600.855 48.344 602.249 48.7805 603.525 49.6535C604.809 50.5182 605.858 51.9704 606.673 54.0103L648.906 149.809C649.72 151.446 650.047 152.923 649.905 154.25C649.753 155.576 649.216 156.6 648.293 157.314C647.386 158.019 646.11 158.38 644.482 158.38C642.635 158.38 641.157 157.893 640.041 156.927C638.925 155.962 638.001 154.56 637.279 152.713L625.963 126.548L632.083 129.763H566.27L572.549 126.548L561.376 152.713C560.452 154.661 559.479 156.096 558.454 157.011C557.447 157.926 556.121 158.38 554.492 158.38ZM599.176 64.1173L574.538 122.107L570.862 119.202H627.491L624.133 122.107L599.495 64.1173H599.176Z" fill="white"/>
<path d="M692.387 158.85C688.005 158.85 683.363 158.388 678.469 157.465C673.575 156.55 669.184 154.963 665.298 152.705C663.661 151.689 662.519 150.497 661.856 149.121C661.201 147.744 660.949 146.367 661.1 144.991C661.251 143.605 661.755 142.405 662.62 141.389C663.493 140.365 664.618 139.702 665.994 139.391C667.371 139.089 668.874 139.349 670.511 140.164C674.59 142.103 678.418 143.454 681.986 144.218C685.554 144.982 689.071 145.351 692.546 145.351C697.44 145.351 701.084 144.512 703.476 142.833C705.877 141.154 707.077 138.93 707.077 136.168C707.077 133.826 706.28 132.021 704.702 130.745C703.123 129.461 700.756 128.52 697.6 127.908L682.297 125.003C675.967 123.777 671.14 121.461 667.816 118.044C664.5 114.619 662.846 110.204 662.846 104.789C662.846 99.895 664.198 95.6558 666.901 92.0965C669.604 88.5288 673.356 85.7754 678.15 83.8446C682.951 81.8971 688.467 80.9233 694.695 80.9233C699.178 80.9233 703.384 81.4102 707.304 82.3924C711.233 83.3662 715.035 84.8688 718.704 86.9087C720.24 87.7229 721.289 88.7974 721.852 90.1238C722.414 91.4417 722.532 92.7932 722.221 94.1615C721.919 95.5382 721.306 96.7638 720.383 97.8383C719.476 98.9128 718.326 99.576 716.958 99.8362C715.581 100.096 714.028 99.8111 712.29 98.9968C709.126 97.3682 706.087 96.193 703.182 95.4795C700.278 94.7575 697.499 94.3966 694.838 94.3966C689.835 94.3966 686.133 95.2696 683.732 96.9989C681.34 98.7366 680.148 101.037 680.148 103.891C680.148 106.04 680.853 107.828 682.28 109.263C683.715 110.69 685.906 111.647 688.87 112.151L704.173 115.072C710.804 116.298 715.833 118.548 719.249 121.805C722.666 125.07 724.37 129.452 724.37 134.959C724.37 142.413 721.457 148.256 715.64 152.504C709.839 156.734 702.083 158.85 692.387 158.85Z" fill="white"/>
<path d="M773.189 158.85C766.549 158.85 761.017 157.725 756.576 155.475C752.144 153.226 748.853 149.943 746.713 145.612C744.564 141.272 743.498 135.891 743.498 129.452V96.8563H735.54C733.088 96.8563 731.2 96.2183 729.873 94.9507C728.555 93.6831 727.901 91.9203 727.901 89.6705C727.901 87.3285 728.564 85.5404 729.873 84.3148C731.2 83.0892 733.088 82.4764 735.54 82.4764H743.498V68.5415C743.498 65.3851 744.337 62.9927 746.016 61.3558C747.703 59.7272 750.079 58.9045 753.151 58.9045C756.207 58.9045 758.549 59.7188 760.186 61.3558C761.815 62.9927 762.637 65.3851 762.637 68.5415V82.4764H778.864C781.315 82.4764 783.195 83.0892 784.513 84.3148C785.84 85.5404 786.511 87.3201 786.511 89.6705C786.511 91.9203 785.848 93.6831 784.513 94.9507C783.195 96.2267 781.315 96.8563 778.864 96.8563H762.637V128.386C762.637 133.28 763.712 136.957 765.852 139.4C767.993 141.851 771.468 143.077 776.262 143.077C777.999 143.077 779.527 142.926 780.845 142.623C782.171 142.321 783.347 142.12 784.379 142.011C785.605 141.91 786.62 142.288 787.443 143.169C788.257 144.034 788.669 145.788 788.669 148.432C788.669 150.472 788.333 152.285 787.67 153.872C787.007 155.459 785.806 156.558 784.069 157.163C782.751 157.566 781.013 157.952 778.872 158.321C776.706 158.665 774.818 158.85 773.189 158.85Z" fill="white"/>
<path d="M824.766 158.85C818.537 158.85 813.383 157.7 809.303 155.408C805.223 153.116 802.185 149.666 800.195 145.074C798.214 140.483 797.223 134.766 797.223 127.933V90.896C797.223 87.6305 798.038 85.2129 799.675 83.6347C801.303 82.0481 803.645 81.259 806.709 81.259C809.773 81.259 812.149 82.0565 813.828 83.6347C815.507 85.2129 816.346 87.6305 816.346 90.896V128.235C816.346 133.54 817.421 137.469 819.561 140.021C821.702 142.573 825.127 143.849 829.828 143.849C834.923 143.849 839.104 142.094 842.369 138.569C845.635 135.051 847.263 130.375 847.263 124.558V90.896C847.263 87.6305 848.078 85.2129 849.714 83.6347C851.343 82.0481 853.694 81.259 856.766 81.259C859.822 81.259 862.189 82.0565 863.868 83.6347C865.555 85.2129 866.403 87.6305 866.403 90.896V148.751C866.403 155.282 863.288 158.548 857.068 158.548C854.105 158.548 851.805 157.708 850.176 156.029C848.539 154.342 847.725 151.916 847.725 148.751V137.125L849.874 141.708C847.725 147.223 844.485 151.463 840.153 154.426C835.796 157.372 830.676 158.85 824.766 158.85Z" fill="white"/>
<path d="M915.042 158.85C908.511 158.85 902.769 157.272 897.816 154.107C892.872 150.934 889.027 146.418 886.274 140.55C883.52 134.69 882.144 127.773 882.144 119.807C882.144 111.756 883.52 104.848 886.274 99.0807C889.027 93.3052 892.872 88.8477 897.816 85.683C902.769 82.5098 908.511 80.9233 915.042 80.9233C921.271 80.9233 926.702 82.4595 931.344 85.5235C935.986 88.5791 939.117 92.6085 940.754 97.6116H939.075V57.8215C939.075 54.6651 939.89 52.2727 941.527 50.6358C943.155 49.0072 945.497 48.1846 948.561 48.1846C951.625 48.1846 954.001 48.9988 955.68 50.6358C957.367 52.2727 958.215 54.6651 958.215 57.8215V148.726C958.215 151.891 957.401 154.317 955.764 156.004C954.127 157.683 951.785 158.522 948.712 158.522C945.657 158.522 943.315 157.683 941.678 156.004C940.041 154.317 939.226 151.891 939.226 148.726V136.781L940.905 141.381C939.378 146.686 936.263 150.925 931.571 154.099C926.886 157.272 921.38 158.85 915.042 158.85ZM920.397 144.302C924.175 144.302 927.491 143.387 930.345 141.557C933.199 139.719 935.415 136.99 936.994 133.372C938.58 129.746 939.369 125.23 939.369 119.815C939.369 111.656 937.632 105.561 934.156 101.54C930.698 97.5109 926.106 95.4878 920.389 95.4878C916.62 95.4878 913.304 96.3776 910.442 98.1657C907.579 99.9453 905.363 102.657 903.776 106.283C902.198 109.901 901.417 114.409 901.417 119.815C901.417 127.874 903.147 133.968 906.614 138.107C910.089 142.237 914.681 144.302 920.397 144.302Z" fill="white"/>
<path d="M987.572 158.38C984.517 158.38 982.175 157.465 980.538 155.635C978.901 153.796 978.087 151.244 978.087 147.979V91.8195C978.087 88.4533 978.901 85.8761 980.538 84.0881C982.166 82.3085 984.508 81.4102 987.572 81.4102C990.636 81.4102 993.012 82.3001 994.691 84.0881C996.378 85.8677 997.226 88.4533 997.226 91.8195V147.979C997.226 151.244 996.412 153.796 994.775 155.635C993.138 157.465 990.746 158.38 987.572 158.38ZM987.572 67.1731C984.005 67.1731 981.226 66.2833 979.228 64.4952C977.247 62.6988 976.257 60.2224 976.257 57.0661C976.257 53.8006 977.247 51.3074 979.228 49.5781C981.226 47.8405 984.005 46.9758 987.572 46.9758C991.249 46.9758 994.045 47.8489 995.984 49.5781C997.931 51.3074 998.905 53.8006 998.905 57.0661C998.905 60.2308 997.931 62.7072 995.984 64.4952C994.045 66.2833 991.241 67.1731 987.572 67.1731Z" fill="white"/>
<path d="M1051.23 158.85C1043.48 158.85 1036.74 157.272 1031.03 154.107C1025.32 150.934 1020.89 146.417 1017.73 140.55C1014.56 134.69 1012.99 127.773 1012.99 119.807C1012.99 113.788 1013.88 108.415 1015.66 103.664C1017.44 98.9212 1020.02 94.8414 1023.38 91.4248C1026.74 88.0082 1030.77 85.406 1035.47 83.6263C1040.16 81.8299 1045.42 80.9316 1051.24 80.9316C1058.99 80.9316 1065.73 82.5182 1071.44 85.6914C1077.15 88.8561 1081.59 93.3388 1084.74 99.1562C1087.92 104.965 1089.5 111.849 1089.5 119.807C1089.5 125.826 1088.61 131.232 1086.82 136.033C1085.04 140.827 1082.46 144.932 1079.09 148.348C1075.72 151.765 1071.69 154.376 1066.99 156.164C1062.3 157.96 1057.05 158.85 1051.23 158.85ZM1051.23 144.302C1055.01 144.302 1058.32 143.387 1061.18 141.557C1064.03 139.719 1066.25 136.99 1067.83 133.372C1069.41 129.746 1070.2 125.23 1070.2 119.815C1070.2 111.656 1068.47 105.561 1064.99 101.54C1061.53 97.5109 1056.94 95.4878 1051.22 95.4878C1047.45 95.4878 1044.14 96.3776 1041.28 98.1656C1038.41 99.9453 1036.2 102.657 1034.61 106.283C1033.03 109.901 1032.25 114.409 1032.25 119.815C1032.25 127.874 1033.98 133.968 1037.45 138.107C1040.92 142.237 1045.52 144.302 1051.23 144.302Z" fill="white"/>
<path d="M1018.4 181.266C1018.05 181.266 1017.81 181.191 1017.66 181.04C1017.51 180.889 1017.43 180.662 1017.43 180.36C1017.43 180.183 1017.47 180.007 1017.57 179.839C1017.67 179.663 1017.81 179.487 1017.99 179.294L1021.19 175.886C1021.68 175.373 1022.03 174.903 1022.24 174.484C1022.45 174.064 1022.56 173.636 1022.56 173.208C1022.56 172.687 1022.39 172.284 1022.06 171.999C1021.73 171.722 1021.24 171.579 1020.6 171.579C1020.24 171.579 1019.88 171.629 1019.52 171.739C1019.16 171.839 1018.79 172.016 1018.42 172.259C1018.24 172.393 1018.06 172.444 1017.9 172.419C1017.73 172.393 1017.59 172.326 1017.46 172.209C1017.35 172.091 1017.26 171.957 1017.22 171.789C1017.17 171.613 1017.18 171.436 1017.24 171.269C1017.3 171.092 1017.42 170.941 1017.62 170.815C1018.08 170.496 1018.59 170.27 1019.14 170.118C1019.71 169.959 1020.28 169.875 1020.87 169.875C1021.68 169.875 1022.35 170.001 1022.9 170.244C1023.47 170.488 1023.89 170.849 1024.16 171.31C1024.45 171.781 1024.6 172.351 1024.6 173.023C1024.6 173.468 1024.53 173.904 1024.39 174.333C1024.25 174.752 1024.03 175.189 1023.73 175.625C1023.43 176.062 1023.05 176.515 1022.59 177.01L1019.6 180.125V179.579H1024.29C1024.57 179.579 1024.79 179.646 1024.94 179.789C1025.09 179.932 1025.16 180.142 1025.16 180.419C1025.16 180.687 1025.09 180.897 1024.94 181.048C1024.79 181.199 1024.57 181.275 1024.29 181.275H1018.4V181.266Z" fill="white"/>
<path d="M1030.64 181.418C1029.32 181.418 1028.29 180.922 1027.58 179.915C1026.88 178.916 1026.53 177.481 1026.53 175.617C1026.53 174.375 1026.69 173.325 1027 172.469C1027.32 171.604 1027.77 170.958 1028.38 170.53C1029 170.085 1029.75 169.867 1030.64 169.867C1031.98 169.867 1032.99 170.354 1033.68 171.336C1034.38 172.318 1034.73 173.737 1034.73 175.6C1034.73 176.851 1034.57 177.909 1034.26 178.782C1033.94 179.646 1033.48 180.301 1032.87 180.754C1032.27 181.199 1031.52 181.418 1030.64 181.418ZM1030.64 179.739C1031.36 179.739 1031.89 179.403 1032.24 178.74C1032.59 178.068 1032.76 177.019 1032.76 175.592C1032.76 174.173 1032.58 173.141 1032.24 172.494C1031.89 171.856 1031.36 171.529 1030.64 171.529C1029.92 171.529 1029.38 171.856 1029.03 172.494C1028.68 173.141 1028.51 174.165 1028.51 175.592C1028.51 177.019 1028.69 178.068 1029.03 178.74C1029.38 179.411 1029.91 179.739 1030.64 179.739Z" fill="white"/>
<path d="M1037.53 181.266C1037.19 181.266 1036.94 181.191 1036.79 181.04C1036.64 180.889 1036.57 180.662 1036.57 180.36C1036.57 180.183 1036.61 180.007 1036.71 179.839C1036.8 179.663 1036.94 179.487 1037.13 179.294L1040.33 175.886C1040.81 175.373 1041.17 174.903 1041.38 174.484C1041.59 174.064 1041.7 173.636 1041.7 173.208C1041.7 172.687 1041.53 172.284 1041.19 171.999C1040.86 171.722 1040.38 171.579 1039.74 171.579C1039.38 171.579 1039.02 171.629 1038.66 171.739C1038.3 171.839 1037.93 172.016 1037.56 172.259C1037.37 172.393 1037.2 172.444 1037.04 172.419C1036.87 172.393 1036.73 172.326 1036.6 172.209C1036.48 172.091 1036.4 171.957 1036.36 171.789C1036.31 171.613 1036.31 171.436 1036.37 171.269C1036.43 171.092 1036.56 170.941 1036.76 170.815C1037.21 170.496 1037.73 170.27 1038.28 170.118C1038.85 169.959 1039.42 169.875 1040.01 169.875C1040.81 169.875 1041.49 170.001 1042.04 170.244C1042.6 170.488 1043.02 170.849 1043.3 171.31C1043.58 171.781 1043.74 172.351 1043.74 173.023C1043.74 173.468 1043.67 173.904 1043.53 174.333C1043.38 174.752 1043.16 175.189 1042.86 175.625C1042.57 176.062 1042.19 176.515 1041.73 177.01L1038.74 180.125V179.579H1043.43C1043.71 179.579 1043.93 179.646 1044.07 179.789C1044.22 179.932 1044.3 180.142 1044.3 180.419C1044.3 180.687 1044.22 180.897 1044.07 181.048C1043.93 181.199 1043.71 181.275 1043.43 181.275H1037.53V181.266Z" fill="white"/>
<path d="M1049.86 181.418C1049.3 181.418 1048.73 181.35 1048.13 181.208C1047.54 181.057 1047.02 180.821 1046.52 180.511C1046.32 180.385 1046.19 180.234 1046.12 180.058C1046.05 179.881 1046.03 179.705 1046.07 179.537C1046.11 179.361 1046.19 179.218 1046.31 179.101C1046.44 178.975 1046.59 178.899 1046.76 178.874C1046.94 178.849 1047.13 178.899 1047.34 179.017C1047.74 179.252 1048.13 179.428 1048.54 179.537C1048.94 179.655 1049.37 179.713 1049.83 179.713C1050.28 179.713 1050.67 179.638 1050.99 179.47C1051.31 179.31 1051.54 179.084 1051.7 178.807C1051.88 178.521 1051.96 178.177 1051.96 177.791C1051.96 177.195 1051.78 176.717 1051.41 176.356C1051.05 175.986 1050.56 175.793 1049.95 175.793C1049.59 175.793 1049.27 175.852 1048.95 175.969C1048.63 176.07 1048.32 176.263 1048.01 176.549C1047.91 176.633 1047.79 176.717 1047.64 176.792C1047.49 176.876 1047.34 176.918 1047.17 176.918C1046.9 176.918 1046.7 176.851 1046.55 176.708C1046.41 176.565 1046.34 176.372 1046.34 176.129V170.916C1046.34 170.631 1046.42 170.404 1046.57 170.253C1046.73 170.102 1046.96 170.026 1047.25 170.026H1052.5C1052.77 170.026 1052.99 170.102 1053.14 170.253C1053.3 170.395 1053.39 170.597 1053.39 170.866C1053.39 171.134 1053.3 171.344 1053.14 171.495C1052.99 171.646 1052.77 171.722 1052.5 171.722H1048.33V175.29H1047.81C1048.09 174.92 1048.46 174.635 1048.91 174.433C1049.37 174.223 1049.87 174.114 1050.42 174.114C1051.12 174.114 1051.74 174.265 1052.27 174.568C1052.79 174.87 1053.2 175.298 1053.5 175.844C1053.8 176.381 1053.95 177.01 1053.95 177.716C1053.95 178.454 1053.78 179.101 1053.45 179.655C1053.12 180.209 1052.65 180.637 1052.03 180.947C1051.42 181.266 1050.7 181.418 1049.86 181.418Z" fill="white"/>
<path d="M1065.32 181.418C1064.16 181.418 1063.16 181.182 1062.32 180.721C1061.49 180.242 1060.85 179.579 1060.4 178.706C1059.95 177.833 1059.73 176.809 1059.73 175.625C1059.73 174.744 1059.86 173.946 1060.12 173.25C1060.37 172.544 1060.74 171.932 1061.22 171.428C1061.7 170.916 1062.28 170.53 1062.98 170.253C1063.68 169.984 1064.46 169.85 1065.32 169.85C1065.92 169.85 1066.5 169.925 1067.05 170.076C1067.62 170.219 1068.11 170.429 1068.54 170.706C1068.76 170.849 1068.91 171.017 1068.98 171.21C1069.05 171.411 1069.07 171.604 1069.03 171.789C1068.98 171.974 1068.88 172.133 1068.75 172.259C1068.61 172.393 1068.45 172.461 1068.26 172.469C1068.08 172.486 1067.87 172.419 1067.63 172.276C1067.29 172.058 1066.94 171.898 1066.55 171.806C1066.17 171.713 1065.79 171.663 1065.39 171.663C1064.63 171.663 1063.99 171.823 1063.47 172.133C1062.96 172.435 1062.56 172.88 1062.29 173.459C1062.02 174.047 1061.89 174.761 1061.89 175.608C1061.89 176.448 1062.02 177.161 1062.29 177.757C1062.56 178.354 1062.95 178.807 1063.47 179.117C1063.99 179.42 1064.64 179.571 1065.39 179.571C1065.79 179.571 1066.2 179.529 1066.58 179.428C1066.98 179.327 1067.36 179.168 1067.7 178.958C1067.93 178.815 1068.14 178.756 1068.33 178.765C1068.51 178.782 1068.67 178.849 1068.8 178.975C1068.92 179.092 1069.01 179.235 1069.04 179.411C1069.08 179.587 1069.08 179.772 1069.01 179.957C1068.95 180.142 1068.82 180.301 1068.64 180.427C1068.22 180.746 1067.72 180.981 1067.12 181.14C1066.53 181.334 1065.93 181.418 1065.32 181.418Z" fill="white"/>
<path d="M1071.87 181.35C1071.51 181.35 1071.22 181.241 1071 181.015C1070.79 180.78 1070.68 180.494 1070.68 180.142C1070.68 179.806 1070.78 179.529 1071 179.319C1071.22 179.101 1071.51 178.983 1071.87 178.983C1072.24 178.983 1072.53 179.101 1072.73 179.319C1072.94 179.529 1073.05 179.806 1073.05 180.142C1073.05 180.494 1072.95 180.788 1072.73 181.015C1072.53 181.241 1072.24 181.35 1071.87 181.35Z" fill="white"/>
<path d="M1075.5 181.384C1075.24 181.384 1075.03 181.325 1074.87 181.208C1074.72 181.09 1074.62 180.939 1074.59 180.737C1074.56 180.544 1074.61 180.326 1074.72 180.091L1078.93 170.756C1079.07 170.454 1079.23 170.244 1079.42 170.11C1079.61 169.967 1079.84 169.9 1080.1 169.9C1080.34 169.9 1080.56 169.967 1080.76 170.11C1080.95 170.244 1081.13 170.454 1081.26 170.756L1085.48 180.091C1085.6 180.326 1085.64 180.544 1085.6 180.754C1085.58 180.956 1085.49 181.115 1085.34 181.224C1085.19 181.325 1084.99 181.384 1084.75 181.384C1084.45 181.384 1084.23 181.317 1084.07 181.174C1083.9 181.031 1083.76 180.813 1083.63 180.511L1082.58 178.093L1083.45 178.656H1076.72L1077.58 178.093L1076.56 180.511C1076.42 180.83 1076.28 181.056 1076.13 181.191C1075.97 181.317 1075.77 181.384 1075.5 181.384ZM1080.06 172.242L1077.84 177.556L1077.42 177.036H1082.75L1082.35 177.556L1080.09 172.242H1080.06Z" fill="white"/>
<path d="M1088.33 181.35C1087.97 181.35 1087.67 181.241 1087.45 181.015C1087.24 180.78 1087.14 180.494 1087.14 180.142C1087.14 179.806 1087.24 179.529 1087.45 179.319C1087.67 179.101 1087.97 178.983 1088.33 178.983C1088.7 178.983 1088.98 179.101 1089.18 179.319C1089.39 179.529 1089.5 179.806 1089.5 180.142C1089.5 180.494 1089.4 180.788 1089.18 181.015C1088.98 181.241 1088.7 181.35 1088.33 181.35Z" fill="white"/>
<path d="M0 0H210.938V200H0V0Z" fill="#FF4431"/>
<path d="M201.889 63.8908C201.654 63.8908 201.419 63.8405 201.2 63.7313L155.727 41.9055C155.685 43.4081 154.955 44.8772 153.612 45.8006L76.7681 98.7954C75.9203 99.383 74.9465 99.66 73.9895 99.66C72.4365 99.66 70.9003 98.9213 69.9517 97.5362C68.4155 95.3032 68.9696 92.256 71.2025 90.7198L148.046 37.725C149.582 36.6589 151.522 36.6002 153.075 37.3976C153.377 37.3557 153.696 37.3893 153.99 37.5404L202.569 60.8604C203.366 61.2382 203.694 62.1867 203.316 62.9842C203.047 63.5634 202.476 63.8908 201.889 63.8908Z" fill="white"/>
<path d="M201.889 87.2109C201.654 87.2109 201.419 87.1606 201.2 87.0514L155.727 65.2256C155.685 66.7282 154.955 68.1973 153.612 69.1207L76.7681 122.115C75.9203 122.703 74.9465 122.98 73.9895 122.98C72.4365 122.98 70.9003 122.241 69.9517 120.856C68.4155 118.623 68.9696 115.576 71.2025 114.04L148.046 61.0451C149.582 59.979 151.522 59.9202 153.075 60.7177C153.377 60.6757 153.696 60.7093 153.99 60.8604L202.569 84.1805C203.366 84.5582 203.694 85.5068 203.316 86.3043C203.047 86.8835 202.476 87.2109 201.889 87.2109Z" fill="white"/>
<path d="M202.577 84.1887L154.149 60.9443C153.108 60.449 151.975 60.1887 150.816 60.1887V64.621L156.667 64.3608L202.275 86.0271L202.577 84.1887Z" fill="white"/>
<path d="M150.816 70.002C153.528 70.002 155.727 67.8034 155.727 65.0912C155.727 62.3791 153.528 60.1804 150.816 60.1804C148.104 60.1804 145.906 62.3791 145.906 65.0912C145.906 67.8034 148.104 70.002 150.816 70.002Z" fill="white"/>
<path d="M201.889 110.531C201.654 110.531 201.419 110.48 201.2 110.371L155.727 88.5454C155.685 90.048 154.955 91.5171 153.612 92.4405L76.7681 145.435C75.9203 146.023 74.9465 146.3 73.9895 146.3C72.4365 146.3 70.9003 145.561 69.9517 144.176C68.4155 141.943 68.9696 138.896 71.2025 137.36L148.046 84.3649C149.582 83.2988 151.522 83.2401 153.075 84.0375C153.377 83.9956 153.696 84.0291 153.99 84.1802L202.569 107.5C203.366 107.878 203.694 108.827 203.316 109.624C203.047 110.195 202.476 110.531 201.889 110.531Z" fill="white"/>
<path d="M202.577 107.509L154.149 84.2643C153.108 83.769 151.975 83.5088 150.816 83.5088V87.9411L156.667 87.6809L202.275 109.347L202.577 107.509Z" fill="white"/>
<path d="M150.816 93.3219C153.528 93.3219 155.727 91.1232 155.727 88.4111C155.727 85.6989 153.528 83.5002 150.816 83.5002C148.104 83.5002 145.906 85.6989 145.906 88.4111C145.906 91.1232 148.104 93.3219 150.816 93.3219Z" fill="white"/>
<path d="M201.889 133.851C201.654 133.851 201.419 133.801 201.2 133.692L155.727 111.866C155.685 113.368 154.955 114.837 153.612 115.761L76.7681 168.756C75.9203 169.343 74.9465 169.62 73.9895 169.62C72.4365 169.62 70.9003 168.881 69.9517 167.496C68.4155 165.263 68.9696 162.216 71.2025 160.68L148.046 107.685C149.582 106.619 151.522 106.56 153.075 107.358C153.377 107.316 153.696 107.349 153.99 107.501L202.569 130.821C203.366 131.198 203.694 132.147 203.316 132.944C203.047 133.515 202.476 133.851 201.889 133.851Z" fill="white"/>
<path d="M202.577 130.821L154.149 107.576C153.108 107.081 151.975 106.821 150.816 106.821V111.253L156.667 110.993L202.275 132.659L202.577 130.821Z" fill="white"/>
<path d="M150.816 116.642C153.528 116.642 155.727 114.444 155.727 111.731C155.727 109.019 153.528 106.821 150.816 106.821C148.104 106.821 145.906 109.019 145.906 111.731C145.906 114.444 148.104 116.642 150.816 116.642Z" fill="white"/>
<path d="M201.889 157.163C201.654 157.163 201.419 157.112 201.2 157.003L155.727 135.177C155.685 136.68 154.955 138.149 153.612 139.072L76.7681 192.067C75.9203 192.655 74.9465 192.932 73.9895 192.932C72.4365 192.932 70.9003 192.193 69.9517 190.808C68.4155 188.575 68.9696 185.528 71.2025 183.992L148.046 130.997C149.582 129.931 151.522 129.872 153.075 130.669C153.377 130.627 153.696 130.661 153.99 130.812L202.569 154.132C203.366 154.51 203.694 155.458 203.316 156.256C203.047 156.835 202.476 157.163 201.889 157.163Z" fill="white"/>
<path d="M202.577 154.14L154.149 130.896C153.108 130.401 151.975 130.14 150.816 130.14V134.573L156.667 134.312L202.275 155.979L202.577 154.14Z" fill="white"/>
<path d="M150.816 139.954C153.528 139.954 155.727 137.755 155.727 135.043C155.727 132.331 153.528 130.132 150.816 130.132C148.104 130.132 145.906 132.331 145.906 135.043C145.906 137.755 148.104 139.954 150.816 139.954Z" fill="white"/>
<path d="M202.577 60.8687L154.149 37.6242C153.108 37.1289 151.975 36.8687 150.816 36.8687V41.301L156.667 41.0407L202.275 62.7071L202.577 60.8687Z" fill="white"/>
<path d="M150.816 46.682C153.529 46.682 155.727 44.4833 155.727 41.7712C155.727 39.059 153.529 36.8604 150.816 36.8604C148.104 36.8604 145.906 39.059 145.906 41.7712C145.906 44.4833 148.104 46.682 150.816 46.682Z" fill="white"/>
</svg>
