<svg width="131" height="24" viewBox="0 0 131 24" fill="none" xmlns="http://www.w3.org/2000/svg">
<path d="M28.9304 19.0053C28.734 19.0053 28.5789 18.96 28.462 18.8693C28.3451 18.7766 28.2787 18.6547 28.2605 18.5016C28.2424 18.3475 28.2756 18.1732 28.3613 17.9768L33.4101 6.48098C33.5199 6.2362 33.6518 6.06193 33.805 5.95817C33.9591 5.85341 34.1273 5.80103 34.3106 5.80103C34.494 5.80103 34.6612 5.85341 34.8143 5.95817C34.9684 6.06193 35.0944 6.2362 35.1921 6.48098L40.26 17.9768C40.3577 18.1732 40.397 18.3505 40.3799 18.5097C40.3618 18.6689 40.2973 18.7917 40.1865 18.8774C40.0777 18.962 39.9246 19.0053 39.7292 19.0053C39.5075 19.0053 39.3302 18.9469 39.1963 18.831C39.0623 18.7152 38.9515 18.547 38.8649 18.3253L37.507 15.1855L38.2413 15.5713H30.3437L31.0972 15.1855L29.7564 18.3253C29.6456 18.5591 29.5288 18.7313 29.4059 18.8411C29.285 18.9509 29.1258 19.0053 28.9304 19.0053ZM34.2925 7.69383L31.336 14.6526L30.8947 14.304H37.6903L37.2874 14.6526L34.3308 7.69383H34.2925Z" fill="#2A2929"/>
<path d="M43.3452 19.0053C43.1004 19.0053 42.913 18.9348 42.7851 18.7957C42.6561 18.6547 42.5917 18.4613 42.5917 18.2165V6.70055C42.5917 6.44368 42.6592 6.25127 42.7931 6.12334C42.9281 5.9944 43.1185 5.92993 43.3643 5.92993H47.717C49.1001 5.92993 50.1649 6.2543 50.9113 6.90403C51.6588 7.55176 52.0315 8.47549 52.0315 9.67625C52.0315 10.4348 51.8623 11.0926 51.5258 11.6506C51.1904 12.2077 50.6978 12.6298 50.048 12.9179C49.3983 13.205 48.6216 13.348 47.716 13.348L47.8984 13.1083H48.266C48.7445 13.1083 49.1606 13.2312 49.5152 13.476C49.8707 13.7207 50.1951 14.1126 50.4893 14.6515L52.2521 17.9405C52.3498 18.1118 52.3962 18.279 52.3911 18.4442C52.3851 18.6094 52.3267 18.7444 52.2169 18.8491C52.106 18.9529 51.9469 19.0043 51.7384 19.0043C51.5309 19.0043 51.3596 18.9549 51.2246 18.8572C51.0906 18.7595 50.9738 18.6195 50.8761 18.4351L48.8735 14.7251C48.5924 14.1992 48.2671 13.8477 47.8994 13.6694C47.5327 13.4921 47.0492 13.4024 46.4488 13.4024H44.0987V18.2145C44.0987 18.4593 44.0372 18.6527 43.9143 18.7937C43.7924 18.9348 43.602 19.0053 43.3452 19.0053ZM44.0987 12.2097H47.4964C48.4998 12.2097 49.2583 11.9992 49.773 11.5781C50.2878 11.156 50.5457 10.5224 50.5457 9.67625C50.5457 8.85526 50.2878 8.23373 49.773 7.81266C49.2583 7.39058 48.4987 7.17904 47.4964 7.17904H44.0987V12.2097Z" fill="#2A2929"/>
<path d="M60.3868 19.0437C59.1135 19.0437 58.0236 18.7747 57.117 18.2358C56.2113 17.6979 55.5163 16.9323 55.0328 15.9401C54.5502 14.9488 54.3085 13.7672 54.3085 12.3952C54.3085 11.3667 54.4455 10.446 54.7215 9.63105C54.9965 8.81712 55.3944 8.12507 55.9132 7.55592C56.434 6.98677 57.0736 6.54555 57.8332 6.23428C58.5927 5.92301 59.4429 5.76587 60.3848 5.76587C61.1443 5.76587 61.8666 5.87265 62.5526 6.08721C63.2376 6.30077 63.8319 6.61708 64.3346 7.03412C64.4937 7.15601 64.6015 7.29401 64.6559 7.44713C64.7103 7.60024 64.7154 7.74631 64.673 7.88835C64.6307 8.02837 64.5572 8.14421 64.4524 8.23689C64.3487 8.32856 64.2238 8.37288 64.0767 8.37288C63.9296 8.37288 63.7644 8.31244 63.5811 8.19055C63.1399 7.83496 62.6563 7.57204 62.1285 7.4018C61.6027 7.22954 61.0335 7.14392 60.422 7.14392C59.455 7.14392 58.635 7.34942 57.9601 7.7584C57.2872 8.16839 56.7795 8.76574 56.437 9.55047C56.0935 10.3342 55.9232 11.2831 55.9232 12.3962C55.9232 13.5103 56.0945 14.4623 56.437 15.252C56.7795 16.0408 57.2872 16.6412 57.9601 17.0501C58.634 17.4601 59.455 17.6646 60.422 17.6646C61.0224 17.6646 61.5916 17.576 62.1305 17.4007C62.6684 17.2234 63.165 16.9565 63.6184 16.6009C63.8017 16.478 63.9669 16.4195 64.114 16.4266C64.261 16.4326 64.3829 16.479 64.4817 16.5656C64.5794 16.6512 64.6499 16.761 64.6912 16.895C64.7345 17.029 64.7345 17.17 64.6912 17.3171C64.6489 17.4642 64.5552 17.5931 64.4081 17.7029C63.8934 18.1441 63.29 18.4776 62.5969 18.7042C61.9069 18.9299 61.1695 19.0437 60.3868 19.0437Z" fill="#2A2929"/>
<path d="M66.5388 19.0053C66.3424 19.0053 66.1873 18.96 66.0704 18.8693C65.9535 18.7766 65.8871 18.6547 65.8689 18.5016C65.8508 18.3475 65.884 18.1732 65.9697 17.9768L71.0185 6.48098C71.1283 6.2362 71.2602 6.06193 71.4134 5.95817C71.5675 5.85341 71.7357 5.80103 71.919 5.80103C72.1024 5.80103 72.2696 5.85341 72.4227 5.95817C72.5768 6.06193 72.7028 6.2362 72.8005 6.48098L77.8684 17.9768C77.9661 18.1732 78.0054 18.3505 77.9883 18.5097C77.9702 18.6689 77.9057 18.7917 77.7949 18.8774C77.6861 18.962 77.533 19.0053 77.3376 19.0053C77.1159 19.0053 76.9386 18.9469 76.8047 18.831C76.6707 18.7152 76.5599 18.547 76.4732 18.3253L75.1153 15.1855L75.8497 15.5713H67.9521L68.7056 15.1855L67.3648 18.3253C67.254 18.5591 67.1372 18.7313 67.0143 18.8411C66.8934 18.9509 66.7342 19.0053 66.5388 19.0053ZM71.9009 7.69383L68.9444 14.6526L68.5031 14.304H75.2987L74.8957 14.6526L71.9392 7.69383H71.9009Z" fill="#2A2929"/>
<path d="M83.0863 19.0619C82.5604 19.0619 82.0034 19.0065 81.4161 18.8957C80.8288 18.7859 80.302 18.5955 79.8356 18.3245C79.6391 18.2026 79.5021 18.0596 79.4225 17.8944C79.344 17.7292 79.3137 17.564 79.3319 17.3988C79.35 17.2325 79.4105 17.0885 79.5142 16.9666C79.619 16.8437 79.754 16.7641 79.9192 16.7269C80.0844 16.6906 80.2647 16.7218 80.4611 16.8195C80.9507 17.0522 81.41 17.2144 81.8382 17.3061C82.2663 17.3977 82.6884 17.4421 83.1054 17.4421C83.6927 17.4421 84.1299 17.3413 84.417 17.1399C84.7051 16.9384 84.8491 16.6714 84.8491 16.34C84.8491 16.059 84.7534 15.8424 84.564 15.6893C84.3747 15.5352 84.0906 15.4223 83.7118 15.3488L81.8754 15.0003C81.1159 14.8532 80.5367 14.5752 80.1378 14.1652C79.7399 13.7542 79.5414 13.2243 79.5414 12.5746C79.5414 11.9873 79.7036 11.4786 80.028 11.0515C80.3523 10.6233 80.8026 10.2929 81.3778 10.0612C81.954 9.82754 82.6158 9.71069 83.3633 9.71069C83.9012 9.71069 84.4059 9.76912 84.8763 9.88698C85.3478 10.0038 85.8041 10.1841 86.2443 10.4289C86.4286 10.5266 86.5545 10.6556 86.622 10.8147C86.6895 10.9729 86.7036 11.1351 86.6664 11.2993C86.6301 11.4645 86.5566 11.6116 86.4458 11.7405C86.337 11.8694 86.199 11.949 86.0348 11.9802C85.8696 12.0115 85.6832 11.9772 85.4747 11.8795C85.0949 11.6841 84.7302 11.5431 84.3817 11.4574C84.0332 11.3708 83.6997 11.3275 83.3804 11.3275C82.78 11.3275 82.3358 11.4322 82.0477 11.6398C81.7606 11.8483 81.6175 12.1243 81.6175 12.4668C81.6175 12.7247 81.7022 12.9392 81.8734 13.1115C82.0457 13.2827 82.3086 13.3976 82.6642 13.458L84.5006 13.8086C85.2964 13.9556 85.8998 14.2256 86.3098 14.6165C86.7198 15.0083 86.9242 15.5342 86.9242 16.195C86.9242 17.0895 86.5747 17.7906 85.8766 18.3003C85.1805 18.808 84.2497 19.0619 83.0863 19.0619Z" fill="#2A2929"/>
<path d="M92.7824 19.0616C91.9856 19.0616 91.3218 18.9266 90.7889 18.6566C90.257 18.3866 89.8621 17.9928 89.6052 17.473C89.3474 16.9522 89.2194 16.3065 89.2194 15.5338V11.6223H88.2645C87.9703 11.6223 87.7437 11.5458 87.5845 11.3937C87.4263 11.2415 87.3478 11.03 87.3478 10.76C87.3478 10.479 87.4274 10.2644 87.5845 10.1173C87.7437 9.97028 87.9703 9.89674 88.2645 9.89674H89.2194V8.22455C89.2194 7.84579 89.3202 7.55869 89.5216 7.36226C89.7241 7.16684 90.0092 7.06812 90.3779 7.06812C90.7445 7.06812 91.0256 7.16583 91.222 7.36226C91.4174 7.55869 91.5162 7.84579 91.5162 8.22455V9.89674H93.4634C93.7575 9.89674 93.9832 9.97028 94.1413 10.1173C94.3005 10.2644 94.3811 10.478 94.3811 10.76C94.3811 11.03 94.3015 11.2415 94.1413 11.3937C93.9832 11.5468 93.7575 11.6223 93.4634 11.6223H91.5162V15.4059C91.5162 15.9932 91.6451 16.4344 91.902 16.7276C92.1589 17.0217 92.5759 17.1688 93.1511 17.1688C93.3596 17.1688 93.543 17.1506 93.7011 17.1144C93.8603 17.0781 94.0013 17.0539 94.1252 17.0408C94.2723 17.0287 94.3942 17.0741 94.4929 17.1798C94.5906 17.2836 94.64 17.4941 94.64 17.8115C94.64 18.0562 94.5997 18.2738 94.5201 18.4642C94.4405 18.6546 94.2964 18.7866 94.0879 18.8591C93.9298 18.9074 93.7212 18.9538 93.4644 18.9981C93.2045 19.0394 92.9778 19.0616 92.7824 19.0616Z" fill="#2A2929"/>
<path d="M98.9717 19.0616C98.2243 19.0616 97.6058 18.9236 97.1162 18.6486C96.6266 18.3736 96.262 17.9596 96.0232 17.4086C95.7855 16.8576 95.6666 16.1716 95.6666 15.3516V10.9072C95.6666 10.5153 95.7643 10.2252 95.9608 10.0358C96.1562 9.84542 96.4372 9.75073 96.8049 9.75073C97.1726 9.75073 97.4577 9.84643 97.6592 10.0358C97.8606 10.2252 97.9614 10.5153 97.9614 10.9072V15.3878C97.9614 16.0245 98.0903 16.4959 98.3472 16.8021C98.604 17.1084 99.015 17.2615 99.5792 17.2615C100.191 17.2615 100.692 17.051 101.084 16.6279C101.476 16.2058 101.671 15.6447 101.671 14.9466V10.9072C101.671 10.5153 101.769 10.2252 101.966 10.0358C102.161 9.84542 102.443 9.75073 102.812 9.75073C103.178 9.75073 103.462 9.84643 103.664 10.0358C103.866 10.2252 103.968 10.5153 103.968 10.9072V17.8498C103.968 18.6335 103.594 19.0254 102.848 19.0254C102.492 19.0254 102.216 18.9246 102.021 18.7232C101.825 18.5207 101.727 18.2296 101.727 17.8498V16.4546L101.985 17.0046C101.727 17.6665 101.338 18.1752 100.818 18.5308C100.295 18.8843 99.6809 19.0616 98.9717 19.0616Z" fill="#2A2929"/>
<path d="M109.805 19.0618C109.021 19.0618 108.332 18.8724 107.738 18.4927C107.144 18.1119 106.683 17.5699 106.353 16.8658C106.022 16.1627 105.857 15.3326 105.857 14.3767C105.857 13.4106 106.022 12.5816 106.353 11.8895C106.683 11.1965 107.144 10.6616 107.738 10.2818C108.332 9.90102 109.021 9.71063 109.805 9.71063C110.552 9.71063 111.204 9.89497 111.761 10.2627C112.318 10.6293 112.694 11.1129 112.89 11.7132H112.689V6.93841C112.689 6.55965 112.787 6.27256 112.983 6.07613C113.178 5.8807 113.459 5.78198 113.827 5.78198C114.195 5.78198 114.48 5.87969 114.681 6.07613C114.884 6.27256 114.986 6.55965 114.986 6.93841V17.847C114.986 18.2267 114.888 18.5178 114.691 18.7203C114.495 18.9218 114.214 19.0225 113.845 19.0225C113.479 19.0225 113.198 18.9218 113.001 18.7203C112.805 18.5178 112.707 18.2267 112.707 17.847V16.4135L112.908 16.9655C112.725 17.6022 112.351 18.1109 111.788 18.4917C111.226 18.8724 110.565 19.0618 109.805 19.0618ZM110.448 17.3161C110.901 17.3161 111.299 17.2063 111.641 16.9867C111.984 16.7661 112.25 16.4387 112.439 16.0045C112.629 15.5693 112.724 15.0274 112.724 14.3777C112.724 13.3985 112.516 12.6672 112.099 12.1847C111.684 11.7011 111.133 11.4584 110.447 11.4584C109.994 11.4584 109.596 11.5651 109.253 11.7797C108.909 11.9933 108.643 12.3186 108.453 12.7538C108.264 13.188 108.17 13.7289 108.17 14.3777C108.17 15.3447 108.377 16.076 108.793 16.5727C109.211 17.0683 109.762 17.3161 110.448 17.3161Z" fill="#2A2929"/>
<path d="M118.508 19.0054C118.142 19.0054 117.861 18.8956 117.664 18.676C117.468 18.4554 117.37 18.1492 117.37 17.7573V11.0182C117.37 10.6143 117.468 10.305 117.664 10.0904C117.86 9.87688 118.141 9.76909 118.508 9.76909C118.876 9.76909 119.161 9.87587 119.363 10.0904C119.565 10.304 119.667 10.6143 119.667 11.0182V17.7573C119.667 18.1492 119.569 18.4554 119.373 18.676C119.176 18.8956 118.889 19.0054 118.508 19.0054ZM118.508 8.06064C118.08 8.06064 117.747 7.95386 117.507 7.73929C117.269 7.52372 117.151 7.22655 117.151 6.84779C117.151 6.45593 117.269 6.15675 117.507 5.94924C117.747 5.74072 118.08 5.63696 118.508 5.63696C118.95 5.63696 119.285 5.74173 119.518 5.94924C119.751 6.15675 119.868 6.45593 119.868 6.84779C119.868 7.22756 119.751 7.52473 119.518 7.73929C119.285 7.95386 118.949 8.06064 118.508 8.06064Z" fill="#2A2929"/>
<path d="M126.148 19.0616C125.217 19.0616 124.409 18.8722 123.724 18.4925C123.038 18.1117 122.506 17.5697 122.127 16.8656C121.748 16.1625 121.558 15.3324 121.558 14.3764C121.558 13.6542 121.665 13.0095 121.88 12.4393C122.093 11.8702 122.402 11.3806 122.805 10.9706C123.209 10.5606 123.693 10.2483 124.256 10.0348C124.819 9.81921 125.451 9.71143 126.149 9.71143C127.078 9.71143 127.887 9.90182 128.572 10.2826C129.257 10.6624 129.79 11.2003 130.169 11.8984C130.55 12.5955 130.74 13.4215 130.74 14.3764C130.74 15.0987 130.633 15.7474 130.419 16.3236C130.205 16.8988 129.895 17.3914 129.491 17.8014C129.086 18.2114 128.603 18.5247 128.038 18.7393C127.476 18.9548 126.846 19.0616 126.148 19.0616ZM126.148 17.3159C126.601 17.3159 126.999 17.2061 127.341 16.9865C127.684 16.7659 127.95 16.4385 128.139 16.0043C128.33 15.5691 128.424 15.0272 128.424 14.3774C128.424 13.3983 128.216 12.667 127.799 12.1845C127.384 11.7009 126.833 11.4582 126.147 11.4582C125.694 11.4582 125.296 11.5649 124.953 11.7795C124.609 11.9931 124.344 12.3184 124.153 12.7536C123.964 13.1878 123.87 13.7287 123.87 14.3774C123.87 15.3445 124.078 16.0758 124.494 16.5725C124.911 17.0681 125.463 17.3159 126.148 17.3159Z" fill="#2A2929"/>
<path d="M122.208 21.4317C122.166 21.4317 122.137 21.4226 122.119 21.4045C122.101 21.3863 122.092 21.3591 122.092 21.3229C122.092 21.3017 122.097 21.2806 122.109 21.2604C122.12 21.2393 122.137 21.2181 122.159 21.1949L122.543 20.786C122.601 20.7245 122.644 20.6681 122.669 20.6177C122.694 20.5674 122.707 20.516 122.707 20.4646C122.707 20.4022 122.687 20.3538 122.647 20.3196C122.608 20.2863 122.549 20.2692 122.473 20.2692C122.429 20.2692 122.386 20.2752 122.343 20.2883C122.299 20.3004 122.255 20.3216 122.211 20.3508C122.188 20.3669 122.167 20.3729 122.148 20.3699C122.128 20.3669 122.111 20.3588 122.096 20.3447C122.082 20.3306 122.072 20.3145 122.067 20.2944C122.061 20.2732 122.062 20.2521 122.069 20.2319C122.076 20.2108 122.091 20.1926 122.115 20.1775C122.169 20.1392 122.231 20.112 122.297 20.0939C122.366 20.0748 122.434 20.0647 122.505 20.0647C122.601 20.0647 122.682 20.0798 122.749 20.109C122.816 20.1382 122.866 20.1816 122.9 20.237C122.934 20.2934 122.952 20.3619 122.952 20.4425C122.952 20.4958 122.944 20.5482 122.927 20.5996C122.91 20.65 122.884 20.7024 122.847 20.7547C122.812 20.8071 122.767 20.8615 122.711 20.9209L122.353 21.2947V21.2292H122.915C122.949 21.2292 122.975 21.2372 122.992 21.2544C123.01 21.2715 123.02 21.2967 123.02 21.3299C123.02 21.3622 123.01 21.3873 122.992 21.4055C122.975 21.4236 122.949 21.4327 122.915 21.4327H122.208V21.4317Z" fill="#2A2929"/>
<path d="M123.677 21.4501C123.518 21.4501 123.395 21.3906 123.309 21.2698C123.226 21.1499 123.183 20.9776 123.183 20.754C123.183 20.6049 123.203 20.479 123.24 20.3762C123.278 20.2725 123.333 20.1949 123.406 20.1435C123.48 20.0902 123.57 20.064 123.677 20.064C123.837 20.064 123.959 20.1224 124.042 20.2403C124.125 20.3581 124.168 20.5284 124.168 20.752C124.168 20.9021 124.149 21.029 124.111 21.1338C124.073 21.2375 124.018 21.3161 123.945 21.3705C123.872 21.4239 123.783 21.4501 123.677 21.4501ZM123.677 21.2486C123.764 21.2486 123.827 21.2083 123.868 21.1287C123.911 21.0481 123.931 20.9222 123.931 20.751C123.931 20.5807 123.91 20.4568 123.868 20.3793C123.827 20.3027 123.764 20.2634 123.677 20.2634C123.59 20.2634 123.526 20.3027 123.484 20.3793C123.441 20.4568 123.421 20.5797 123.421 20.751C123.421 20.9222 123.442 21.0481 123.484 21.1287C123.526 21.2093 123.589 21.2486 123.677 21.2486Z" fill="#2A2929"/>
<path d="M124.504 21.4317C124.463 21.4317 124.433 21.4226 124.415 21.4045C124.397 21.3863 124.388 21.3591 124.388 21.3229C124.388 21.3017 124.393 21.2806 124.405 21.2604C124.416 21.2393 124.433 21.2181 124.456 21.1949L124.839 20.786C124.898 20.7245 124.94 20.6681 124.965 20.6177C124.991 20.5674 125.004 20.516 125.004 20.4646C125.004 20.4022 124.984 20.3538 124.943 20.3196C124.904 20.2863 124.845 20.2692 124.769 20.2692C124.726 20.2692 124.682 20.2752 124.639 20.2883C124.596 20.3004 124.551 20.3216 124.507 20.3508C124.485 20.3669 124.464 20.3729 124.445 20.3699C124.424 20.3669 124.407 20.3588 124.392 20.3447C124.378 20.3306 124.368 20.3145 124.363 20.2944C124.357 20.2732 124.358 20.2521 124.365 20.2319C124.372 20.2108 124.387 20.1926 124.411 20.1775C124.466 20.1392 124.527 20.112 124.594 20.0939C124.662 20.0748 124.731 20.0647 124.801 20.0647C124.898 20.0647 124.978 20.0798 125.045 20.109C125.112 20.1382 125.163 20.1816 125.196 20.237C125.23 20.2934 125.248 20.3619 125.248 20.4425C125.248 20.4958 125.24 20.5482 125.223 20.5996C125.206 20.65 125.18 20.7024 125.144 20.7547C125.108 20.8071 125.063 20.8615 125.008 20.9209L124.649 21.2947V21.2292H125.211C125.245 21.2292 125.272 21.2372 125.289 21.2544C125.307 21.2715 125.316 21.2967 125.316 21.3299C125.316 21.3622 125.307 21.3873 125.289 21.4055C125.272 21.4236 125.245 21.4327 125.211 21.4327H124.504V21.4317Z" fill="#2A2929"/>
<path d="M125.984 21.45C125.916 21.45 125.848 21.4419 125.776 21.4248C125.706 21.4067 125.642 21.3785 125.583 21.3412C125.558 21.3261 125.542 21.3079 125.534 21.2868C125.526 21.2656 125.524 21.2445 125.528 21.2243C125.533 21.2032 125.543 21.1861 125.557 21.1719C125.573 21.1568 125.591 21.1478 125.612 21.1448C125.633 21.1417 125.656 21.1478 125.681 21.1619C125.729 21.1901 125.776 21.2112 125.824 21.2243C125.873 21.2384 125.925 21.2455 125.98 21.2455C126.034 21.2455 126.08 21.2364 126.119 21.2163C126.157 21.1971 126.185 21.1699 126.204 21.1367C126.225 21.1024 126.235 21.0611 126.235 21.0148C126.235 20.9433 126.213 20.8859 126.17 20.8425C126.127 20.7982 126.067 20.7751 125.994 20.7751C125.951 20.7751 125.912 20.7821 125.874 20.7962C125.836 20.8083 125.798 20.8315 125.761 20.8657C125.75 20.8758 125.735 20.8859 125.717 20.8949C125.7 20.905 125.681 20.91 125.66 20.91C125.628 20.91 125.604 20.902 125.587 20.8849C125.57 20.8677 125.562 20.8446 125.562 20.8153V20.1898C125.562 20.1555 125.571 20.1283 125.589 20.1102C125.608 20.0921 125.635 20.083 125.67 20.083H126.3C126.333 20.083 126.359 20.0921 126.377 20.1102C126.397 20.1273 126.407 20.1515 126.407 20.1837C126.407 20.216 126.397 20.2412 126.377 20.2593C126.359 20.2774 126.333 20.2865 126.3 20.2865H125.8V20.7146H125.738C125.771 20.6703 125.815 20.636 125.87 20.6119C125.924 20.5867 125.985 20.5736 126.05 20.5736C126.135 20.5736 126.209 20.5917 126.273 20.628C126.335 20.6642 126.384 20.7156 126.42 20.7811C126.456 20.8456 126.474 20.9211 126.474 21.0057C126.474 21.0944 126.454 21.172 126.414 21.2384C126.374 21.3049 126.318 21.3563 126.243 21.3936C126.171 21.4318 126.084 21.45 125.984 21.45Z" fill="#2A2929"/>
<path d="M127.839 21.4499C127.699 21.4499 127.579 21.4217 127.478 21.3663C127.378 21.3089 127.302 21.2293 127.247 21.1245C127.194 21.0198 127.168 20.8969 127.168 20.7548C127.168 20.6491 127.183 20.5534 127.214 20.4697C127.244 20.3851 127.289 20.3116 127.346 20.2511C127.404 20.1897 127.474 20.1434 127.558 20.1101C127.641 20.0779 127.735 20.0618 127.839 20.0618C127.91 20.0618 127.98 20.0708 128.046 20.089C128.114 20.1061 128.173 20.1313 128.225 20.1645C128.251 20.1816 128.269 20.2018 128.277 20.225C128.286 20.2491 128.288 20.2723 128.283 20.2945C128.277 20.3166 128.266 20.3358 128.25 20.3509C128.234 20.367 128.214 20.3751 128.191 20.3761C128.169 20.3781 128.144 20.37 128.116 20.3529C128.074 20.3267 128.032 20.3076 127.986 20.2965C127.94 20.2854 127.894 20.2794 127.847 20.2794C127.755 20.2794 127.679 20.2985 127.616 20.3358C127.555 20.372 127.507 20.4254 127.475 20.4949C127.443 20.5654 127.427 20.6511 127.427 20.7528C127.427 20.8535 127.443 20.9392 127.475 21.0107C127.507 21.0822 127.554 21.1366 127.616 21.1739C127.679 21.2101 127.756 21.2283 127.847 21.2283C127.895 21.2283 127.944 21.2232 127.99 21.2111C128.037 21.1991 128.083 21.1799 128.124 21.1547C128.152 21.1376 128.177 21.1306 128.199 21.1316C128.222 21.1336 128.241 21.1416 128.256 21.1568C128.271 21.1709 128.281 21.188 128.285 21.2091C128.29 21.2303 128.289 21.2524 128.281 21.2746C128.274 21.2968 128.259 21.3159 128.237 21.331C128.186 21.3693 128.126 21.3975 128.054 21.4166C127.984 21.4398 127.911 21.4499 127.839 21.4499Z" fill="#2A2929"/>
<path d="M128.625 21.4418C128.581 21.4418 128.546 21.4287 128.52 21.4015C128.495 21.3733 128.482 21.339 128.482 21.2967C128.482 21.2564 128.494 21.2232 128.52 21.198C128.546 21.1718 128.581 21.1577 128.625 21.1577C128.669 21.1577 128.703 21.1718 128.727 21.198C128.753 21.2232 128.766 21.2564 128.766 21.2967C128.766 21.339 128.754 21.3743 128.727 21.4015C128.703 21.4287 128.669 21.4418 128.625 21.4418Z" fill="#2A2929"/>
<path d="M129.059 21.4459C129.028 21.4459 129.003 21.4389 128.984 21.4248C128.966 21.4107 128.955 21.3925 128.951 21.3684C128.948 21.3452 128.953 21.319 128.966 21.2908L129.471 20.1706C129.489 20.1344 129.508 20.1092 129.53 20.0931C129.553 20.0759 129.581 20.0679 129.611 20.0679C129.641 20.0679 129.667 20.0759 129.691 20.0931C129.714 20.1092 129.735 20.1344 129.752 20.1706L130.257 21.2908C130.271 21.319 130.276 21.3452 130.272 21.3704C130.269 21.3945 130.258 21.4137 130.241 21.4268C130.223 21.4389 130.199 21.4459 130.17 21.4459C130.134 21.4459 130.107 21.4379 130.088 21.4207C130.068 21.4036 130.051 21.3774 130.036 21.3412L129.91 21.051L130.014 21.1185H129.207L129.309 21.051L129.187 21.3412C129.17 21.3794 129.153 21.4066 129.135 21.4227C129.117 21.4379 129.092 21.4459 129.059 21.4459ZM129.607 20.3489L129.341 20.9866L129.29 20.9241H129.93L129.881 20.9866L129.61 20.3489H129.607Z" fill="#2A2929"/>
<path d="M130.599 21.4418C130.556 21.4418 130.521 21.4287 130.494 21.4015C130.469 21.3733 130.456 21.339 130.456 21.2967C130.456 21.2564 130.468 21.2232 130.494 21.198C130.521 21.1718 130.556 21.1577 130.599 21.1577C130.644 21.1577 130.678 21.1718 130.702 21.198C130.727 21.2232 130.74 21.2564 130.74 21.2967C130.74 21.339 130.728 21.3743 130.702 21.4015C130.678 21.4287 130.644 21.4418 130.599 21.4418Z" fill="#2A2929"/>
<path d="M0 0H25.3126V24H0V0Z" fill="#FF4431"/>
<path d="M24.2268 7.66691C24.1986 7.66691 24.1704 7.66086 24.1442 7.64777L18.6874 5.02867C18.6824 5.20899 18.5947 5.38527 18.4336 5.49608L9.21233 11.8555C9.11059 11.926 8.99373 11.9592 8.8789 11.9592C8.69254 11.9592 8.50819 11.8706 8.39436 11.7044C8.21002 11.4364 8.27651 11.0707 8.54446 10.8864L17.7657 4.52702C17.95 4.39908 18.1827 4.39203 18.3691 4.48773C18.4054 4.48269 18.4436 4.48672 18.4789 4.50485L24.3084 7.30326C24.4041 7.34859 24.4434 7.46242 24.3981 7.55812C24.3658 7.62762 24.2973 7.66691 24.2268 7.66691Z" fill="white"/>
<path d="M24.2268 10.4655C24.1986 10.4655 24.1704 10.4595 24.1442 10.4464L18.6874 7.82726C18.6824 8.00757 18.5947 8.18386 18.4336 8.29467L9.21233 14.654C9.11059 14.7245 8.99373 14.7578 8.8789 14.7578C8.69254 14.7578 8.50819 14.6691 8.39436 14.5029C8.21002 14.235 8.27651 13.8693 8.54446 13.685L17.7657 7.3256C17.95 7.19767 18.1827 7.19061 18.3691 7.28631C18.4054 7.28127 18.4436 7.28531 18.4789 7.30344L24.3084 10.1018C24.4041 10.1472 24.4434 10.261 24.3981 10.3567C24.3658 10.4262 24.2973 10.4655 24.2268 10.4655Z" fill="white"/>
<path d="M24.3094 10.1027L18.4981 7.31332C18.3731 7.25389 18.2372 7.22266 18.0981 7.22266V7.75453L18.8003 7.72331L24.2732 10.3233L24.3094 10.1027Z" fill="white"/>
<path d="M18.0982 8.40027C18.4237 8.40027 18.6875 8.13644 18.6875 7.81098C18.6875 7.48552 18.4237 7.22168 18.0982 7.22168C17.7727 7.22168 17.5089 7.48552 17.5089 7.81098C17.5089 8.13644 17.7727 8.40027 18.0982 8.40027Z" fill="white"/>
<path d="M24.2268 13.2636C24.1986 13.2636 24.1704 13.2575 24.1442 13.2444L18.6874 10.6254C18.6824 10.8057 18.5947 10.982 18.4336 11.0928L9.21233 17.4521C9.11059 17.5226 8.99373 17.5559 8.8789 17.5559C8.69254 17.5559 8.50819 17.4672 8.39436 17.301C8.21002 17.0331 8.27651 16.6674 8.54446 16.4831L17.7657 10.1237C17.95 9.99576 18.1827 9.98871 18.3691 10.0844C18.4054 10.0794 18.4436 10.0834 18.4789 10.1015L24.3084 12.8999C24.4041 12.9453 24.4434 13.0591 24.3981 13.1548C24.3658 13.2233 24.2973 13.2636 24.2268 13.2636Z" fill="white"/>
<path d="M24.3094 12.9012L18.4981 10.1119C18.3731 10.0525 18.2372 10.0212 18.0981 10.0212V10.5531L18.8003 10.5219L24.2732 13.1219L24.3094 12.9012Z" fill="white"/>
<path d="M18.0982 11.1986C18.4237 11.1986 18.6875 10.9348 18.6875 10.6093C18.6875 10.2839 18.4237 10.02 18.0982 10.02C17.7727 10.02 17.5089 10.2839 17.5089 10.6093C17.5089 10.9348 17.7727 11.1986 18.0982 11.1986Z" fill="white"/>
<path d="M24.2268 16.0622C24.1986 16.0622 24.1704 16.0561 24.1442 16.043L18.6874 13.4239C18.6824 13.6043 18.5947 13.7805 18.4336 13.8913L9.21233 20.2507C9.11059 20.3212 8.99373 20.3545 8.8789 20.3545C8.69254 20.3545 8.50819 20.2658 8.39436 20.0996C8.21002 19.8317 8.27651 19.466 8.54446 19.2816L17.7657 12.9223C17.95 12.7943 18.1827 12.7873 18.3691 12.883C18.4054 12.878 18.4436 12.882 18.4789 12.9001L24.3084 15.6985C24.4041 15.7438 24.4434 15.8577 24.3981 15.9534C24.3658 16.0219 24.2973 16.0622 24.2268 16.0622Z" fill="white"/>
<path d="M24.3094 15.6986L18.4981 12.9093C18.3731 12.8498 18.2372 12.8186 18.0981 12.8186V13.3505L18.8003 13.3193L24.2732 15.9192L24.3094 15.6986Z" fill="white"/>
<path d="M18.0982 13.9972C18.4237 13.9972 18.6875 13.7334 18.6875 13.4079C18.6875 13.0824 18.4237 12.8186 18.0982 12.8186C17.7727 12.8186 17.5089 13.0824 17.5089 13.4079C17.5089 13.7334 17.7727 13.9972 18.0982 13.9972Z" fill="white"/>
<path d="M24.2268 18.8595C24.1986 18.8595 24.1704 18.8535 24.1442 18.8404L18.6874 16.2213C18.6824 16.4016 18.5947 16.5779 18.4336 16.6887L9.21233 23.0481C9.11059 23.1186 8.99373 23.1518 8.8789 23.1518C8.69254 23.1518 8.50819 23.0632 8.39436 22.897C8.21002 22.629 8.27651 22.2634 8.54446 22.079L17.7657 15.7196C17.95 15.5917 18.1827 15.5847 18.3691 15.6804C18.4054 15.6753 18.4436 15.6794 18.4789 15.6975L24.3084 18.4959C24.4041 18.5412 24.4434 18.655 24.3981 18.7507C24.3658 18.8203 24.2973 18.8595 24.2268 18.8595Z" fill="white"/>
<path d="M24.3094 18.4969L18.4981 15.7076C18.3731 15.6482 18.2372 15.6169 18.0981 15.6169V16.1488L18.8003 16.1176L24.2732 18.7176L24.3094 18.4969Z" fill="white"/>
<path d="M18.0982 16.7943C18.4237 16.7943 18.6875 16.5305 18.6875 16.205C18.6875 15.8796 18.4237 15.6157 18.0982 15.6157C17.7727 15.6157 17.5089 15.8796 17.5089 16.205C17.5089 16.5305 17.7727 16.7943 18.0982 16.7943Z" fill="white"/>
<path d="M24.3093 7.30408L18.4979 4.51474C18.373 4.4553 18.237 4.42407 18.098 4.42407V4.95595L18.8001 4.92472L24.2731 7.52468L24.3093 7.30408Z" fill="white"/>
<path d="M18.0981 5.60193C18.4235 5.60193 18.6874 5.3381 18.6874 5.01264C18.6874 4.68718 18.4235 4.42334 18.0981 4.42334C17.7726 4.42334 17.5088 4.68718 17.5088 5.01264C17.5088 5.3381 17.7726 5.60193 18.0981 5.60193Z" fill="white"/>
</svg>
