<svg width="262" height="48" viewBox="0 0 262 48" fill="none" xmlns="http://www.w3.org/2000/svg">
<path d="M57.8611 38.0111C57.4682 38.0111 57.1579 37.9204 56.9242 37.7391C56.6905 37.5538 56.5576 37.31 56.5213 37.0038C56.485 36.6955 56.5515 36.347 56.7228 35.9541L66.8204 12.9625C67.04 12.4729 67.3039 12.1243 67.6102 11.9168C67.9184 11.7073 68.2549 11.6025 68.6215 11.6025C68.9882 11.6025 69.3226 11.7073 69.6289 11.9168C69.9371 12.1243 70.189 12.4729 70.3844 12.9625L80.5203 35.9541C80.7157 36.347 80.7943 36.7016 80.76 37.0199C80.7238 37.3382 80.5948 37.584 80.3732 37.7552C80.1556 37.9245 79.8494 38.0111 79.4586 38.0111C79.0153 38.0111 78.6607 37.8942 78.3928 37.6626C78.1248 37.4309 77.9032 37.0944 77.73 36.6512L75.0142 30.3714L76.4829 31.143H60.6877L62.1947 30.3714L59.5131 36.6512C59.2915 37.1186 59.0578 37.4631 58.812 37.6827C58.5702 37.9023 58.2519 38.0111 57.8611 38.0111ZM68.5853 15.3881L62.6722 29.3056L61.7897 28.6085H75.3808L74.5749 29.3056L68.6618 15.3881H68.5853Z" fill="#2A2929"/>
<path d="M86.6912 38.0113C86.2016 38.0113 85.8269 37.8703 85.571 37.5922C85.3131 37.3102 85.1842 36.9233 85.1842 36.4338V13.4018C85.1842 12.8881 85.3192 12.5033 85.5871 12.2474C85.8571 11.9895 86.2379 11.8606 86.7295 11.8606H95.4349C98.2011 11.8606 100.331 12.5093 101.824 13.8088C103.318 15.1042 104.064 16.9517 104.064 19.3532C104.064 20.8703 103.725 22.1859 103.052 23.302C102.382 24.4161 101.396 25.2603 100.097 25.8365C98.7975 26.4107 97.2441 26.6968 95.4329 26.6968L95.7976 26.2173H96.5329C97.4899 26.2173 98.322 26.4631 99.0312 26.9526C99.7424 27.4422 100.391 28.2259 100.979 29.3038L104.505 35.8817C104.701 36.2242 104.793 36.5587 104.783 36.8891C104.771 37.2195 104.654 37.4895 104.435 37.699C104.213 37.9065 103.895 38.0093 103.478 38.0093C103.063 38.0093 102.72 37.9105 102.45 37.7151C102.182 37.5197 101.948 37.2396 101.753 36.871L97.7478 29.4509C97.1857 28.3992 96.535 27.6961 95.7996 27.3395C95.0663 26.9849 94.0992 26.8056 92.8984 26.8056H88.1982V36.4297C88.1982 36.9193 88.0753 37.3061 87.8295 37.5882C87.5857 37.8702 87.2049 38.0113 86.6912 38.0113ZM88.1982 24.4202H94.9937C97.0004 24.4202 98.5174 23.9991 99.5469 23.157C100.576 22.3128 101.092 21.0456 101.092 19.3532C101.092 17.7113 100.576 16.4682 99.5469 15.6261C98.5174 14.7819 96.9983 14.3588 94.9937 14.3588H88.1982V24.4202Z" fill="#2A2929"/>
<path d="M120.774 38.0876C118.228 38.0876 116.048 37.5497 114.235 36.4718C112.423 35.396 111.033 33.8648 110.066 31.8804C109.101 29.8979 108.618 27.5347 108.618 24.7907C108.618 22.7337 108.892 20.8922 109.444 19.2623C109.994 17.6345 110.789 16.2504 111.827 15.1121C112.869 13.9738 114.148 13.0914 115.667 12.4688C117.186 11.8463 118.886 11.532 120.77 11.532C122.289 11.532 123.734 11.7455 125.106 12.1747C126.476 12.6018 127.664 13.2344 128.67 14.0685C128.988 14.3123 129.204 14.5883 129.312 14.8945C129.421 15.2007 129.431 15.4929 129.347 15.7769C129.262 16.057 129.115 16.2887 128.905 16.474C128.698 16.6574 128.448 16.746 128.154 16.746C127.86 16.746 127.529 16.6251 127.163 16.3813C126.28 15.6702 125.313 15.1443 124.258 14.8038C123.206 14.4593 122.068 14.2881 120.845 14.2881C118.911 14.2881 117.271 14.6991 115.921 15.517C114.575 16.337 113.56 17.5317 112.875 19.1012C112.188 20.6686 111.847 22.5664 111.847 24.7927C111.847 27.0209 112.19 28.9248 112.875 30.5043C113.56 32.0818 114.575 33.2826 115.921 34.1005C117.269 34.9205 118.911 35.3295 120.845 35.3295C122.045 35.3295 123.184 35.1522 124.262 34.8017C125.337 34.4471 126.331 33.9132 127.237 33.202C127.604 32.9562 127.934 32.8393 128.229 32.8534C128.523 32.8655 128.766 32.9582 128.964 33.1315C129.159 33.3027 129.3 33.5223 129.383 33.7903C129.47 34.0582 129.47 34.3403 129.383 34.6344C129.298 34.9286 129.111 35.1865 128.817 35.4061C127.787 36.2885 126.581 36.9554 125.194 37.4087C123.814 37.86 122.34 38.0876 120.774 38.0876Z" fill="#2A2929"/>
<path d="M133.078 38.0111C132.685 38.0111 132.375 37.9204 132.141 37.7391C131.908 37.5538 131.775 37.31 131.738 37.0038C131.702 36.6955 131.769 36.347 131.94 35.9541L142.038 12.9625C142.257 12.4729 142.521 12.1243 142.827 11.9168C143.136 11.7073 143.472 11.6025 143.839 11.6025C144.205 11.6025 144.54 11.7073 144.846 11.9168C145.154 12.1243 145.406 12.4729 145.602 12.9625L155.737 35.9541C155.933 36.347 156.011 36.7016 155.977 37.0199C155.941 37.3382 155.812 37.584 155.59 37.7552C155.373 37.9245 155.067 38.0111 154.676 38.0111C154.232 38.0111 153.878 37.8942 153.61 37.6626C153.342 37.4309 153.12 37.0944 152.947 36.6512L150.231 30.3714L151.7 31.143H135.905L137.412 30.3714L134.73 36.6512C134.509 37.1186 134.275 37.4631 134.029 37.6827C133.787 37.9023 133.469 38.0111 133.078 38.0111ZM143.802 15.3881L137.889 29.3056L137.007 28.6085H150.598L149.792 29.3056L143.879 15.3881H143.802Z" fill="#2A2929"/>
<path d="M166.173 38.124C165.121 38.124 164.007 38.0132 162.833 37.7916C161.658 37.572 160.604 37.1912 159.671 36.6492C159.279 36.4055 159.005 36.1194 158.845 35.789C158.688 35.4586 158.628 35.1282 158.664 34.7977C158.7 34.4653 158.821 34.1772 159.029 33.9334C159.238 33.6877 159.508 33.5285 159.839 33.4539C160.169 33.3814 160.53 33.4439 160.923 33.6393C161.902 34.1047 162.82 34.4291 163.677 34.6124C164.533 34.7957 165.377 34.8844 166.211 34.8844C167.386 34.8844 168.26 34.6829 168.834 34.28C169.41 33.877 169.699 33.3431 169.699 32.6803C169.699 32.1182 169.507 31.6851 169.128 31.3788C168.75 31.0706 168.182 30.8449 167.424 30.6979L163.751 30.0008C162.232 29.7066 161.074 29.1506 160.276 28.3306C159.48 27.5086 159.083 26.4489 159.083 25.1494C159.083 23.9748 159.408 22.9574 160.056 22.1032C160.705 21.2469 161.606 20.5861 162.756 20.1227C163.908 19.6553 165.232 19.4216 166.727 19.4216C167.803 19.4216 168.812 19.5385 169.753 19.7742C170.696 20.0079 171.609 20.3685 172.489 20.8581C172.858 21.0535 173.109 21.3114 173.244 21.6297C173.379 21.946 173.408 22.2704 173.333 22.5988C173.261 22.9292 173.113 23.2234 172.892 23.4812C172.674 23.7391 172.398 23.8983 172.07 23.9607C171.739 24.0232 171.367 23.9547 170.95 23.7593C170.19 23.3684 169.461 23.0864 168.764 22.9151C168.067 22.7418 167.4 22.6552 166.761 22.6552C165.56 22.6552 164.672 22.8647 164.096 23.2798C163.522 23.6968 163.235 24.2488 163.235 24.9338C163.235 25.4496 163.405 25.8787 163.747 26.2232C164.092 26.5657 164.618 26.7954 165.329 26.9163L169.002 27.6174C170.593 27.9115 171.8 28.4515 172.62 29.2332C173.44 30.0169 173.849 31.0686 173.849 32.3902C173.849 34.1792 173.15 35.5815 171.754 36.6009C170.361 37.6163 168.5 38.124 166.173 38.124Z" fill="#2A2929"/>
<path d="M185.565 38.1239C183.972 38.1239 182.644 37.8539 181.578 37.314C180.515 36.774 179.725 35.9863 179.211 34.9467C178.695 33.9051 178.439 32.6137 178.439 31.0684V23.2454H176.53C175.941 23.2454 175.488 23.0923 175.17 22.788C174.853 22.4838 174.696 22.0607 174.696 21.5208C174.696 20.9587 174.855 20.5296 175.17 20.2354C175.488 19.9413 175.941 19.7942 176.53 19.7942H178.439V16.4498C178.439 15.6923 178.641 15.1181 179.044 14.7253C179.449 14.3344 180.019 14.137 180.756 14.137C181.49 14.137 182.052 14.3324 182.445 14.7253C182.836 15.1181 183.033 15.6923 183.033 16.4498V19.7942H186.927C187.516 19.7942 187.967 19.9413 188.283 20.2354C188.602 20.5296 188.763 20.9567 188.763 21.5208C188.763 22.0607 188.604 22.4838 188.283 22.788C187.967 23.0943 187.516 23.2454 186.927 23.2454H183.033V30.8126C183.033 31.9871 183.291 32.8696 183.805 33.4558C184.318 34.0441 185.152 34.3383 186.303 34.3383C186.72 34.3383 187.087 34.302 187.403 34.2295C187.721 34.1569 188.003 34.1086 188.251 34.0824C188.545 34.0582 188.789 34.1489 188.986 34.3604C189.182 34.5679 189.281 34.989 189.281 35.6236C189.281 36.1132 189.2 36.5484 189.041 36.9292C188.882 37.3099 188.593 37.5739 188.176 37.7189C187.86 37.8156 187.443 37.9083 186.929 37.9969C186.41 38.0795 185.956 38.1239 185.565 38.1239Z" fill="#2A2929"/>
<path d="M197.944 38.124C196.449 38.124 195.212 37.848 194.233 37.298C193.254 36.7479 192.524 35.9199 192.047 34.8179C191.571 33.7158 191.334 32.3438 191.334 30.7039V21.8151C191.334 21.0313 191.529 20.4511 191.922 20.0724C192.313 19.6916 192.875 19.5022 193.61 19.5022C194.346 19.5022 194.916 19.6936 195.319 20.0724C195.722 20.4511 195.923 21.0313 195.923 21.8151V30.7764C195.923 32.0497 196.181 32.9926 196.695 33.605C197.208 34.2175 198.03 34.5237 199.159 34.5237C200.382 34.5237 201.385 34.1027 202.169 33.2565C202.952 32.4123 203.343 31.2901 203.343 29.894V21.8151C203.343 21.0313 203.539 20.4511 203.931 20.0724C204.322 19.6916 204.886 19.5022 205.624 19.5022C206.357 19.5022 206.925 19.6936 207.328 20.0724C207.733 20.4511 207.937 21.0313 207.937 21.8151V35.7003C207.937 37.2677 207.189 38.0515 205.696 38.0515C204.985 38.0515 204.433 37.85 204.042 37.447C203.649 37.0421 203.454 36.4598 203.454 35.7003V32.91L203.97 34.01C203.454 35.3336 202.676 36.3511 201.637 37.0622C200.591 37.7694 199.362 38.124 197.944 38.124Z" fill="#2A2929"/>
<path d="M219.61 38.1239C218.043 38.1239 216.665 37.7451 215.476 36.9856C214.29 36.224 213.367 35.1401 212.706 33.7318C212.045 32.3256 211.715 30.6655 211.715 28.7535C211.715 26.8215 212.045 25.1634 212.706 23.7793C213.367 22.3932 214.29 21.3234 215.476 20.5638C216.665 19.8023 218.043 19.4215 219.61 19.4215C221.105 19.4215 222.409 19.7902 223.523 20.5255C224.637 21.2589 225.388 22.226 225.781 23.4267H225.378V13.8771C225.378 13.1195 225.574 12.5454 225.967 12.1525C226.358 11.7616 226.92 11.5642 227.655 11.5642C228.39 11.5642 228.96 11.7596 229.363 12.1525C229.768 12.5454 229.972 13.1195 229.972 13.8771V35.6942C229.972 36.4537 229.776 37.0359 229.384 37.4409C228.991 37.8438 228.429 38.0453 227.691 38.0453C226.958 38.0453 226.396 37.8438 226.003 37.4409C225.61 37.0359 225.415 36.4537 225.415 35.6942V32.8272L225.818 33.9313C225.451 35.2046 224.703 36.222 223.577 36.9836C222.453 37.7451 221.131 38.1239 219.61 38.1239ZM220.896 34.6324C221.802 34.6324 222.598 34.4128 223.283 33.9736C223.968 33.5324 224.5 32.8776 224.879 32.0093C225.259 31.1389 225.449 30.055 225.449 28.7556C225.449 26.7973 225.032 25.3346 224.198 24.3696C223.368 23.4025 222.266 22.917 220.894 22.917C219.989 22.917 219.193 23.1305 218.506 23.5597C217.819 23.9868 217.287 24.6375 216.907 25.5079C216.528 26.3762 216.34 27.4581 216.34 28.7556C216.34 30.6897 216.755 32.1523 217.588 33.1456C218.422 34.1368 219.524 34.6324 220.896 34.6324Z" fill="#2A2929"/>
<path d="M237.017 38.0111C236.284 38.0111 235.722 37.7915 235.329 37.3523C234.936 36.9111 234.741 36.2986 234.741 35.5149V22.0366C234.741 21.2288 234.936 20.6102 235.329 20.1811C235.72 19.754 236.282 19.5384 237.017 19.5384C237.753 19.5384 238.323 19.752 238.726 20.1811C239.131 20.6082 239.334 21.2288 239.334 22.0366V35.5149C239.334 36.2986 239.139 36.9111 238.746 37.3523C238.353 37.7915 237.779 38.0111 237.017 38.0111ZM237.017 16.1215C236.161 16.1215 235.494 15.908 235.015 15.4788C234.539 15.0477 234.302 14.4533 234.302 13.6958C234.302 12.9121 234.539 12.3138 235.015 11.8987C235.494 11.4817 236.161 11.2742 237.017 11.2742C237.9 11.2742 238.571 11.4837 239.036 11.8987C239.504 12.3138 239.737 12.9121 239.737 13.6958C239.737 14.4554 239.504 15.0497 239.036 15.4788C238.571 15.908 237.898 16.1215 237.017 16.1215Z" fill="#2A2929"/>
<path d="M252.296 38.1239C250.434 38.1239 248.818 37.7452 247.448 36.9856C246.076 36.2241 245.013 35.1402 244.255 33.7319C243.496 32.3257 243.117 30.6656 243.117 28.7536C243.117 27.3091 243.33 26.0197 243.76 24.8794C244.187 23.7411 244.805 22.7619 245.611 21.9419C246.419 21.122 247.386 20.4974 248.512 20.0703C249.638 19.6392 250.902 19.4236 252.298 19.4236C254.157 19.4236 255.775 19.8044 257.145 20.5659C258.515 21.3255 259.581 22.4013 260.338 23.7975C261.1 25.1916 261.481 26.8437 261.481 28.7536C261.481 30.1982 261.267 31.4956 260.838 32.648C260.411 33.7984 259.79 34.7836 258.983 35.6036C258.173 36.4235 257.206 37.0501 256.077 37.4792C254.953 37.9104 253.692 38.1239 252.296 38.1239ZM252.296 34.6325C253.202 34.6325 253.998 34.4129 254.683 33.9737C255.368 33.5325 255.9 32.8777 256.279 32.0094C256.66 31.139 256.849 30.0551 256.849 28.7556C256.849 26.7974 256.432 25.3347 255.598 24.3697C254.768 23.4026 253.666 22.9171 252.294 22.9171C251.389 22.9171 250.593 23.1306 249.906 23.5597C249.219 23.9869 248.687 24.6376 248.307 25.508C247.928 26.3763 247.741 27.4582 247.741 28.7556C247.741 30.6897 248.156 32.1524 248.988 33.1456C249.822 34.1369 250.926 34.6325 252.296 34.6325Z" fill="#2A2929"/>
<path d="M244.415 43.8638C244.333 43.8638 244.274 43.8457 244.238 43.8094C244.202 43.7732 244.184 43.7188 244.184 43.6462C244.184 43.6039 244.194 43.5616 244.218 43.5213C244.24 43.479 244.274 43.4367 244.319 43.3904L245.086 42.5724C245.203 42.4495 245.288 42.3367 245.338 42.2359C245.388 42.1352 245.415 42.0325 245.415 41.9297C245.415 41.8048 245.374 41.7081 245.294 41.6396C245.215 41.5731 245.098 41.5389 244.945 41.5389C244.859 41.5389 244.772 41.551 244.685 41.5772C244.599 41.6013 244.51 41.6436 244.421 41.7021C244.377 41.7343 244.335 41.7464 244.296 41.7403C244.256 41.7343 244.222 41.7182 244.192 41.69C244.164 41.6618 244.143 41.6295 244.133 41.5892C244.121 41.5469 244.123 41.5046 244.137 41.4643C244.151 41.422 244.182 41.3857 244.23 41.3555C244.339 41.279 244.462 41.2246 244.595 41.1883C244.732 41.15 244.869 41.1299 245.01 41.1299C245.203 41.1299 245.364 41.1601 245.497 41.2185C245.632 41.277 245.733 41.3636 245.799 41.4744C245.868 41.5872 245.904 41.7242 245.904 41.8854C245.904 41.9922 245.888 42.0969 245.854 42.1997C245.82 42.3004 245.767 42.4052 245.695 42.51C245.624 42.6147 245.534 42.7235 245.423 42.8424L244.705 43.5898V43.4589H245.83C245.898 43.4589 245.951 43.475 245.985 43.5092C246.021 43.5435 246.039 43.5938 246.039 43.6603C246.039 43.7248 246.021 43.7752 245.985 43.8114C245.951 43.8477 245.898 43.8658 245.83 43.8658H244.415V43.8638Z" fill="#2A2929"/>
<path d="M247.354 43.9004C247.036 43.9004 246.79 43.7815 246.619 43.5398C246.452 43.3 246.367 42.9555 246.367 42.5082C246.367 42.2101 246.405 41.9582 246.48 41.7527C246.556 41.5452 246.665 41.3901 246.812 41.2873C246.959 41.1806 247.141 41.1282 247.354 41.1282C247.675 41.1282 247.918 41.245 248.084 41.4807C248.251 41.7165 248.335 42.0569 248.335 42.5042C248.335 42.8044 248.297 43.0582 248.223 43.2678C248.146 43.4753 248.035 43.6324 247.89 43.7412C247.745 43.848 247.566 43.9004 247.354 43.9004ZM247.354 43.4975C247.528 43.4975 247.654 43.4169 247.737 43.2577C247.822 43.0965 247.862 42.8447 247.862 42.5022C247.862 42.1617 247.82 41.9139 247.737 41.7588C247.654 41.6057 247.528 41.5271 247.354 41.5271C247.181 41.5271 247.052 41.6057 246.967 41.7588C246.883 41.9139 246.843 42.1597 246.843 42.5022C246.843 42.8447 246.885 43.0965 246.967 43.2577C247.052 43.4189 247.179 43.4975 247.354 43.4975Z" fill="#2A2929"/>
<path d="M249.008 43.8638C248.925 43.8638 248.867 43.8457 248.831 43.8094C248.794 43.7732 248.776 43.7188 248.776 43.6462C248.776 43.6039 248.786 43.5616 248.81 43.5213C248.833 43.479 248.867 43.4367 248.911 43.3904L249.679 42.5724C249.796 42.4495 249.88 42.3367 249.931 42.2359C249.981 42.1352 250.007 42.0325 250.007 41.9297C250.007 41.8048 249.967 41.7081 249.886 41.6396C249.808 41.5731 249.691 41.5389 249.538 41.5389C249.451 41.5389 249.364 41.551 249.278 41.5772C249.191 41.6013 249.103 41.6436 249.014 41.7021C248.97 41.7343 248.927 41.7464 248.889 41.7403C248.849 41.7343 248.814 41.7182 248.784 41.69C248.756 41.6618 248.736 41.6295 248.726 41.5892C248.714 41.5469 248.716 41.5046 248.73 41.4643C248.744 41.422 248.774 41.3857 248.823 41.3555C248.931 41.279 249.054 41.2246 249.187 41.1883C249.324 41.15 249.461 41.1299 249.602 41.1299C249.796 41.1299 249.957 41.1601 250.09 41.2185C250.225 41.277 250.325 41.3636 250.392 41.4744C250.46 41.5872 250.497 41.7242 250.497 41.8854C250.497 41.9922 250.481 42.0969 250.446 42.1997C250.412 42.3004 250.36 42.4052 250.287 42.51C250.217 42.6147 250.126 42.7235 250.015 42.8424L249.298 43.5898V43.4589H250.422C250.491 43.4589 250.543 43.475 250.577 43.5092C250.614 43.5435 250.632 43.5938 250.632 43.6603C250.632 43.7248 250.614 43.7752 250.577 43.8114C250.543 43.8477 250.491 43.8658 250.422 43.8658H249.008V43.8638Z" fill="#2A2929"/>
<path d="M251.967 43.9002C251.832 43.9002 251.695 43.8841 251.552 43.8498C251.411 43.8136 251.284 43.7571 251.165 43.6826C251.117 43.6524 251.085 43.6161 251.068 43.5738C251.052 43.5315 251.048 43.4892 251.056 43.4489C251.066 43.4066 251.087 43.3723 251.115 43.3441C251.145 43.3139 251.181 43.2958 251.224 43.2898C251.266 43.2837 251.312 43.2958 251.363 43.324C251.457 43.3804 251.552 43.4227 251.649 43.4489C251.745 43.4771 251.85 43.4912 251.959 43.4912C252.068 43.4912 252.16 43.4731 252.237 43.4328C252.314 43.3945 252.37 43.3401 252.408 43.2736C252.451 43.2051 252.471 43.1225 252.471 43.0298C252.471 42.8868 252.426 42.772 252.34 42.6853C252.253 42.5967 252.134 42.5504 251.987 42.5504C251.903 42.5504 251.824 42.5645 251.747 42.5927C251.671 42.6168 251.596 42.6632 251.522 42.7317C251.5 42.7518 251.469 42.772 251.433 42.7901C251.399 42.8102 251.363 42.8203 251.32 42.8203C251.256 42.8203 251.208 42.8042 251.173 42.77C251.139 42.7357 251.123 42.6894 251.123 42.6309V41.3798C251.123 41.3113 251.141 41.2569 251.177 41.2207C251.216 41.1844 251.27 41.1663 251.34 41.1663H252.6C252.666 41.1663 252.719 41.1844 252.755 41.2207C252.793 41.2549 252.813 41.3033 252.813 41.3677C252.813 41.4322 252.793 41.4826 252.755 41.5188C252.719 41.5551 252.666 41.5732 252.6 41.5732H251.6V42.4295H251.475C251.542 42.3408 251.631 42.2723 251.739 42.224C251.848 42.1736 251.969 42.1474 252.1 42.1474C252.269 42.1474 252.418 42.1837 252.545 42.2562C252.67 42.3287 252.769 42.4315 252.839 42.5624C252.912 42.6914 252.948 42.8425 252.948 43.0117C252.948 43.189 252.908 43.3441 252.827 43.4771C252.749 43.6101 252.636 43.7128 252.487 43.7874C252.342 43.8639 252.169 43.9002 251.967 43.9002Z" fill="#2A2929"/>
<path d="M255.678 43.9003C255.398 43.9003 255.158 43.8438 254.957 43.733C254.757 43.6182 254.604 43.459 254.495 43.2495C254.388 43.04 254.336 42.7942 254.336 42.5101C254.336 42.2986 254.366 42.1072 254.429 41.94C254.489 41.7707 254.578 41.6237 254.693 41.5028C254.808 41.3799 254.949 41.2872 255.116 41.2207C255.283 41.1563 255.47 41.124 255.678 41.124C255.821 41.124 255.96 41.1421 256.093 41.1784C256.228 41.2127 256.347 41.263 256.449 41.3295C256.502 41.3638 256.538 41.4041 256.554 41.4504C256.572 41.4988 256.576 41.5451 256.566 41.5894C256.554 41.6337 256.532 41.672 256.5 41.7022C256.468 41.7345 256.429 41.7506 256.383 41.7526C256.339 41.7566 256.288 41.7405 256.232 41.7063C256.149 41.6539 256.065 41.6156 255.972 41.5934C255.881 41.5713 255.789 41.5592 255.694 41.5592C255.511 41.5592 255.358 41.5975 255.233 41.672C255.11 41.7445 255.015 41.8513 254.951 41.9903C254.886 42.1314 254.854 42.3026 254.854 42.5061C254.854 42.7076 254.886 42.8788 254.951 43.0219C255.015 43.1649 255.108 43.2737 255.233 43.3482C255.358 43.4208 255.513 43.457 255.694 43.457C255.791 43.457 255.887 43.447 255.98 43.4228C256.075 43.3986 256.165 43.3603 256.248 43.31C256.304 43.2757 256.355 43.2616 256.399 43.2636C256.443 43.2677 256.482 43.2838 256.512 43.314C256.542 43.3422 256.562 43.3764 256.57 43.4187C256.58 43.4611 256.578 43.5054 256.562 43.5497C256.548 43.594 256.518 43.6323 256.474 43.6625C256.373 43.7391 256.252 43.7955 256.109 43.8338C255.968 43.8801 255.823 43.9003 255.678 43.9003Z" fill="#2A2929"/>
<path d="M257.249 43.884C257.163 43.884 257.092 43.8579 257.04 43.8035C256.989 43.7471 256.963 43.6786 256.963 43.5939C256.963 43.5133 256.987 43.4469 257.04 43.3965C257.092 43.3441 257.163 43.3159 257.249 43.3159C257.338 43.3159 257.406 43.3441 257.455 43.3965C257.505 43.4469 257.531 43.5133 257.531 43.5939C257.531 43.6786 257.507 43.7491 257.455 43.8035C257.406 43.8579 257.338 43.884 257.249 43.884Z" fill="#2A2929"/>
<path d="M258.119 43.8921C258.057 43.8921 258.006 43.878 257.968 43.8498C257.932 43.8216 257.91 43.7853 257.902 43.7369C257.896 43.6906 257.906 43.6382 257.932 43.5818L258.943 41.3415C258.978 41.2689 259.016 41.2186 259.06 41.1864C259.107 41.1521 259.163 41.136 259.223 41.136C259.282 41.136 259.334 41.1521 259.383 41.1864C259.429 41.2186 259.471 41.2689 259.503 41.3415L260.515 43.5818C260.543 43.6382 260.553 43.6906 260.545 43.741C260.539 43.7893 260.517 43.8276 260.483 43.8538C260.446 43.878 260.398 43.8921 260.339 43.8921C260.269 43.8921 260.215 43.876 260.176 43.8417C260.136 43.8075 260.102 43.7551 260.072 43.6825L259.82 43.1023L260.029 43.2373H258.413L258.619 43.1023L258.375 43.6825C258.341 43.7591 258.307 43.8135 258.27 43.8457C258.234 43.876 258.184 43.8921 258.119 43.8921ZM259.215 41.6981L258.681 42.9734L258.581 42.8485H259.86L259.763 42.9734L259.221 41.6981H259.215Z" fill="#2A2929"/>
<path d="M261.199 43.884C261.112 43.884 261.041 43.8579 260.989 43.8035C260.939 43.7471 260.912 43.6786 260.912 43.5939C260.912 43.5133 260.937 43.4469 260.989 43.3965C261.041 43.3441 261.112 43.3159 261.199 43.3159C261.287 43.3159 261.356 43.3441 261.404 43.3965C261.454 43.4469 261.481 43.5133 261.481 43.5939C261.481 43.6786 261.456 43.7491 261.404 43.8035C261.356 43.8579 261.287 43.884 261.199 43.884Z" fill="#2A2929"/>
<path d="M0 0H50.6251V48H0V0Z" fill="#FF4431"/>
<path d="M48.4534 15.3338C48.397 15.3338 48.3406 15.3217 48.2882 15.2955L37.3746 10.0573C37.3645 10.418 37.1892 10.7705 36.8669 10.9922L18.4244 23.7109C18.2209 23.8519 17.9872 23.9184 17.7576 23.9184C17.3848 23.9184 17.0161 23.7411 16.7885 23.4087C16.4198 22.8728 16.5528 22.1415 17.0887 21.7728L35.5312 9.05403C35.8998 8.79817 36.3652 8.78406 36.738 8.97546C36.8105 8.96538 36.887 8.97344 36.9576 9.00971L48.6166 14.6065C48.808 14.6972 48.8865 14.9248 48.7959 15.1162C48.7314 15.2552 48.5944 15.3338 48.4534 15.3338Z" fill="white"/>
<path d="M48.4534 20.9307C48.397 20.9307 48.3406 20.9187 48.2882 20.8925L37.3746 15.6543C37.3645 16.0149 37.1892 16.3675 36.8669 16.5891L18.4244 29.3078C18.2209 29.4489 17.9872 29.5153 17.7576 29.5153C17.3848 29.5153 17.0161 29.338 16.7885 29.0056C16.4198 28.4697 16.5528 27.7384 17.0887 27.3697L35.5312 14.651C35.8998 14.3951 36.3652 14.381 36.738 14.5724C36.8105 14.5623 36.887 14.5704 36.9576 14.6066L48.6166 20.2034C48.808 20.2941 48.8865 20.5218 48.7959 20.7132C48.7314 20.8522 48.5944 20.9307 48.4534 20.9307Z" fill="white"/>
<path d="M48.6187 20.2053L36.996 14.6266C36.7462 14.5078 36.4742 14.4453 36.1962 14.4453V15.5091L37.6004 15.4466L48.5462 20.6465L48.6187 20.2053Z" fill="white"/>
<path d="M36.1961 16.8005C36.847 16.8005 37.3746 16.2729 37.3746 15.622C37.3746 14.971 36.847 14.4434 36.1961 14.4434C35.5451 14.4434 35.0175 14.971 35.0175 15.622C35.0175 16.2729 35.5451 16.8005 36.1961 16.8005Z" fill="white"/>
<path d="M48.4534 26.5274C48.397 26.5274 48.3406 26.5153 48.2882 26.4891L37.3746 21.2509C37.3645 21.6116 37.1892 21.9642 36.8669 22.1858L18.4244 34.9045C18.2209 35.0455 17.9872 35.112 17.7576 35.112C17.3848 35.112 17.0161 34.9347 16.7885 34.6023C16.4198 34.0664 16.5528 33.3351 17.0887 32.9664L35.5312 20.2476C35.8998 19.9918 36.3652 19.9777 36.738 20.1691C36.8105 20.159 36.887 20.167 36.9576 20.2033L48.6166 25.8001C48.808 25.8908 48.8865 26.1184 48.7959 26.3098C48.7314 26.4468 48.5944 26.5274 48.4534 26.5274Z" fill="white"/>
<path d="M48.6187 25.8025L36.996 20.2238C36.7462 20.1049 36.4742 20.0425 36.1962 20.0425V21.1062L37.6004 21.0438L48.5462 26.2437L48.6187 25.8025Z" fill="white"/>
<path d="M36.1961 22.3975C36.847 22.3975 37.3746 21.8698 37.3746 21.2189C37.3746 20.568 36.847 20.0403 36.1961 20.0403C35.5451 20.0403 35.0175 20.568 35.0175 21.2189C35.0175 21.8698 35.5451 22.3975 36.1961 22.3975Z" fill="white"/>
<path d="M48.4534 32.1244C48.397 32.1244 48.3406 32.1123 48.2882 32.0861L37.3746 26.8479C37.3645 27.2085 37.1892 27.5611 36.8669 27.7827L18.4244 40.5014C18.2209 40.6425 17.9872 40.7089 17.7576 40.7089C17.3848 40.7089 17.0161 40.5316 16.7885 40.1992C16.4198 39.6633 16.5528 38.932 17.0887 38.5633L35.5312 25.8446C35.8998 25.5887 36.3652 25.5746 36.738 25.766C36.8105 25.7559 36.887 25.764 36.9576 25.8002L48.6166 31.397C48.808 31.4877 48.8865 31.7154 48.7959 31.9068C48.7314 32.0438 48.5944 32.1244 48.4534 32.1244Z" fill="white"/>
<path d="M48.6187 31.397L36.996 25.8183C36.7462 25.6994 36.4742 25.637 36.1962 25.637V26.7007L37.6004 26.6383L48.5462 31.8382L48.6187 31.397Z" fill="white"/>
<path d="M36.1961 27.9942C36.847 27.9942 37.3746 27.4665 37.3746 26.8156C37.3746 26.1646 36.847 25.637 36.1961 25.637C35.5451 25.637 35.0175 26.1646 35.0175 26.8156C35.0175 27.4665 35.5451 27.9942 36.1961 27.9942Z" fill="white"/>
<path d="M48.4534 37.7191C48.397 37.7191 48.3406 37.707 48.2882 37.6808L37.3746 32.4426C37.3645 32.8032 37.1892 33.1558 36.8669 33.3774L18.4244 46.0962C18.2209 46.2372 17.9872 46.3037 17.7576 46.3037C17.3848 46.3037 17.0161 46.1264 16.7885 45.794C16.4198 45.258 16.5528 44.5267 17.0887 44.158L35.5312 31.4393C35.8998 31.1834 36.3652 31.1693 36.738 31.3607C36.8105 31.3506 36.887 31.3587 36.9576 31.395L48.6166 36.9918C48.808 37.0824 48.8865 37.3101 48.7959 37.5015C48.7314 37.6405 48.5944 37.7191 48.4534 37.7191Z" fill="white"/>
<path d="M48.6187 36.9936L36.996 31.415C36.7462 31.2961 36.4742 31.2336 36.1962 31.2336V32.2974L37.6004 32.235L48.5462 37.4349L48.6187 36.9936Z" fill="white"/>
<path d="M36.1961 33.5889C36.847 33.5889 37.3746 33.0612 37.3746 32.4103C37.3746 31.7594 36.847 31.2317 36.1961 31.2317C35.5451 31.2317 35.0175 31.7594 35.0175 32.4103C35.0175 33.0612 35.5451 33.5889 36.1961 33.5889Z" fill="white"/>
<path d="M48.6187 14.6084L36.996 9.02972C36.7462 8.91085 36.4742 8.84839 36.1962 8.84839V9.91215L37.6004 9.84969L48.5462 15.0496L48.6187 14.6084Z" fill="white"/>
<path d="M36.1961 11.2036C36.847 11.2036 37.3746 10.676 37.3746 10.025C37.3746 9.37411 36.847 8.84644 36.1961 8.84644C35.5451 8.84644 35.0175 9.37411 35.0175 10.025C35.0175 10.676 35.5451 11.2036 36.1961 11.2036Z" fill="white"/>
</svg>
