<svg width="175" height="32" viewBox="0 0 175 32" fill="none" xmlns="http://www.w3.org/2000/svg">
<path d="M38.574 25.3408C38.3121 25.3408 38.1053 25.2804 37.9495 25.1595C37.7937 25.0359 37.705 24.8734 37.6808 24.6693C37.6567 24.4638 37.701 24.2314 37.8151 23.9695L44.5469 8.64172C44.6933 8.31534 44.8693 8.08298 45.0734 7.94463C45.2789 7.80495 45.5032 7.73511 45.7477 7.73511C45.9921 7.73511 46.2151 7.80495 46.4192 7.94463C46.6247 8.08298 46.7926 8.31534 46.9229 8.64172L53.6802 23.9695C53.8104 24.2314 53.8628 24.4678 53.84 24.68C53.8158 24.8922 53.7299 25.0561 53.5821 25.1702C53.4371 25.2831 53.2329 25.3408 52.9723 25.3408C52.6768 25.3408 52.4405 25.2629 52.2618 25.1085C52.0832 24.954 51.9354 24.7297 51.8199 24.4342L50.0094 20.2477L50.9885 20.7621H40.4584L41.4631 20.2477L39.6754 24.4342C39.5276 24.7458 39.3718 24.9755 39.208 25.1219C39.0468 25.2683 38.8346 25.3408 38.574 25.3408ZM45.7235 10.2588L41.7814 19.5372L41.1931 19.0724H50.2538L49.7166 19.5372L45.7745 10.2588H45.7235Z" fill="#2A2929"/>
<path d="M57.7941 25.3408C57.4677 25.3408 57.2179 25.2467 57.0473 25.0614C56.8754 24.8734 56.7894 24.6155 56.7894 24.2891V8.93447C56.7894 8.59198 56.8794 8.33544 57.0581 8.16486C57.238 7.99294 57.4919 7.90698 57.8196 7.90698H63.6233C65.4674 7.90698 66.8871 8.33947 67.8823 9.20578C68.8789 10.0694 69.3759 11.3011 69.3759 12.9021C69.3759 13.9134 69.1502 14.7905 68.7016 15.5346C68.2544 16.2773 67.5976 16.8401 66.7312 17.2243C65.8649 17.607 64.8294 17.7978 63.6219 17.7978L63.865 17.4781H64.3553C64.9932 17.4781 65.548 17.642 66.0207 17.9683C66.4949 18.2947 66.9273 18.8172 67.3195 19.5358L69.67 23.9211C69.8003 24.1494 69.8621 24.3724 69.8554 24.5926C69.8473 24.8129 69.7694 24.9929 69.623 25.1326C69.4753 25.2709 69.263 25.3394 68.985 25.3394C68.7083 25.3394 68.48 25.2736 68.3 25.1433C68.1214 25.013 67.9656 24.8263 67.8353 24.5806L65.1652 19.6338C64.7904 18.9327 64.3566 18.464 63.8664 18.2262C63.3775 17.9898 62.7328 17.8703 61.9323 17.8703H58.7987V24.2864C58.7987 24.6128 58.7168 24.8707 58.553 25.0587C58.3904 25.2467 58.1366 25.3408 57.7941 25.3408ZM58.7987 16.28H63.3291C64.6669 16.28 65.6782 15.9993 66.3646 15.4379C67.0509 14.8751 67.3948 14.0303 67.3948 12.9021C67.3948 11.8074 67.0509 10.9787 66.3646 10.4173C65.6782 9.85452 64.6655 9.57246 63.3291 9.57246H58.7987V16.28Z" fill="#2A2929"/>
<path d="M80.5162 25.3917C78.8185 25.3917 77.3652 25.0331 76.1564 24.3146C74.9489 23.5973 74.0222 22.5766 73.3775 21.2536C72.7341 19.9319 72.4117 18.3564 72.4117 16.5271C72.4117 15.1558 72.5944 13.9282 72.9624 12.8416C73.3291 11.7563 73.8596 10.8336 74.5513 10.0747C75.2457 9.31586 76.0986 8.72757 77.1113 8.31254C78.1241 7.89752 79.2577 7.68799 80.5135 7.68799C81.5262 7.68799 82.4892 7.83036 83.4039 8.11645C84.3172 8.40119 85.1097 8.82293 85.7799 9.37898C85.9921 9.5415 86.1358 9.72551 86.2083 9.92967C86.2809 10.1338 86.2876 10.3286 86.2312 10.518C86.1748 10.7047 86.0767 10.8591 85.937 10.9827C85.7987 11.1049 85.6321 11.164 85.4361 11.164C85.24 11.164 85.0197 11.0834 84.7752 10.9209C84.1869 10.4468 83.5422 10.0962 82.8384 9.86923C82.1373 9.63955 81.3785 9.52539 80.5632 9.52539C79.2738 9.52539 78.1805 9.79938 77.2806 10.3447C76.3834 10.8913 75.7064 11.6878 75.2498 12.7341C74.7918 13.7791 74.5648 15.0443 74.5648 16.5285C74.5648 18.014 74.7931 19.2832 75.2498 20.3362C75.7064 21.3879 76.3834 22.1884 77.2806 22.7337C78.1791 23.2803 79.2738 23.553 80.5632 23.553C81.3637 23.553 82.1226 23.4348 82.8411 23.2011C83.5584 22.9647 84.2205 22.6088 84.8249 22.1347C85.0694 21.9708 85.2896 21.8929 85.4857 21.9023C85.6818 21.9104 85.8444 21.9721 85.976 22.0877C86.1063 22.2018 86.2003 22.3482 86.2554 22.5269C86.3131 22.7055 86.3131 22.8935 86.2554 23.0896C86.1989 23.2857 86.074 23.4576 85.8779 23.604C85.1916 24.1923 84.3871 24.6369 83.463 24.9391C82.543 25.24 81.5598 25.3917 80.5162 25.3917Z" fill="#2A2929"/>
<path d="M88.7188 25.3408C88.4569 25.3408 88.25 25.2804 88.0942 25.1595C87.9384 25.0359 87.8498 24.8734 87.8256 24.6693C87.8014 24.4638 87.8458 24.2314 87.9599 23.9695L94.6917 8.64172C94.8381 8.31534 95.014 8.08298 95.2182 7.94463C95.4237 7.80495 95.648 7.73511 95.8924 7.73511C96.1369 7.73511 96.3598 7.80495 96.564 7.94463C96.7695 8.08298 96.9374 8.31534 97.0677 8.64172L103.825 23.9695C103.955 24.2314 104.008 24.4678 103.985 24.68C103.961 24.8922 103.875 25.0561 103.727 25.1702C103.582 25.2831 103.378 25.3408 103.117 25.3408C102.822 25.3408 102.585 25.2629 102.407 25.1085C102.228 24.954 102.08 24.7297 101.965 24.4342L100.154 20.2477L101.133 20.7621H90.6032L91.6078 20.2477L89.8201 24.4342C89.6724 24.7458 89.5166 24.9755 89.3527 25.1219C89.1916 25.2683 88.9793 25.3408 88.7188 25.3408ZM95.8683 10.2588L91.9262 19.5372L91.3379 19.0724H100.399L99.8614 19.5372L95.9193 10.2588H95.8683Z" fill="#2A2929"/>
<path d="M110.782 25.416C110.081 25.416 109.338 25.3421 108.555 25.1944C107.772 25.048 107.07 24.7941 106.448 24.4328C106.186 24.2703 106.003 24.0796 105.897 23.8593C105.792 23.639 105.752 23.4188 105.776 23.1985C105.8 22.9769 105.881 22.7848 106.019 22.6223C106.159 22.4584 106.339 22.3523 106.559 22.3026C106.78 22.2543 107.02 22.2959 107.282 22.4262C107.935 22.7365 108.547 22.9527 109.118 23.0749C109.689 23.1972 110.252 23.2563 110.808 23.2563C111.591 23.2563 112.174 23.1219 112.556 22.8533C112.94 22.5847 113.133 22.2288 113.133 21.7869C113.133 21.4121 113.005 21.1234 112.752 20.9192C112.5 20.7137 112.121 20.5633 111.616 20.4652L109.168 20.0005C108.155 19.8044 107.383 19.4337 106.851 18.8871C106.32 18.3391 106.056 17.6326 106.056 16.7663C106.056 15.9832 106.272 15.3049 106.704 14.7355C107.137 14.1646 107.737 13.7241 108.504 13.4152C109.272 13.1036 110.155 12.9478 111.151 12.9478C111.869 12.9478 112.542 13.0257 113.169 13.1828C113.797 13.3386 114.406 13.579 114.993 13.9054C115.239 14.0357 115.406 14.2076 115.496 14.4198C115.586 14.6307 115.605 14.8469 115.556 15.0659C115.507 15.2861 115.409 15.4822 115.261 15.6542C115.116 15.8261 114.932 15.9322 114.713 15.9738C114.493 16.0155 114.245 15.9698 113.967 15.8395C113.46 15.5789 112.974 15.3909 112.509 15.2767C112.045 15.1612 111.6 15.1035 111.174 15.1035C110.374 15.1035 109.781 15.2432 109.397 15.5198C109.014 15.7979 108.824 16.1659 108.824 16.6225C108.824 16.9664 108.937 17.2525 109.165 17.4821C109.395 17.7105 109.745 17.8636 110.219 17.9442L112.668 18.4116C113.729 18.6077 114.533 18.9676 115.08 19.4888C115.627 20.0113 115.899 20.7124 115.899 21.5935C115.899 22.7862 115.433 23.721 114.503 24.4006C113.574 25.0775 112.333 25.416 110.782 25.416Z" fill="#2A2929"/>
<path d="M123.71 25.4158C122.648 25.4158 121.763 25.2359 121.052 24.8759C120.343 24.5159 119.817 23.9908 119.474 23.2977C119.13 22.6033 118.96 21.7424 118.96 20.7122V15.4968H117.686C117.294 15.4968 116.992 15.3948 116.78 15.1919C116.569 14.9891 116.464 14.7071 116.464 14.3471C116.464 13.9724 116.57 13.6863 116.78 13.4902C116.992 13.2941 117.294 13.1961 117.686 13.1961H118.96V10.9665C118.96 10.4615 119.094 10.0787 119.363 9.81676C119.633 9.55619 120.013 9.42456 120.504 9.42456C120.993 9.42456 121.368 9.55485 121.63 9.81676C121.89 10.0787 122.022 10.4615 122.022 10.9665V13.1961H124.618C125.011 13.1961 125.311 13.2941 125.522 13.4902C125.734 13.6863 125.842 13.971 125.842 14.3471C125.842 14.7071 125.736 14.9891 125.522 15.1919C125.311 15.3961 125.011 15.4968 124.618 15.4968H122.022V20.5416C122.022 21.3247 122.194 21.913 122.537 22.3038C122.879 22.696 123.435 22.8921 124.202 22.8921C124.48 22.8921 124.724 22.8679 124.935 22.8196C125.148 22.7712 125.336 22.739 125.501 22.7215C125.697 22.7054 125.859 22.7658 125.991 22.9069C126.121 23.0452 126.187 23.3259 126.187 23.749C126.187 24.0754 126.133 24.3655 126.027 24.6194C125.921 24.8732 125.729 25.0492 125.451 25.1459C125.24 25.2103 124.962 25.2721 124.62 25.3312C124.273 25.3863 123.971 25.4158 123.71 25.4158Z" fill="#2A2929"/>
<path d="M131.963 25.416C130.966 25.416 130.141 25.232 129.489 24.8653C128.836 24.4986 128.35 23.9466 128.031 23.2119C127.714 22.4772 127.556 21.5626 127.556 20.4693V14.5434C127.556 14.0209 127.686 13.6341 127.948 13.3816C128.209 13.1277 128.583 13.0015 129.074 13.0015C129.564 13.0015 129.944 13.1291 130.212 13.3816C130.481 13.6341 130.615 14.0209 130.615 14.5434V20.5176C130.615 21.3665 130.787 21.995 131.13 22.4034C131.472 22.8117 132.02 23.0158 132.772 23.0158C133.588 23.0158 134.257 22.7351 134.779 22.171C135.302 21.6082 135.562 20.8601 135.562 19.9293V14.5434C135.562 14.0209 135.692 13.6341 135.954 13.3816C136.215 13.1277 136.591 13.0015 137.083 13.0015C137.571 13.0015 137.95 13.1291 138.219 13.3816C138.489 13.6341 138.624 14.0209 138.624 14.5434V23.8002C138.624 24.8452 138.126 25.3676 137.131 25.3676C136.657 25.3676 136.289 25.2333 136.028 24.9647C135.766 24.6947 135.636 24.3066 135.636 23.8002V21.94L135.98 22.6733C135.636 23.5558 135.118 24.234 134.425 24.7082C133.727 25.1796 132.908 25.416 131.963 25.416Z" fill="#2A2929"/>
<path d="M146.407 25.4159C145.362 25.4159 144.443 25.1634 143.651 24.657C142.86 24.1493 142.245 23.4267 141.804 22.4879C141.363 21.5504 141.143 20.4437 141.143 19.169C141.143 17.881 141.363 16.7756 141.804 15.8529C142.245 14.9288 142.86 14.2156 143.651 13.7092C144.443 13.2015 145.362 12.9477 146.407 12.9477C147.404 12.9477 148.273 13.1935 149.015 13.6837C149.758 14.1726 150.259 14.8173 150.521 15.6178H150.252V9.25138C150.252 8.74636 150.383 8.36357 150.644 8.10166C150.905 7.8411 151.28 7.70947 151.77 7.70947C152.26 7.70947 152.64 7.83975 152.909 8.10166C153.179 8.36357 153.315 8.74636 153.315 9.25138V23.7961C153.315 24.3025 153.184 24.6906 152.922 24.9606C152.661 25.2292 152.286 25.3635 151.794 25.3635C151.305 25.3635 150.931 25.2292 150.669 24.9606C150.407 24.6906 150.276 24.3025 150.276 23.7961V21.8848L150.545 22.6209C150.301 23.4697 149.802 24.148 149.052 24.6557C148.302 25.1634 147.421 25.4159 146.407 25.4159ZM147.264 23.0883C147.868 23.0883 148.399 22.9419 148.855 22.6491C149.312 22.3549 149.667 21.9184 149.919 21.3395C150.173 20.7593 150.299 20.0367 150.299 19.1704C150.299 17.8649 150.021 16.8897 149.465 16.2464C148.912 15.6017 148.177 15.278 147.262 15.278C146.659 15.278 146.129 15.4204 145.671 15.7064C145.213 15.9912 144.858 16.425 144.604 17.0053C144.352 17.5841 144.227 18.3054 144.227 19.1704C144.227 20.4598 144.504 21.4349 145.058 22.097C145.614 22.7579 146.349 23.0883 147.264 23.0883Z" fill="#2A2929"/>
<path d="M158.012 25.3407C157.523 25.3407 157.148 25.1943 156.886 24.9015C156.624 24.6074 156.494 24.1991 156.494 23.6766V14.6911C156.494 14.1525 156.624 13.7402 156.886 13.4541C157.147 13.1693 157.521 13.0256 158.012 13.0256C158.502 13.0256 158.882 13.168 159.151 13.4541C159.421 13.7388 159.556 14.1525 159.556 14.6911V23.6766C159.556 24.1991 159.426 24.6074 159.164 24.9015C158.902 25.1943 158.519 25.3407 158.012 25.3407ZM158.012 10.7477C157.441 10.7477 156.996 10.6053 156.677 10.3192C156.36 10.0318 156.201 9.63557 156.201 9.13055C156.201 8.60807 156.36 8.20917 156.677 7.93248C156.996 7.65446 157.441 7.51611 158.012 7.51611C158.6 7.51611 159.047 7.6558 159.357 7.93248C159.669 8.20917 159.825 8.60807 159.825 9.13055C159.825 9.63691 159.669 10.0331 159.357 10.3192C159.047 10.6053 158.599 10.7477 158.012 10.7477Z" fill="#2A2929"/>
<path d="M168.197 25.4159C166.956 25.4159 165.879 25.1634 164.966 24.657C164.051 24.1493 163.342 23.4267 162.837 22.4879C162.331 21.5504 162.078 20.4436 162.078 19.169C162.078 18.206 162.22 17.3464 162.506 16.5862C162.791 15.8273 163.204 15.1745 163.741 14.6279C164.279 14.0812 164.924 13.6649 165.675 13.3801C166.426 13.0927 167.268 12.949 168.199 12.949C169.438 12.949 170.517 13.2028 171.43 13.7105C172.344 14.2169 173.054 14.9341 173.559 15.8649C174.067 16.7944 174.321 17.8957 174.321 19.169C174.321 20.132 174.178 20.997 173.892 21.7653C173.607 22.5322 173.194 23.189 172.655 23.7356C172.115 24.2823 171.47 24.7 170.718 24.9861C169.969 25.2735 169.128 25.4159 168.197 25.4159ZM168.197 23.0882C168.802 23.0882 169.332 22.9418 169.789 22.649C170.246 22.3549 170.6 21.9184 170.853 21.3395C171.107 20.7593 171.233 20.0367 171.233 19.1703C171.233 17.8648 170.955 16.8897 170.399 16.2464C169.845 15.6017 169.111 15.278 168.196 15.278C167.593 15.278 167.062 15.4203 166.604 15.7064C166.146 15.9912 165.792 16.425 165.538 17.0052C165.285 17.5841 165.16 18.3054 165.16 19.1703C165.16 20.4597 165.437 21.4349 165.992 22.097C166.548 22.7578 167.284 23.0882 168.197 23.0882Z" fill="#2A2929"/>
<path d="M162.944 29.2425C162.889 29.2425 162.85 29.2305 162.826 29.2063C162.801 29.1821 162.789 29.1458 162.789 29.0975C162.789 29.0693 162.796 29.0411 162.812 29.0142C162.827 28.986 162.85 28.9578 162.879 28.9269L163.391 28.3816C163.469 28.2997 163.525 28.2245 163.559 28.1573C163.592 28.0901 163.61 28.0216 163.61 27.9531C163.61 27.8699 163.583 27.8054 163.529 27.7597C163.477 27.7154 163.399 27.6926 163.297 27.6926C163.239 27.6926 163.181 27.7006 163.124 27.7181C163.066 27.7342 163.007 27.7624 162.948 27.8014C162.918 27.8229 162.89 27.8309 162.864 27.8269C162.838 27.8229 162.815 27.8121 162.795 27.7933C162.776 27.7745 162.762 27.753 162.756 27.7262C162.748 27.698 162.749 27.6697 162.758 27.6429C162.768 27.6147 162.788 27.5905 162.82 27.5704C162.893 27.5193 162.975 27.4831 163.063 27.4589C163.155 27.4334 163.246 27.4199 163.34 27.4199C163.469 27.4199 163.576 27.4401 163.665 27.479C163.755 27.518 163.822 27.5757 163.866 27.6496C163.912 27.7248 163.936 27.8161 163.936 27.9236C163.936 27.9948 163.926 28.0646 163.903 28.1331C163.88 28.2003 163.845 28.2701 163.797 28.34C163.75 28.4098 163.689 28.4823 163.615 28.5616L163.137 29.0599V28.9726H163.887C163.932 28.9726 163.967 28.9833 163.99 29.0062C164.014 29.029 164.026 29.0626 164.026 29.1069C164.026 29.1499 164.014 29.1834 163.99 29.2076C163.967 29.2318 163.932 29.2439 163.887 29.2439H162.944V29.2425Z" fill="#2A2929"/>
<path d="M164.903 29.2668C164.691 29.2668 164.527 29.1876 164.413 29.0264C164.301 28.8666 164.245 28.6369 164.245 28.3387C164.245 28.14 164.271 27.9721 164.32 27.8351C164.371 27.6967 164.444 27.5933 164.542 27.5248C164.64 27.4536 164.761 27.4187 164.903 27.4187C165.117 27.4187 165.279 27.4966 165.389 27.6537C165.501 27.8109 165.557 28.0379 165.557 28.3361C165.557 28.5362 165.532 28.7054 165.482 28.8451C165.431 28.9834 165.357 29.0882 165.26 29.1607C165.164 29.2319 165.044 29.2668 164.903 29.2668ZM164.903 28.9982C165.019 28.9982 165.103 28.9445 165.158 28.8384C165.215 28.7309 165.242 28.563 165.242 28.3347C165.242 28.1077 165.213 27.9425 165.158 27.8391C165.103 27.737 165.019 27.6846 164.903 27.6846C164.788 27.6846 164.702 27.737 164.645 27.8391C164.589 27.9425 164.562 28.1064 164.562 28.3347C164.562 28.563 164.59 28.7309 164.645 28.8384C164.702 28.9458 164.786 28.9982 164.903 28.9982Z" fill="#2A2929"/>
<path d="M166.005 29.2425C165.95 29.2425 165.911 29.2305 165.887 29.2063C165.863 29.1821 165.851 29.1458 165.851 29.0975C165.851 29.0693 165.858 29.0411 165.874 29.0142C165.889 28.986 165.911 28.9578 165.941 28.9269L166.453 28.3816C166.531 28.2997 166.587 28.2245 166.621 28.1573C166.654 28.0901 166.672 28.0216 166.672 27.9531C166.672 27.8699 166.645 27.8054 166.591 27.7597C166.539 27.7154 166.461 27.6926 166.359 27.6926C166.301 27.6926 166.243 27.7006 166.185 27.7181C166.128 27.7342 166.069 27.7624 166.009 27.8014C165.98 27.8229 165.952 27.8309 165.926 27.8269C165.899 27.8229 165.877 27.8121 165.856 27.7933C165.838 27.7745 165.824 27.753 165.817 27.7262C165.809 27.698 165.811 27.6697 165.82 27.6429C165.83 27.6147 165.85 27.5905 165.882 27.5704C165.954 27.5193 166.036 27.4831 166.125 27.4589C166.216 27.4334 166.308 27.4199 166.402 27.4199C166.531 27.4199 166.638 27.4401 166.727 27.479C166.817 27.518 166.884 27.5757 166.928 27.6496C166.974 27.7248 166.998 27.8161 166.998 27.9236C166.998 27.9948 166.987 28.0646 166.964 28.1331C166.942 28.2003 166.907 28.2701 166.858 28.34C166.811 28.4098 166.751 28.4823 166.677 28.5616L166.199 29.0599V28.9726H166.948C166.994 28.9726 167.029 28.9833 167.052 29.0062C167.076 29.029 167.088 29.0626 167.088 29.1069C167.088 29.1499 167.076 29.1834 167.052 29.2076C167.029 29.2318 166.994 29.2439 166.948 29.2439H166.005V29.2425Z" fill="#2A2929"/>
<path d="M167.978 29.2667C167.888 29.2667 167.797 29.256 167.702 29.2331C167.608 29.209 167.523 29.1714 167.444 29.1217C167.412 29.1015 167.39 29.0773 167.379 29.0491C167.369 29.0209 167.366 28.9927 167.371 28.9659C167.378 28.9377 167.391 28.9148 167.41 28.896C167.43 28.8759 167.454 28.8638 167.483 28.8598C167.511 28.8557 167.542 28.8638 167.575 28.8826C167.638 28.9202 167.702 28.9484 167.766 28.9659C167.831 28.9847 167.9 28.9941 167.973 28.9941C168.045 28.9941 168.107 28.982 168.158 28.9551C168.209 28.9296 168.247 28.8933 168.272 28.849C168.301 28.8033 168.314 28.7483 168.314 28.6865C168.314 28.5911 168.285 28.5146 168.227 28.4568C168.169 28.3977 168.09 28.3668 167.992 28.3668C167.935 28.3668 167.883 28.3762 167.832 28.395C167.781 28.4111 167.731 28.442 167.681 28.4877C167.667 28.5011 167.647 28.5146 167.622 28.5267C167.6 28.5401 167.575 28.5468 167.547 28.5468C167.504 28.5468 167.472 28.5361 167.449 28.5132C167.426 28.4904 167.416 28.4595 167.416 28.4205V27.5865C167.416 27.5408 167.428 27.5045 167.452 27.4804C167.477 27.4562 167.514 27.4441 167.561 27.4441H168.4C168.444 27.4441 168.479 27.4562 168.503 27.4804C168.529 27.5032 168.542 27.5354 168.542 27.5784C168.542 27.6214 168.529 27.655 168.503 27.6791C168.479 27.7033 168.444 27.7154 168.4 27.7154H167.734V28.2862H167.651C167.695 28.2271 167.754 28.1815 167.827 28.1492C167.899 28.1157 167.98 28.0982 168.067 28.0982C168.18 28.0982 168.279 28.1224 168.364 28.1707C168.447 28.2191 168.513 28.2876 168.56 28.3749C168.608 28.4608 168.632 28.5616 168.632 28.6744C168.632 28.7926 168.606 28.896 168.552 28.9847C168.499 29.0733 168.424 29.1418 168.325 29.1915C168.228 29.2425 168.113 29.2667 167.978 29.2667Z" fill="#2A2929"/>
<path d="M170.452 29.2668C170.265 29.2668 170.106 29.2292 169.971 29.1554C169.838 29.0788 169.736 28.9727 169.664 28.833C169.592 28.6933 169.557 28.5295 169.557 28.3401C169.557 28.1991 169.578 28.0715 169.619 27.96C169.66 27.8472 169.719 27.7491 169.795 27.6685C169.872 27.5866 169.966 27.5248 170.077 27.4805C170.189 27.4375 170.314 27.416 170.452 27.416C170.547 27.416 170.64 27.4281 170.729 27.4523C170.819 27.4751 170.898 27.5087 170.966 27.553C171.001 27.5758 171.026 27.6027 171.036 27.6336C171.048 27.6658 171.051 27.6967 171.044 27.7263C171.036 27.7558 171.022 27.7813 171 27.8015C170.979 27.823 170.953 27.8337 170.922 27.8351C170.893 27.8378 170.859 27.827 170.821 27.8042C170.766 27.7693 170.71 27.7437 170.648 27.729C170.588 27.7142 170.526 27.7061 170.463 27.7061C170.341 27.7061 170.238 27.7316 170.155 27.7813C170.073 27.8297 170.01 27.9009 169.967 27.9936C169.924 28.0876 169.903 28.2017 169.903 28.3374C169.903 28.4717 169.924 28.5859 169.967 28.6812C170.01 28.7766 170.072 28.8491 170.155 28.8988C170.238 28.9472 170.342 28.9714 170.463 28.9714C170.527 28.9714 170.592 28.9646 170.653 28.9485C170.717 28.9324 170.777 28.9069 170.832 28.8733C170.87 28.8505 170.903 28.8411 170.933 28.8424C170.962 28.8451 170.988 28.8558 171.008 28.876C171.028 28.8948 171.042 28.9176 171.047 28.9458C171.054 28.974 171.052 29.0036 171.042 29.0331C171.032 29.0627 171.012 29.0882 170.983 29.1084C170.915 29.1594 170.835 29.197 170.739 29.2225C170.645 29.2534 170.549 29.2668 170.452 29.2668Z" fill="#2A2929"/>
<path d="M171.5 29.256C171.442 29.256 171.395 29.2385 171.36 29.2022C171.326 29.1646 171.309 29.119 171.309 29.0625C171.309 29.0088 171.325 28.9645 171.36 28.9309C171.395 28.896 171.442 28.8772 171.5 28.8772C171.559 28.8772 171.604 28.896 171.637 28.9309C171.67 28.9645 171.688 29.0088 171.688 29.0625C171.688 29.119 171.672 29.166 171.637 29.2022C171.604 29.2385 171.559 29.256 171.5 29.256Z" fill="#2A2929"/>
<path d="M172.08 29.2615C172.038 29.2615 172.004 29.2521 171.979 29.2333C171.955 29.2145 171.94 29.1903 171.935 29.158C171.931 29.1272 171.937 29.0922 171.955 29.0546L172.629 27.5611C172.652 27.5127 172.677 27.4791 172.707 27.4577C172.738 27.4348 172.775 27.4241 172.816 27.4241C172.855 27.4241 172.89 27.4348 172.922 27.4577C172.953 27.4791 172.981 27.5127 173.002 27.5611L173.677 29.0546C173.695 29.0922 173.702 29.1272 173.697 29.1607C173.693 29.193 173.678 29.2185 173.655 29.2359C173.631 29.2521 173.599 29.2615 173.56 29.2615C173.513 29.2615 173.477 29.2507 173.451 29.2279C173.424 29.2051 173.401 29.1701 173.381 29.1218L173.213 28.735L173.353 28.825H172.276L172.413 28.735L172.25 29.1218C172.227 29.1728 172.205 29.2091 172.18 29.2306C172.156 29.2507 172.123 29.2615 172.08 29.2615ZM172.81 27.7988L172.454 28.649L172.387 28.5657H173.24L173.176 28.649L172.814 27.7988H172.81Z" fill="#2A2929"/>
<path d="M174.133 29.256C174.075 29.256 174.028 29.2385 173.993 29.2022C173.959 29.1646 173.942 29.119 173.942 29.0625C173.942 29.0088 173.958 28.9645 173.993 28.9309C174.028 28.896 174.075 28.8772 174.133 28.8772C174.192 28.8772 174.237 28.896 174.27 28.9309C174.303 28.9645 174.321 29.0088 174.321 29.0625C174.321 29.119 174.304 29.166 174.27 29.2022C174.237 29.2385 174.192 29.256 174.133 29.256Z" fill="#2A2929"/>
<path d="M0 0H33.7501V32H0V0Z" fill="#FF4431"/>
<path d="M32.3022 10.2225C32.2646 10.2225 32.227 10.2144 32.1921 10.1969L24.9164 6.70481C24.9096 6.94523 24.7928 7.18028 24.5779 7.32803L12.2829 15.8072C12.1472 15.9012 11.9914 15.9455 11.8383 15.9455C11.5898 15.9455 11.3441 15.8273 11.1923 15.6057C10.9465 15.2484 11.0351 14.7609 11.3924 14.5151L23.6874 6.03594C23.9332 5.86536 24.2434 5.85596 24.4919 5.98356C24.5403 5.97684 24.5913 5.98221 24.6383 6.00639L32.411 9.7376C32.5386 9.79804 32.591 9.94981 32.5305 10.0774C32.4876 10.1701 32.3962 10.2225 32.3022 10.2225Z" fill="white"/>
<path d="M32.3022 13.9539C32.2646 13.9539 32.227 13.9459 32.1921 13.9284L24.9164 10.4363C24.9096 10.6767 24.7928 10.9117 24.5779 11.0595L12.2829 19.5386C12.1472 19.6326 11.9914 19.677 11.8383 19.677C11.5898 19.677 11.3441 19.5588 11.1923 19.3372C10.9465 18.9799 11.0351 18.4923 11.3924 18.2465L23.6874 9.76738C23.9332 9.59681 24.2434 9.5874 24.4919 9.715C24.5403 9.70829 24.5913 9.71366 24.6383 9.73784L32.411 13.469C32.5386 13.5295 32.591 13.6813 32.5305 13.8089C32.4876 13.9015 32.3962 13.9539 32.3022 13.9539Z" fill="white"/>
<path d="M32.4123 13.4701L24.6638 9.75101C24.4973 9.67177 24.316 9.63013 24.1306 9.63013V10.3393L25.0668 10.2977L32.364 13.7643L32.4123 13.4701Z" fill="white"/>
<path d="M24.1307 11.2004C24.5646 11.2004 24.9164 10.8486 24.9164 10.4146C24.9164 9.98069 24.5646 9.62891 24.1307 9.62891C23.6968 9.62891 23.345 9.98069 23.345 10.4146C23.345 10.8486 23.6968 11.2004 24.1307 11.2004Z" fill="white"/>
<path d="M32.3022 17.6849C32.2646 17.6849 32.227 17.6768 32.1921 17.6593L24.9164 14.1672C24.9096 14.4076 24.7928 14.6427 24.5779 14.7904L12.2829 23.2696C12.1472 23.3636 11.9914 23.4079 11.8383 23.4079C11.5898 23.4079 11.3441 23.2897 11.1923 23.0681C10.9465 22.7108 11.0351 22.2233 11.3924 21.9775L23.6874 13.4983C23.9332 13.3278 24.2434 13.3184 24.4919 13.446C24.5403 13.4392 24.5913 13.4446 24.6383 13.4688L32.411 17.2C32.5386 17.2604 32.591 17.4122 32.5305 17.5398C32.4876 17.6311 32.3962 17.6849 32.3022 17.6849Z" fill="white"/>
<path d="M32.4123 17.2016L24.6638 13.4825C24.4973 13.4032 24.316 13.3616 24.1306 13.3616V14.0707L25.0668 14.0291L32.364 17.4957L32.4123 17.2016Z" fill="white"/>
<path d="M24.1307 14.9316C24.5646 14.9316 24.9164 14.5798 24.9164 14.1458C24.9164 13.7119 24.5646 13.3601 24.1307 13.3601C23.6968 13.3601 23.345 13.7119 23.345 14.1458C23.345 14.5798 23.6968 14.9316 24.1307 14.9316Z" fill="white"/>
<path d="M32.3022 21.4163C32.2646 21.4163 32.227 21.4083 32.1921 21.3908L24.9164 17.8987C24.9096 18.1391 24.7928 18.3741 24.5779 18.5219L12.2829 27.001C12.1472 27.095 11.9914 27.1394 11.8383 27.1394C11.5898 27.1394 11.3441 27.0212 11.1923 26.7996C10.9465 26.4423 11.0351 25.9547 11.3924 25.7089L23.6874 17.2298C23.9332 17.0592 24.2434 17.0498 24.4919 17.1774C24.5403 17.1707 24.5913 17.1761 24.6383 17.2002L32.411 20.9314C32.5386 20.9919 32.591 21.1437 32.5305 21.2713C32.4876 21.3626 32.3962 21.4163 32.3022 21.4163Z" fill="white"/>
<path d="M32.4123 20.9313L24.6638 17.2122C24.4973 17.1329 24.316 17.0913 24.1306 17.0913V17.8005L25.0668 17.7588L32.364 21.2254L32.4123 20.9313Z" fill="white"/>
<path d="M24.1307 18.6628C24.5646 18.6628 24.9164 18.311 24.9164 17.877C24.9164 17.4431 24.5646 17.0913 24.1307 17.0913C23.6968 17.0913 23.345 17.4431 23.345 17.877C23.345 18.311 23.6968 18.6628 24.1307 18.6628Z" fill="white"/>
<path d="M32.3022 25.146C32.2646 25.146 32.227 25.138 32.1921 25.1205L24.9164 21.6284C24.9096 21.8688 24.7928 22.1039 24.5779 22.2516L12.2829 30.7308C12.1472 30.8248 11.9914 30.8691 11.8383 30.8691C11.5898 30.8691 11.3441 30.7509 11.1923 30.5293C10.9465 30.172 11.0351 29.6845 11.3924 29.4387L23.6874 20.9595C23.9332 20.7889 24.2434 20.7795 24.4919 20.9071C24.5403 20.9004 24.5913 20.9058 24.6383 20.93L32.411 24.6612C32.5386 24.7216 32.591 24.8734 32.5305 25.001C32.4876 25.0937 32.3962 25.146 32.3022 25.146Z" fill="white"/>
<path d="M32.4123 24.6625L24.6638 20.9434C24.4973 20.8641 24.316 20.8225 24.1306 20.8225V21.5317L25.0668 21.49L32.364 24.9567L32.4123 24.6625Z" fill="white"/>
<path d="M24.1307 22.3925C24.5646 22.3925 24.9164 22.0407 24.9164 21.6068C24.9164 21.1728 24.5646 20.821 24.1307 20.821C23.6968 20.821 23.345 21.1728 23.345 21.6068C23.345 22.0407 23.6968 22.3925 24.1307 22.3925Z" fill="white"/>
<path d="M32.4125 9.73893L24.664 6.01981C24.4974 5.94057 24.3161 5.89893 24.1307 5.89893V6.6081L25.0669 6.56646L32.3641 10.0331L32.4125 9.73893Z" fill="white"/>
<path d="M24.1308 7.46916C24.5648 7.46916 24.9165 7.11738 24.9165 6.68344C24.9165 6.24949 24.5648 5.89771 24.1308 5.89771C23.6969 5.89771 23.3451 6.24949 23.3451 6.68344C23.3451 7.11738 23.6969 7.46916 24.1308 7.46916Z" fill="white"/>
</svg>
