<svg width="109" height="20" viewBox="0 0 109 20" fill="none" xmlns="http://www.w3.org/2000/svg">
<path d="M24.1087 15.838C23.945 15.838 23.8158 15.8003 23.7184 15.7247C23.621 15.6475 23.5656 15.5459 23.5505 15.4183C23.5354 15.2899 23.5631 15.1447 23.6344 14.981L27.8418 5.4011C27.9333 5.19712 28.0433 5.05189 28.1709 4.96543C28.2993 4.87812 28.4395 4.83447 28.5923 4.83447C28.745 4.83447 28.8844 4.87812 29.012 4.96543C29.1404 5.05189 29.2454 5.19712 29.3268 5.4011L33.5501 14.981C33.6315 15.1447 33.6642 15.2924 33.65 15.425C33.6349 15.5577 33.5811 15.6601 33.4888 15.7314C33.3981 15.8019 33.2705 15.838 33.1077 15.838C32.923 15.838 32.7753 15.7894 32.6636 15.6928C32.552 15.5963 32.4596 15.4561 32.3874 15.2714L31.2559 12.6548L31.8678 12.9763H25.2865L25.9144 12.6548L24.7971 15.2714C24.7048 15.4662 24.6074 15.6097 24.505 15.7012C24.4042 15.7927 24.2716 15.838 24.1087 15.838ZM28.5772 6.41181L26.1134 12.2108L25.7457 11.9203H31.4086L31.0729 12.2108L28.6091 6.41181H28.5772Z" fill="#2A2929"/>
<path d="M36.121 15.838C35.917 15.838 35.7608 15.7793 35.6542 15.6634C35.5468 15.5459 35.493 15.3847 35.493 15.1807V5.58408C35.493 5.37002 35.5493 5.20968 35.6609 5.10307C35.7734 4.99562 35.9321 4.94189 36.1369 4.94189H39.7642C40.9168 4.94189 41.8041 5.2122 42.4261 5.75365C43.049 6.29341 43.3596 7.0632 43.3596 8.06383C43.3596 8.69593 43.2185 9.2441 42.9382 9.70915C42.6586 10.1734 42.2481 10.5251 41.7067 10.7652C41.1652 11.0044 40.518 11.1236 39.7633 11.1236L39.9153 10.9238H40.2217C40.6204 10.9238 40.9671 11.0263 41.2626 11.2302C41.5589 11.4342 41.8292 11.7608 42.0744 12.2099L43.5434 14.9507C43.6248 15.0934 43.6634 15.2328 43.6593 15.3704C43.6542 15.5081 43.6055 15.6206 43.514 15.7079C43.4217 15.7944 43.2891 15.8372 43.1153 15.8372C42.9424 15.8372 42.7996 15.796 42.6872 15.7146C42.5755 15.6332 42.4781 15.5165 42.3967 15.3629L40.7279 12.2712C40.4937 11.833 40.2225 11.54 39.9161 11.3914C39.6106 11.2437 39.2076 11.169 38.7073 11.169H36.7489V15.179C36.7489 15.383 36.6977 15.5442 36.5952 15.6617C36.4937 15.7792 36.335 15.838 36.121 15.838ZM36.7489 10.1751H39.5803C40.4164 10.1751 41.0485 9.99961 41.4775 9.64871C41.9065 9.29698 42.1214 8.76897 42.1214 8.06383C42.1214 7.37967 41.9065 6.86173 41.4775 6.51083C41.0485 6.1591 40.4156 5.98282 39.5803 5.98282H36.7489V10.1751Z" fill="#2A2929"/>
<path d="M50.3225 15.87C49.2614 15.87 48.3531 15.6459 47.5976 15.1968C46.8429 14.7485 46.2637 14.1105 45.8608 13.2837C45.4587 12.4576 45.2572 11.473 45.2572 10.3296C45.2572 9.47254 45.3714 8.70528 45.6014 8.02616C45.8306 7.34788 46.1621 6.77118 46.5945 6.29689C47.0285 5.82259 47.5615 5.45491 48.1945 5.19552C48.8274 4.93613 49.5359 4.80518 50.3208 4.80518C50.9537 4.80518 51.5556 4.89416 52.1273 5.07296C52.6981 5.25093 53.1934 5.51451 53.6123 5.86205C53.7449 5.96362 53.8347 6.07863 53.8801 6.20623C53.9254 6.33382 53.9296 6.45554 53.8943 6.57391C53.8591 6.69059 53.7978 6.78713 53.7105 6.86436C53.624 6.94075 53.52 6.97768 53.3974 6.97768C53.2748 6.97768 53.1372 6.92732 52.9844 6.82574C52.6167 6.52942 52.2138 6.31032 51.7739 6.16845C51.3357 6.0249 50.8614 5.95355 50.3519 5.95355C49.546 5.95355 48.8627 6.1248 48.3002 6.46562C47.7395 6.80727 47.3164 7.30507 47.031 7.95901C46.7447 8.6121 46.6028 9.40287 46.6028 10.3305C46.6028 11.2589 46.7456 12.0522 47.031 12.7103C47.3164 13.3676 47.7395 13.8679 48.3002 14.2087C48.8618 14.5504 49.546 14.7208 50.3519 14.7208C50.8522 14.7208 51.3265 14.6469 51.7756 14.5009C52.2238 14.3531 52.6377 14.1307 53.0154 13.8343C53.1682 13.7319 53.3059 13.6832 53.4285 13.6891C53.551 13.6942 53.6526 13.7328 53.7349 13.805C53.8163 13.8763 53.875 13.9678 53.9095 14.0795C53.9456 14.1911 53.9456 14.3086 53.9095 14.4312C53.8742 14.5538 53.7961 14.6612 53.6736 14.7527C53.2446 15.1204 52.7418 15.3982 52.1642 15.5871C51.5892 15.7752 50.9747 15.87 50.3225 15.87Z" fill="#2A2929"/>
<path d="M55.4491 15.838C55.2854 15.838 55.1561 15.8003 55.0587 15.7247C54.9614 15.6475 54.9059 15.5459 54.8908 15.4183C54.8757 15.2899 54.9034 15.1447 54.9748 14.981L59.1821 5.4011C59.2736 5.19712 59.3836 5.05189 59.5112 4.96543C59.6396 4.87812 59.7798 4.83447 59.9326 4.83447C60.0854 4.83447 60.2247 4.87812 60.3523 4.96543C60.4808 5.05189 60.5857 5.19712 60.6671 5.4011L64.8904 14.981C64.9718 15.1447 65.0046 15.2924 64.9903 15.425C64.9752 15.5577 64.9215 15.6601 64.8291 15.7314C64.7385 15.8019 64.6109 15.838 64.448 15.838C64.2633 15.838 64.1156 15.7894 64.004 15.6928C63.8923 15.5963 63.8 15.4561 63.7278 15.2714L62.5962 12.6548L63.2081 12.9763H56.6268L57.2547 12.6548L56.1374 15.2714C56.0451 15.4662 55.9477 15.6097 55.8453 15.7012C55.7446 15.7927 55.6119 15.838 55.4491 15.838ZM59.9175 6.41181L57.4537 12.2108L57.086 11.9203H62.749L62.4132 12.2108L59.9494 6.41181H59.9175Z" fill="#2A2929"/>
<path d="M69.2385 15.8852C68.8003 15.8852 68.3361 15.839 67.8467 15.7467C67.3573 15.6552 66.9182 15.4965 66.5296 15.2707C66.3659 15.1691 66.2517 15.0499 66.1854 14.9123C66.1199 14.7746 66.0947 14.6369 66.1098 14.4992C66.125 14.3607 66.1753 14.2407 66.2618 14.1391C66.3491 14.0367 66.4616 13.9704 66.5992 13.9393C66.7369 13.9091 66.8872 13.9351 67.0509 14.0166C67.4588 14.2105 67.8416 14.3456 68.1984 14.422C68.5552 14.4984 68.9069 14.5353 69.2544 14.5353C69.7438 14.5353 70.1082 14.4514 70.3474 14.2835C70.5875 14.1156 70.7075 13.8932 70.7075 13.617C70.7075 13.3828 70.6278 13.2023 70.47 13.0747C70.3121 12.9463 70.0754 12.8522 69.7598 12.791L68.2295 12.5005C67.5965 12.3779 67.1138 12.1463 66.7814 11.8046C66.4498 11.4621 66.2844 11.0205 66.2844 10.4791C66.2844 9.9897 66.4196 9.56577 66.6899 9.20984C66.9602 8.85307 67.3354 8.57773 67.8148 8.38466C68.2949 8.1899 68.8465 8.09253 69.4693 8.09253C69.9176 8.09253 70.3382 8.14122 70.7302 8.23943C71.1231 8.33681 71.5033 8.48707 71.8702 8.69106C72.0238 8.77249 72.1287 8.87994 72.185 9.01257C72.2412 9.14436 72.253 9.27952 72.2219 9.41635C72.1917 9.55402 72.1304 9.67658 72.0381 9.78403C71.9474 9.89148 71.8324 9.9578 71.6956 9.98382C71.5579 10.0098 71.4026 9.9813 71.2288 9.89987C70.9124 9.73702 70.6085 9.6195 70.318 9.54814C70.0276 9.47595 69.7497 9.43985 69.4836 9.43985C68.9833 9.43985 68.6131 9.52716 68.373 9.70008C68.1338 9.87385 68.0146 10.1039 68.0146 10.3893C68.0146 10.6042 68.0851 10.783 68.2278 10.9265C68.3713 11.0692 68.5904 11.1649 68.8868 11.2153L70.4171 11.5074C71.0802 11.63 71.5831 11.855 71.9247 12.1807C72.2664 12.5072 72.4368 12.9454 72.4368 13.4961C72.4368 14.2415 72.1455 14.8258 71.5638 15.2506C70.9837 15.6736 70.2081 15.8852 69.2385 15.8852Z" fill="#2A2929"/>
<path d="M77.3188 15.8849C76.6548 15.8849 76.1016 15.7724 75.6575 15.5475C75.2143 15.3225 74.8852 14.9943 74.6711 14.5611C74.4562 14.1271 74.3496 13.589 74.3496 12.9452V9.68555H73.5538C73.3087 9.68555 73.1198 9.62176 72.9872 9.495C72.8554 9.36824 72.7899 9.19195 72.7899 8.96698C72.7899 8.73277 72.8562 8.55397 72.9872 8.43141C73.1198 8.30885 73.3087 8.24757 73.5538 8.24757H74.3496V6.85408C74.3496 6.53844 74.4336 6.2992 74.6015 6.1355C74.7702 5.97265 75.0078 5.89038 75.315 5.89038C75.6206 5.89038 75.8548 5.97181 76.0185 6.1355C76.1813 6.2992 76.2636 6.53844 76.2636 6.85408V8.24757H77.8862C78.1314 8.24757 78.3194 8.30885 78.4512 8.43141C78.5838 8.55397 78.651 8.73193 78.651 8.96698C78.651 9.19195 78.5847 9.36824 78.4512 9.495C78.3194 9.62259 78.1314 9.68555 77.8862 9.68555H76.2636V12.8385C76.2636 13.3279 76.371 13.6956 76.5851 13.9399C76.7991 14.185 77.1467 14.3076 77.626 14.3076C77.7998 14.3076 77.9526 14.2925 78.0844 14.2623C78.217 14.232 78.3345 14.2119 78.4378 14.201C78.5603 14.1909 78.6619 14.2287 78.7442 14.3168C78.8256 14.4033 78.8667 14.5787 78.8667 14.8432C78.8667 15.0471 78.8331 15.2285 78.7668 15.3871C78.7005 15.5458 78.5805 15.6558 78.4067 15.7162C78.2749 15.7565 78.1011 15.7951 77.8871 15.832C77.6705 15.8665 77.4816 15.8849 77.3188 15.8849Z" fill="#2A2929"/>
<path d="M82.4765 15.8848C81.8537 15.8848 81.3382 15.7698 80.9303 15.5406C80.5223 15.3115 80.2184 14.9664 80.0195 14.5073C79.8213 14.0481 79.7223 13.4764 79.7223 12.7931V9.08943C79.7223 8.76288 79.8037 8.52111 79.9674 8.3633C80.1303 8.20464 80.3645 8.12573 80.6709 8.12573C80.9773 8.12573 81.2148 8.20548 81.3827 8.3633C81.5506 8.52111 81.6346 8.76288 81.6346 9.08943V12.8233C81.6346 13.3539 81.742 13.7467 81.9561 14.0019C82.1701 14.2571 82.5126 14.3847 82.9827 14.3847C83.4923 14.3847 83.9103 14.2093 84.2369 13.8567C84.5634 13.505 84.7263 13.0374 84.7263 12.4556V9.08943C84.7263 8.76288 84.8077 8.52111 84.9714 8.3633C85.1343 8.20464 85.3693 8.12573 85.6765 8.12573C85.9821 8.12573 86.2188 8.20548 86.3867 8.3633C86.5554 8.52111 86.6402 8.76288 86.6402 9.08943V14.8749C86.6402 15.528 86.3288 15.8546 85.7068 15.8546C85.4104 15.8546 85.1804 15.7706 85.0176 15.6028C84.8539 15.434 84.7724 15.1914 84.7724 14.8749V13.7123L84.9873 14.1706C84.7724 14.7222 84.4484 15.1461 84.0153 15.4424C83.5796 15.7371 83.0675 15.8848 82.4765 15.8848Z" fill="#2A2929"/>
<path d="M91.5041 15.8851C90.851 15.8851 90.2768 15.7273 89.7815 15.4108C89.2871 15.0935 88.9026 14.6419 88.6272 14.0551C88.3519 13.4692 88.2142 12.7775 88.2142 11.9808C88.2142 11.1758 88.3519 10.4849 88.6272 9.90822C88.9026 9.33067 89.2871 8.88492 89.7815 8.56844C90.2768 8.25113 90.851 8.09247 91.5041 8.09247C92.1269 8.09247 92.6701 8.24609 93.1343 8.55249C93.5985 8.85806 93.9116 9.261 94.0753 9.76131H93.9074V5.7823C93.9074 5.46666 93.9888 5.22742 94.1525 5.06372C94.3154 4.90087 94.5496 4.8186 94.856 4.8186C95.1624 4.8186 95.4 4.90003 95.5679 5.06372C95.7366 5.22742 95.8214 5.46666 95.8214 5.7823V14.8727C95.8214 15.1892 95.7399 15.4318 95.5762 15.6006C95.4126 15.7684 95.1784 15.8524 94.8711 15.8524C94.5655 15.8524 94.3313 15.7684 94.1676 15.6006C94.004 15.4318 93.9225 15.1892 93.9225 14.8727V13.6782L94.0904 14.1382C93.9376 14.6688 93.6262 15.0927 93.1569 15.41C92.6885 15.7273 92.1378 15.8851 91.5041 15.8851ZM92.0396 14.4304C92.4174 14.4304 92.749 14.3389 93.0344 14.1559C93.3198 13.972 93.5414 13.6992 93.6992 13.3374C93.8579 12.9747 93.9368 12.5231 93.9368 11.9817C93.9368 11.1657 93.763 10.5563 93.4155 10.1542C93.0696 9.75124 92.6105 9.54893 92.0388 9.54893C91.6619 9.54893 91.3303 9.63791 91.044 9.81671C90.7578 9.99468 90.5362 10.2658 90.3775 10.6285C90.2197 10.9903 90.1416 11.4411 90.1416 11.9817C90.1416 12.7875 90.3146 13.397 90.6612 13.8108C91.0088 14.2238 91.468 14.4304 92.0396 14.4304Z" fill="#2A2929"/>
<path d="M98.757 15.8382C98.4514 15.8382 98.2172 15.7467 98.0535 15.5637C97.8898 15.3798 97.8084 15.1246 97.8084 14.7981V9.18212C97.8084 8.8455 97.8898 8.58778 98.0535 8.40898C98.2163 8.23102 98.4506 8.14119 98.757 8.14119C99.0634 8.14119 99.3009 8.23018 99.4688 8.40898C99.6375 8.58695 99.7223 8.8455 99.7223 9.18212V14.7981C99.7223 15.1246 99.6409 15.3798 99.4772 15.5637C99.3135 15.7467 99.0743 15.8382 98.757 15.8382ZM98.757 6.71748C98.4002 6.71748 98.1223 6.6285 97.9225 6.44969C97.7244 6.27005 97.6254 6.02241 97.6254 5.70678C97.6254 5.38023 97.7244 5.13091 97.9225 4.95799C98.1223 4.78422 98.4002 4.69775 98.757 4.69775C99.1246 4.69775 99.4042 4.78506 99.5981 4.95799C99.7928 5.13091 99.8902 5.38023 99.8902 5.70678C99.8902 6.02325 99.7928 6.27089 99.5981 6.44969C99.4042 6.6285 99.1238 6.71748 98.757 6.71748Z" fill="#2A2929"/>
<path d="M105.123 15.8848C104.347 15.8848 103.674 15.727 103.103 15.4105C102.532 15.0932 102.088 14.6416 101.773 14.0548C101.456 13.4689 101.298 12.7772 101.298 11.9805C101.298 11.3786 101.387 10.8414 101.566 10.3663C101.744 9.89197 102.002 9.48399 102.338 9.14234C102.674 8.80068 103.077 8.54045 103.547 8.36248C104.016 8.18284 104.542 8.09302 105.124 8.09302C105.899 8.09302 106.573 8.25168 107.144 8.56899C107.714 8.88546 108.158 9.33373 108.474 9.91547C108.791 10.4964 108.95 11.1847 108.95 11.9805C108.95 12.5824 108.861 13.123 108.682 13.6032C108.504 14.0825 108.246 14.493 107.909 14.8347C107.572 15.1763 107.169 15.4374 106.699 15.6162C106.23 15.7959 105.705 15.8848 105.123 15.8848ZM105.123 14.4301C105.501 14.4301 105.832 14.3386 106.118 14.1556C106.403 13.9717 106.625 13.6989 106.783 13.3371C106.941 12.9744 107.02 12.5228 107.02 11.9814C107.02 11.1654 106.846 10.556 106.499 10.1539C106.153 9.75094 105.694 9.54863 105.122 9.54863C104.745 9.54863 104.414 9.63761 104.127 9.81642C103.841 9.99438 103.62 10.2655 103.461 10.6282C103.303 10.99 103.225 11.4408 103.225 11.9814C103.225 12.7872 103.398 13.3967 103.745 13.8105C104.092 14.2236 104.552 14.4301 105.123 14.4301Z" fill="#2A2929"/>
<path d="M101.84 18.0268C101.805 18.0268 101.781 18.0193 101.766 18.0042C101.751 17.9891 101.743 17.9664 101.743 17.9362C101.743 17.9185 101.747 17.9009 101.757 17.8841C101.767 17.8665 101.781 17.8489 101.799 17.8296L102.119 17.4887C102.168 17.4375 102.203 17.3905 102.224 17.3486C102.245 17.3066 102.256 17.2638 102.256 17.221C102.256 17.1689 102.239 17.1286 102.206 17.1001C102.173 17.0724 102.124 17.0581 102.06 17.0581C102.024 17.0581 101.988 17.0631 101.952 17.0741C101.916 17.0841 101.879 17.1018 101.842 17.1261C101.824 17.1395 101.806 17.1446 101.79 17.1421C101.773 17.1395 101.759 17.1328 101.747 17.1211C101.735 17.1093 101.726 17.0959 101.722 17.0791C101.717 17.0615 101.718 17.0438 101.724 17.027C101.73 17.0094 101.742 16.9943 101.762 16.9817C101.808 16.9498 101.859 16.9272 101.914 16.912C101.971 16.8961 102.029 16.8877 102.087 16.8877C102.168 16.8877 102.235 16.9003 102.29 16.9246C102.347 16.949 102.389 16.9851 102.416 17.0312C102.445 17.0783 102.46 17.1353 102.46 17.2025C102.46 17.247 102.453 17.2906 102.439 17.3334C102.425 17.3754 102.403 17.4191 102.373 17.4627C102.343 17.5064 102.306 17.5517 102.259 17.6012L101.961 17.9127V17.8581H102.429C102.458 17.8581 102.479 17.8648 102.494 17.8791C102.509 17.8934 102.516 17.9143 102.516 17.942C102.516 17.9689 102.509 17.9899 102.494 18.005C102.479 18.0201 102.458 18.0277 102.429 18.0277H101.84V18.0268Z" fill="#2A2929"/>
<path d="M103.064 18.0423C102.932 18.0423 102.829 17.9928 102.758 17.892C102.688 17.7921 102.653 17.6486 102.653 17.4622C102.653 17.338 102.669 17.2331 102.7 17.1474C102.732 17.061 102.777 16.9963 102.838 16.9535C102.9 16.909 102.975 16.8872 103.064 16.8872C103.198 16.8872 103.299 16.9359 103.368 17.0341C103.438 17.1323 103.473 17.2742 103.473 17.4606C103.473 17.5856 103.457 17.6914 103.426 17.7787C103.394 17.8652 103.348 17.9307 103.288 17.976C103.227 18.0205 103.152 18.0423 103.064 18.0423ZM103.064 17.8744C103.136 17.8744 103.189 17.8408 103.224 17.7745C103.259 17.7074 103.276 17.6024 103.276 17.4597C103.276 17.3178 103.258 17.2146 103.224 17.15C103.189 17.0862 103.136 17.0534 103.064 17.0534C102.992 17.0534 102.938 17.0862 102.903 17.15C102.868 17.2146 102.851 17.317 102.851 17.4597C102.851 17.6024 102.869 17.7074 102.903 17.7745C102.938 17.8417 102.991 17.8744 103.064 17.8744Z" fill="#2A2929"/>
<path d="M103.753 18.0268C103.719 18.0268 103.695 18.0193 103.679 18.0042C103.664 17.9891 103.657 17.9664 103.657 17.9362C103.657 17.9185 103.661 17.9009 103.671 17.8841C103.68 17.8665 103.695 17.8489 103.713 17.8296L104.033 17.4887C104.082 17.4375 104.117 17.3905 104.138 17.3486C104.159 17.3066 104.17 17.2638 104.17 17.221C104.17 17.1689 104.153 17.1286 104.119 17.1001C104.087 17.0724 104.038 17.0581 103.974 17.0581C103.938 17.0581 103.902 17.0631 103.866 17.0741C103.83 17.0841 103.793 17.1018 103.756 17.1261C103.737 17.1395 103.72 17.1446 103.704 17.1421C103.687 17.1395 103.673 17.1328 103.66 17.1211C103.648 17.1093 103.64 17.0959 103.636 17.0791C103.631 17.0615 103.632 17.0438 103.637 17.027C103.643 17.0094 103.656 16.9943 103.676 16.9817C103.721 16.9498 103.773 16.9272 103.828 16.912C103.885 16.8961 103.942 16.8877 104.001 16.8877C104.082 16.8877 104.149 16.9003 104.204 16.9246C104.26 16.949 104.302 16.9851 104.33 17.0312C104.359 17.0783 104.374 17.1353 104.374 17.2025C104.374 17.247 104.367 17.2906 104.353 17.3334C104.338 17.3754 104.317 17.4191 104.286 17.4627C104.257 17.5064 104.219 17.5517 104.173 17.6012L103.874 17.9127V17.8581H104.343C104.371 17.8581 104.393 17.8648 104.407 17.8791C104.422 17.8934 104.43 17.9143 104.43 17.942C104.43 17.9689 104.422 17.9899 104.407 18.005C104.393 18.0201 104.371 18.0277 104.343 18.0277H103.753V18.0268Z" fill="#2A2929"/>
<path d="M104.986 18.0422C104.93 18.0422 104.873 18.0355 104.813 18.0212C104.755 18.0061 104.702 17.9826 104.652 17.9516C104.632 17.939 104.619 17.9239 104.612 17.9062C104.605 17.8886 104.603 17.871 104.607 17.8542C104.611 17.8366 104.619 17.8223 104.631 17.8105C104.644 17.7979 104.659 17.7904 104.676 17.7879C104.694 17.7853 104.713 17.7904 104.734 17.8021C104.774 17.8256 104.813 17.8433 104.854 17.8542C104.894 17.8659 104.938 17.8718 104.983 17.8718C105.028 17.8718 105.067 17.8643 105.099 17.8475C105.131 17.8315 105.154 17.8088 105.17 17.7811C105.188 17.7526 105.196 17.7182 105.196 17.6796C105.196 17.62 105.178 17.5721 105.142 17.536C105.105 17.4991 105.056 17.4798 104.995 17.4798C104.959 17.4798 104.927 17.4857 104.895 17.4974C104.863 17.5075 104.832 17.5268 104.801 17.5553C104.791 17.5637 104.779 17.5721 104.764 17.5797C104.749 17.5881 104.734 17.5923 104.717 17.5923C104.69 17.5923 104.67 17.5856 104.655 17.5713C104.641 17.557 104.634 17.5377 104.634 17.5134V16.9921C104.634 16.9635 104.642 16.9409 104.657 16.9257C104.673 16.9106 104.696 16.9031 104.725 16.9031H105.25C105.278 16.9031 105.299 16.9106 105.314 16.9257C105.33 16.94 105.339 16.9602 105.339 16.987C105.339 17.0139 105.33 17.0349 105.314 17.05C105.299 17.0651 105.278 17.0726 105.25 17.0726H104.833V17.4294H104.781C104.809 17.3925 104.846 17.3639 104.891 17.3438C104.937 17.3228 104.987 17.3119 105.042 17.3119C105.112 17.3119 105.174 17.327 105.227 17.3572C105.279 17.3874 105.32 17.4303 105.35 17.4848C105.38 17.5385 105.395 17.6015 105.395 17.672C105.395 17.7459 105.378 17.8105 105.345 17.8659C105.312 17.9213 105.265 17.9641 105.203 17.9952C105.142 18.0271 105.07 18.0422 104.986 18.0422Z" fill="#2A2929"/>
<path d="M106.532 18.042C106.416 18.042 106.316 18.0185 106.232 17.9723C106.149 17.9245 106.085 17.8582 106.04 17.7709C105.995 17.6836 105.973 17.5812 105.973 17.4628C105.973 17.3747 105.986 17.2949 106.012 17.2252C106.037 17.1547 106.074 17.0934 106.122 17.0431C106.17 16.9919 106.228 16.9532 106.298 16.9255C106.368 16.8987 106.446 16.8853 106.532 16.8853C106.592 16.8853 106.65 16.8928 106.705 16.9079C106.762 16.9222 106.811 16.9432 106.854 16.9709C106.876 16.9851 106.891 17.0019 106.898 17.0212C106.905 17.0414 106.907 17.0607 106.903 17.0792C106.898 17.0976 106.888 17.1136 106.875 17.1262C106.861 17.1396 106.845 17.1463 106.826 17.1472C106.808 17.1488 106.787 17.1421 106.763 17.1279C106.729 17.106 106.694 17.0901 106.655 17.0808C106.617 17.0716 106.579 17.0666 106.539 17.0666C106.463 17.0666 106.399 17.0825 106.347 17.1136C106.296 17.1438 106.256 17.1883 106.229 17.2462C106.202 17.305 106.189 17.3763 106.189 17.4611C106.189 17.5451 106.202 17.6164 106.229 17.676C106.256 17.7356 106.295 17.7809 106.347 17.812C106.399 17.8422 106.464 17.8573 106.539 17.8573C106.579 17.8573 106.62 17.8531 106.658 17.8431C106.698 17.833 106.735 17.817 106.77 17.7961C106.793 17.7818 106.814 17.7759 106.833 17.7768C106.851 17.7784 106.867 17.7851 106.88 17.7977C106.892 17.8095 106.901 17.8238 106.904 17.8414C106.908 17.859 106.908 17.8775 106.901 17.896C106.895 17.9144 106.882 17.9304 106.864 17.943C106.822 17.9749 106.772 17.9984 106.712 18.0143C106.653 18.0336 106.593 18.042 106.532 18.042Z" fill="#2A2929"/>
<path d="M107.187 18.0353C107.151 18.0353 107.122 18.0244 107.1 18.0017C107.079 17.9782 107.068 17.9497 107.068 17.9144C107.068 17.8808 107.078 17.8531 107.1 17.8322C107.122 17.8103 107.151 17.7986 107.187 17.7986C107.224 17.7986 107.253 17.8103 107.273 17.8322C107.294 17.8531 107.305 17.8808 107.305 17.9144C107.305 17.9497 107.295 17.9791 107.273 18.0017C107.253 18.0244 107.224 18.0353 107.187 18.0353Z" fill="#2A2929"/>
<path d="M107.549 18.0388C107.523 18.0388 107.502 18.0329 107.487 18.0211C107.471 18.0094 107.462 17.9943 107.459 17.9741C107.456 17.9548 107.461 17.933 107.471 17.9095L107.893 16.976C107.907 16.9458 107.923 16.9248 107.942 16.9114C107.961 16.8971 107.984 16.8904 108.01 16.8904C108.034 16.8904 108.056 16.8971 108.076 16.9114C108.095 16.9248 108.113 16.9458 108.126 16.976L108.548 17.9095C108.559 17.933 108.564 17.9548 108.56 17.9758C108.558 17.9959 108.548 18.0119 108.534 18.0228C108.519 18.0329 108.499 18.0388 108.475 18.0388C108.445 18.0388 108.423 18.032 108.407 18.0178C108.39 18.0035 108.376 17.9817 108.363 17.9514L108.258 17.7097L108.345 17.7659H107.672L107.758 17.7097L107.656 17.9514C107.642 17.9833 107.628 18.006 107.612 18.0194C107.597 18.032 107.576 18.0388 107.549 18.0388ZM108.006 17.1246L107.784 17.656L107.742 17.6039H108.275L108.234 17.656L108.009 17.1246H108.006Z" fill="#2A2929"/>
<path d="M108.833 18.0353C108.797 18.0353 108.767 18.0244 108.745 18.0017C108.724 17.9782 108.714 17.9497 108.714 17.9144C108.714 17.8808 108.724 17.8531 108.745 17.8322C108.767 17.8103 108.797 17.7986 108.833 17.7986C108.87 17.7986 108.898 17.8103 108.918 17.8322C108.939 17.8531 108.95 17.8808 108.95 17.9144C108.95 17.9497 108.94 17.9791 108.918 18.0017C108.898 18.0244 108.87 18.0353 108.833 18.0353Z" fill="#2A2929"/>
<path d="M0 0H21.0938V20H0V0Z" fill="#FF4431"/>
<path d="M20.1889 6.38913C20.1654 6.38913 20.1419 6.38409 20.12 6.37318L15.5727 4.1906C15.5685 4.34086 15.4955 4.48777 15.3612 4.58011L7.6768 9.87958C7.59201 9.93835 7.49464 9.96605 7.39894 9.96605C7.24364 9.96605 7.09002 9.89218 6.99516 9.75367C6.84154 9.53037 6.89695 9.22565 7.12024 9.07203L14.8046 3.77255C14.9582 3.66594 15.1521 3.66007 15.3074 3.73981C15.3377 3.73562 15.3696 3.73898 15.3989 3.75409L20.2569 6.08609C20.3366 6.12387 20.3694 6.21872 20.3316 6.29847C20.3047 6.35639 20.2476 6.38913 20.1889 6.38913Z" fill="white"/>
<path d="M20.1889 8.72117C20.1654 8.72117 20.1419 8.71613 20.12 8.70522L15.5727 6.52263C15.5685 6.67289 15.4955 6.8198 15.3612 6.91214L7.6768 12.2116C7.59201 12.2704 7.49464 12.2981 7.39894 12.2981C7.24364 12.2981 7.09002 12.2242 6.99516 12.0857C6.84154 11.8624 6.89695 11.5577 7.12024 11.4041L14.8046 6.10459C14.9582 5.99797 15.1521 5.9921 15.3074 6.07185C15.3377 6.06765 15.3696 6.07101 15.3989 6.08612L20.2569 8.41812C20.3366 8.45589 20.3694 8.55075 20.3316 8.6305C20.3047 8.68843 20.2476 8.72117 20.1889 8.72117Z" fill="white"/>
<path d="M20.2575 8.4188L15.4147 6.09435C15.3106 6.04482 15.1973 6.0188 15.0814 6.0188V6.46203L15.6665 6.43601L20.2273 8.60264L20.2575 8.4188Z" fill="white"/>
<path d="M15.0815 7.00023C15.3528 7.00023 15.5726 6.78036 15.5726 6.50915C15.5726 6.23793 15.3528 6.01807 15.0815 6.01807C14.8103 6.01807 14.5905 6.23793 14.5905 6.50915C14.5905 6.78036 14.8103 7.00023 15.0815 7.00023Z" fill="white"/>
<path d="M20.1889 11.0529C20.1654 11.0529 20.1419 11.0479 20.12 11.037L15.5727 8.85442C15.5685 9.00468 15.4955 9.15159 15.3612 9.24393L7.6768 14.5434C7.59201 14.6022 7.49464 14.6299 7.39894 14.6299C7.24364 14.6299 7.09002 14.556 6.99516 14.4175C6.84154 14.1942 6.89695 13.8895 7.12024 13.7358L14.8046 8.43637C14.9582 8.32976 15.1521 8.32388 15.3074 8.40363C15.3377 8.39943 15.3696 8.40279 15.3989 8.4179L20.2569 10.7499C20.3366 10.7877 20.3694 10.8825 20.3316 10.9623C20.3047 11.0194 20.2476 11.0529 20.1889 11.0529Z" fill="white"/>
<path d="M20.2575 10.7511L15.4147 8.42663C15.3106 8.3771 15.1973 8.35107 15.0814 8.35107V8.79431L15.6665 8.76829L20.2273 10.9349L20.2575 10.7511Z" fill="white"/>
<path d="M15.0815 9.33226C15.3528 9.33226 15.5726 9.1124 15.5726 8.84118C15.5726 8.56997 15.3528 8.3501 15.0815 8.3501C14.8103 8.3501 14.5905 8.56997 14.5905 8.84118C14.5905 9.1124 14.8103 9.33226 15.0815 9.33226Z" fill="white"/>
<path d="M20.1889 13.3852C20.1654 13.3852 20.1419 13.3802 20.12 13.3693L15.5727 11.1867C15.5685 11.337 15.4955 11.4839 15.3612 11.5762L7.6768 16.8757C7.59201 16.9344 7.49464 16.9621 7.39894 16.9621C7.24364 16.9621 7.09002 16.8883 6.99516 16.7498C6.84154 16.5265 6.89695 16.2217 7.12024 16.0681L14.8046 10.7686C14.9582 10.662 15.1521 10.6562 15.3074 10.7359C15.3377 10.7317 15.3696 10.7351 15.3989 10.7502L20.2569 13.0822C20.3366 13.12 20.3694 13.2148 20.3316 13.2946C20.3047 13.3516 20.2476 13.3852 20.1889 13.3852Z" fill="white"/>
<path d="M20.2575 13.0819L15.4147 10.7574C15.3106 10.7079 15.1973 10.6819 15.0814 10.6819V11.1251L15.6665 11.0991L20.2273 13.2657L20.2575 13.0819Z" fill="white"/>
<path d="M15.0815 11.664C15.3528 11.664 15.5726 11.4442 15.5726 11.173C15.5726 10.9017 15.3528 10.6819 15.0815 10.6819C14.8103 10.6819 14.5905 10.9017 14.5905 11.173C14.5905 11.4442 14.8103 11.664 15.0815 11.664Z" fill="white"/>
<path d="M20.1889 15.7163C20.1654 15.7163 20.1419 15.7112 20.12 15.7003L15.5727 13.5177C15.5685 13.668 15.4955 13.8149 15.3612 13.9073L7.6768 19.2067C7.59201 19.2655 7.49464 19.2932 7.39894 19.2932C7.24364 19.2932 7.09002 19.2193 6.99516 19.0808C6.84154 18.8575 6.89695 18.5528 7.12024 18.3992L14.8046 13.0997C14.9582 12.9931 15.1521 12.9872 15.3074 13.067C15.3377 13.0628 15.3696 13.0661 15.3989 13.0812L20.2569 15.4132C20.3366 15.451 20.3694 15.5459 20.3316 15.6256C20.3047 15.6835 20.2476 15.7163 20.1889 15.7163Z" fill="white"/>
<path d="M20.2575 15.4142L15.4147 13.0897C15.3106 13.0402 15.1973 13.0142 15.0814 13.0142V13.4574L15.6665 13.4314L20.2273 15.598L20.2575 15.4142Z" fill="white"/>
<path d="M15.0815 13.9953C15.3528 13.9953 15.5726 13.7755 15.5726 13.5043C15.5726 13.233 15.3528 13.0132 15.0815 13.0132C14.8103 13.0132 14.5905 13.233 14.5905 13.5043C14.5905 13.7755 14.8103 13.9953 15.0815 13.9953Z" fill="white"/>
<path d="M20.2577 6.08701L15.4149 3.76256C15.3108 3.71304 15.1975 3.68701 15.0817 3.68701V4.13024L15.6668 4.10422L20.2275 6.27085L20.2577 6.08701Z" fill="white"/>
<path d="M15.0818 4.6682C15.353 4.6682 15.5729 4.44833 15.5729 4.17712C15.5729 3.9059 15.353 3.68604 15.0818 3.68604C14.8106 3.68604 14.5907 3.9059 14.5907 4.17712C14.5907 4.44833 14.8106 4.6682 15.0818 4.6682Z" fill="white"/>
</svg>
