<svg width="349" height="64" viewBox="0 0 349 64" fill="none" xmlns="http://www.w3.org/2000/svg">
<path d="M77.1481 50.6816C76.6243 50.6816 76.2106 50.5607 75.899 50.319C75.5874 50.0718 75.4101 49.7468 75.3618 49.3385C75.3134 48.9275 75.4021 48.4628 75.6304 47.939L89.0939 17.2834C89.3867 16.6307 89.7386 16.166 90.1469 15.8893C90.5579 15.6099 91.0065 15.4702 91.4954 15.4702C91.9843 15.4702 92.4302 15.6099 92.8386 15.8893C93.2495 16.166 93.5853 16.6307 93.8459 17.2834L107.36 47.939C107.621 48.4628 107.726 48.9356 107.68 49.36C107.632 49.7844 107.46 50.1121 107.164 50.3405C106.874 50.5661 106.466 50.6816 105.945 50.6816C105.354 50.6816 104.881 50.5258 104.524 50.2169C104.166 49.908 103.871 49.4594 103.64 48.8684L100.019 40.4954L101.977 41.5242H80.917L82.9263 40.4954L79.3509 48.8684C79.0554 49.4916 78.7438 49.951 78.4161 50.2438C78.0937 50.5366 77.6693 50.6816 77.1481 50.6816ZM91.4471 20.5177L83.5629 39.0743L82.3863 38.1449H100.508L99.4333 39.0743L91.5492 20.5177H91.4471Z" fill="white"/>
<path d="M115.588 50.6815C114.936 50.6815 114.436 50.4935 114.095 50.1228C113.751 49.7467 113.579 49.231 113.579 48.5782V17.8689C113.579 17.184 113.759 16.6709 114.116 16.3297C114.476 15.9859 114.984 15.814 115.639 15.814H127.247C130.935 15.814 133.774 16.6789 135.765 18.4116C137.758 20.1388 138.752 22.6021 138.752 25.8041C138.752 27.8269 138.301 29.581 137.403 31.0692C136.509 32.5547 135.195 33.6802 133.463 34.4485C131.73 35.2141 129.659 35.5955 127.244 35.5955L127.73 34.9562H128.711C129.987 34.9562 131.096 35.2839 132.042 35.9367C132.99 36.5895 133.855 37.6344 134.639 39.0715L139.34 47.8422C139.601 48.2988 139.724 48.7447 139.711 49.1853C139.695 49.6258 139.539 49.9858 139.246 50.2652C138.951 50.5419 138.526 50.6788 137.97 50.6788C137.417 50.6788 136.96 50.5472 136.6 50.2867C136.243 50.0261 135.931 49.6527 135.671 49.1611L130.33 39.2676C129.581 37.8654 128.713 36.9279 127.733 36.4524C126.755 35.9797 125.466 35.7406 123.865 35.7406H117.598V48.5728C117.598 49.2256 117.434 49.7413 117.106 50.1174C116.781 50.4935 116.273 50.6815 115.588 50.6815ZM117.598 32.5601H126.658C129.334 32.5601 131.357 31.9986 132.729 30.8758C134.102 29.7502 134.79 28.0606 134.79 25.8041C134.79 23.6148 134.102 21.9574 132.729 20.8346C131.357 19.709 129.331 19.1449 126.658 19.1449H117.598V32.5601Z" fill="white"/>
<path d="M161.032 50.7835C157.637 50.7835 154.73 50.0663 152.313 48.6291C149.898 47.1947 148.044 45.1531 146.755 42.5071C145.468 39.8639 144.823 36.7129 144.823 33.0542C144.823 30.3115 145.189 27.8563 145.925 25.6831C146.658 23.5126 147.719 21.6672 149.103 20.1494C150.491 18.6317 152.197 17.4551 154.223 16.6251C156.248 15.795 158.515 15.376 161.027 15.376C163.052 15.376 164.978 15.6607 166.808 16.2329C168.634 16.8024 170.219 17.6459 171.56 18.758C171.984 19.083 172.272 19.451 172.417 19.8593C172.562 20.2676 172.575 20.6572 172.462 21.0359C172.349 21.4093 172.153 21.7182 171.874 21.9654C171.597 22.2098 171.264 22.328 170.872 22.328C170.48 22.328 170.039 22.1668 169.55 21.8418C168.374 20.8935 167.084 20.1924 165.677 19.7385C164.275 19.2791 162.757 19.0508 161.126 19.0508C158.547 19.0508 156.361 19.5988 154.561 20.6894C152.767 21.7827 151.413 23.3756 150.499 25.4682C149.583 27.5581 149.129 30.0886 149.129 33.0569C149.129 36.0279 149.586 38.5664 150.499 40.6724C151.413 42.7758 152.767 44.3768 154.561 45.4674C156.358 46.5607 158.547 47.106 161.126 47.106C162.727 47.106 164.245 46.8696 165.682 46.4022C167.117 45.9294 168.441 45.2176 169.65 44.2693C170.139 43.9416 170.579 43.7858 170.971 43.8046C171.364 43.8207 171.689 43.9443 171.952 44.1753C172.212 44.4036 172.4 44.6964 172.511 45.0537C172.626 45.411 172.626 45.7871 172.511 46.1792C172.398 46.5714 172.148 46.9153 171.756 47.2081C170.383 48.3847 168.774 49.2738 166.926 49.8782C165.086 50.4799 163.119 50.7835 161.032 50.7835Z" fill="white"/>
<path d="M177.438 50.6816C176.914 50.6816 176.5 50.5607 176.189 50.319C175.877 50.0718 175.7 49.7468 175.651 49.3385C175.603 48.9275 175.692 48.4628 175.92 47.939L189.383 17.2834C189.676 16.6307 190.028 16.166 190.436 15.8893C190.847 15.6099 191.296 15.4702 191.785 15.4702C192.274 15.4702 192.72 15.6099 193.128 15.8893C193.539 16.166 193.875 16.6307 194.135 17.2834L207.65 47.939C207.911 48.4628 208.015 48.9356 207.97 49.36C207.921 49.7844 207.749 50.1121 207.454 50.3405C207.164 50.5661 206.755 50.6816 206.234 50.6816C205.643 50.6816 205.171 50.5258 204.813 50.2169C204.456 49.908 204.161 49.4594 203.93 48.8684L200.308 40.4954L202.267 41.5242H181.207L183.216 40.4954L179.64 48.8684C179.345 49.4916 179.033 49.951 178.706 50.2438C178.383 50.5366 177.959 50.6816 177.438 50.6816ZM191.737 20.5177L183.852 39.0743L182.676 38.1449H200.797L199.723 39.0743L191.839 20.5177H191.737Z" fill="white"/>
<path d="M221.564 50.832C220.162 50.832 218.676 50.6843 217.11 50.3888C215.544 50.096 214.139 49.5883 212.895 48.8657C212.372 48.5406 212.006 48.1592 211.794 47.7186C211.585 47.2781 211.504 46.8375 211.552 46.397C211.601 45.9538 211.762 45.5696 212.039 45.2446C212.318 44.9169 212.678 44.7047 213.118 44.6053C213.559 44.5086 214.04 44.5918 214.564 44.8524C215.869 45.4729 217.094 45.9054 218.236 46.1499C219.377 46.3943 220.503 46.5125 221.615 46.5125C223.181 46.5125 224.347 46.2439 225.113 45.7066C225.881 45.1694 226.265 44.4575 226.265 43.5737C226.265 42.8243 226.01 42.2467 225.505 41.8384C225 41.4274 224.242 41.1266 223.232 40.9305L218.335 40.001C216.31 39.6088 214.765 38.8674 213.701 37.7741C212.64 36.6781 212.111 35.2652 212.111 33.5325C212.111 31.9664 212.544 30.6099 213.409 29.4709C214.273 28.3293 215.474 27.4482 217.008 26.8303C218.545 26.2071 220.309 25.8955 222.303 25.8955C223.737 25.8955 225.083 26.0513 226.337 26.3656C227.595 26.6772 228.811 27.158 229.985 27.8108C230.477 28.0714 230.813 28.4152 230.993 28.8396C231.173 29.2614 231.21 29.6939 231.111 30.1317C231.014 30.5723 230.818 30.9645 230.523 31.3083C230.233 31.6521 229.864 31.8644 229.427 31.9476C228.986 32.0309 228.489 31.9396 227.933 31.679C226.92 31.1579 225.948 30.7818 225.018 30.5535C224.089 30.3225 223.2 30.2069 222.348 30.2069C220.747 30.2069 219.563 30.4863 218.794 31.0397C218.029 31.5957 217.647 32.3318 217.647 33.2451C217.647 33.9328 217.873 34.5049 218.33 34.9643C218.789 35.421 219.49 35.7272 220.438 35.8884L225.335 36.8232C227.458 37.2154 229.067 37.9353 230.16 38.9776C231.253 40.0225 231.799 41.4247 231.799 43.1869C231.799 45.5723 230.866 47.4419 229.005 48.8012C227.149 50.1551 224.667 50.832 221.564 50.832Z" fill="white"/>
<path d="M247.421 50.8319C245.296 50.8319 243.526 50.4719 242.105 49.752C240.686 49.0321 239.633 47.9818 238.948 46.5957C238.261 45.2069 237.919 43.485 237.919 41.4246V30.9939H235.373C234.588 30.9939 233.984 30.7898 233.56 30.3841C233.138 29.9785 232.928 29.4144 232.928 28.6945C232.928 27.945 233.141 27.3728 233.56 26.9807C233.984 26.5885 234.588 26.3924 235.373 26.3924H237.919V21.9332C237.919 20.9232 238.188 20.1576 238.725 19.6338C239.265 19.1126 240.025 18.8494 241.009 18.8494C241.986 18.8494 242.736 19.1099 243.26 19.6338C243.781 20.1576 244.044 20.9232 244.044 21.9332V26.3924H249.237C250.021 26.3924 250.623 26.5885 251.044 26.9807C251.469 27.3728 251.684 27.9423 251.684 28.6945C251.684 29.4144 251.472 29.9785 251.044 30.3841C250.623 30.7924 250.021 30.9939 249.237 30.9939H244.044V41.0835C244.044 42.6496 244.388 43.8262 245.073 44.6079C245.758 45.3922 246.87 45.7844 248.404 45.7844C248.96 45.7844 249.449 45.7361 249.871 45.6394C250.295 45.5427 250.671 45.4782 251.001 45.4433C251.394 45.411 251.719 45.5319 251.982 45.814C252.243 46.0907 252.374 46.6521 252.374 47.4983C252.374 48.151 252.267 48.7313 252.054 49.239C251.842 49.7467 251.458 50.0986 250.902 50.292C250.48 50.4209 249.924 50.5445 249.239 50.6627C248.546 50.7728 247.942 50.8319 247.421 50.8319Z" fill="white"/>
<path d="M263.925 50.832C261.932 50.832 260.283 50.464 258.977 49.7306C257.672 48.9973 256.699 47.8932 256.063 46.4238C255.429 44.9544 255.112 43.1251 255.112 40.9385V29.0868C255.112 28.0418 255.372 27.2682 255.896 26.7631C256.417 26.2554 257.167 26.0029 258.147 26.0029C259.128 26.0029 259.888 26.2581 260.425 26.7631C260.962 27.2682 261.231 28.0418 261.231 29.0868V41.0352C261.231 42.7329 261.575 43.9901 262.26 44.8067C262.945 45.6233 264.041 46.0316 265.545 46.0316C267.176 46.0316 268.513 45.4702 269.558 44.342C270.603 43.2164 271.124 41.7202 271.124 39.8586V29.0868C271.124 28.0418 271.385 27.2682 271.909 26.7631C272.43 26.2554 273.182 26.0029 274.165 26.0029C275.143 26.0029 275.901 26.2581 276.438 26.7631C276.978 27.2682 277.249 28.0418 277.249 29.0868V47.6004C277.249 49.6903 276.253 50.7353 274.262 50.7353C273.314 50.7353 272.578 50.4666 272.057 49.9294C271.533 49.3895 271.272 48.6131 271.272 47.6004V43.8799L271.96 45.3466C271.272 47.1115 270.235 48.4681 268.849 49.4163C267.455 50.3592 265.816 50.832 263.925 50.832Z" fill="white"/>
<path d="M292.814 50.8318C290.724 50.8318 288.886 50.3268 287.302 49.3141C285.719 48.2987 284.489 46.8535 283.608 44.9758C282.727 43.1008 282.286 40.8873 282.286 38.3381C282.286 35.7619 282.727 33.5512 283.608 31.7057C284.489 29.8576 285.719 28.4312 287.302 27.4184C288.886 26.403 290.724 25.8953 292.814 25.8953C294.807 25.8953 296.545 26.3869 298.03 27.3674C299.516 28.3452 300.518 29.6346 301.042 31.2356H300.504V18.5028C300.504 17.4927 300.765 16.7271 301.289 16.2033C301.81 15.6822 302.559 15.4189 303.54 15.4189C304.52 15.4189 305.281 15.6795 305.818 16.2033C306.358 16.7271 306.629 17.4927 306.629 18.5028V47.5922C306.629 48.6049 306.369 49.3813 305.845 49.9212C305.321 50.4584 304.571 50.7271 303.588 50.7271C302.61 50.7271 301.861 50.4584 301.337 49.9212C300.813 49.3813 300.553 48.6049 300.553 47.5922V43.7697L301.09 45.2417C300.601 46.9394 299.605 48.296 298.103 49.3114C296.604 50.3268 294.842 50.8318 292.814 50.8318ZM294.528 46.1766C295.736 46.1766 296.797 45.8837 297.711 45.2981C298.624 44.7099 299.333 43.8368 299.838 42.679C300.346 41.5186 300.598 40.0734 300.598 38.3407C300.598 35.7297 300.042 33.7795 298.93 32.4928C297.824 31.2034 296.354 30.556 294.525 30.556C293.319 30.556 292.258 30.8407 291.342 31.4129C290.426 31.9824 289.716 32.85 289.209 34.0105C288.704 35.1683 288.454 36.6108 288.454 38.3407C288.454 40.9195 289.007 42.8698 290.117 44.1941C291.229 45.5157 292.698 46.1766 294.528 46.1766Z" fill="white"/>
<path d="M316.023 50.6815C315.046 50.6815 314.296 50.3887 313.772 49.8031C313.248 49.2148 312.988 48.3982 312.988 47.3532V29.3822C312.988 28.305 313.248 27.4803 313.772 26.9082C314.293 26.3387 315.043 26.0512 316.023 26.0512C317.004 26.0512 317.764 26.336 318.301 26.9082C318.841 27.4776 319.112 28.305 319.112 29.3822V47.3532C319.112 48.3982 318.852 49.2148 318.328 49.8031C317.804 50.3887 317.039 50.6815 316.023 50.6815ZM316.023 21.4954C314.882 21.4954 313.992 21.2106 313.353 20.6384C312.719 20.0636 312.402 19.2711 312.402 18.2611C312.402 17.2161 312.719 16.4183 313.353 15.865C313.992 15.3089 314.882 15.0322 316.023 15.0322C317.2 15.0322 318.094 15.3116 318.715 15.865C319.338 16.4183 319.65 17.2161 319.65 18.2611C319.65 19.2738 319.338 20.0663 318.715 20.6384C318.094 21.2106 317.197 21.4954 316.023 21.4954Z" fill="white"/>
<path d="M336.394 50.832C333.912 50.832 331.758 50.327 329.931 49.3143C328.102 48.2989 326.683 46.8537 325.673 44.976C324.661 43.101 324.156 40.8875 324.156 38.3382C324.156 36.4122 324.44 34.693 325.013 33.1726C325.582 31.6548 326.407 30.3493 327.481 29.256C328.558 28.1627 329.848 27.33 331.349 26.7605C332.851 26.1856 334.535 25.8982 336.397 25.8982C338.876 25.8982 341.033 26.4059 342.86 27.4213C344.687 28.434 346.108 29.8685 347.118 31.7301C348.133 33.5889 348.641 35.7917 348.641 38.3382C348.641 40.2643 348.356 41.9942 347.784 43.5308C347.214 45.0646 346.387 46.3782 345.31 47.4715C344.23 48.5648 342.941 49.4002 341.436 49.9724C339.937 50.5473 338.256 50.832 336.394 50.832ZM336.394 46.1767C337.603 46.1767 338.664 45.8839 339.577 45.2983C340.491 44.71 341.2 43.837 341.705 42.6792C342.213 41.5188 342.465 40.0736 342.465 38.3409C342.465 35.7299 341.909 33.7797 340.797 32.493C339.69 31.2035 338.221 30.5562 336.392 30.5562C335.185 30.5562 334.124 30.8409 333.208 31.4131C332.292 31.9826 331.583 32.8502 331.075 34.0107C330.57 35.1685 330.321 36.611 330.321 38.3409C330.321 40.9197 330.874 42.87 331.983 44.1943C333.095 45.5159 334.568 46.1767 336.394 46.1767Z" fill="white"/>
<path d="M325.887 58.4851C325.777 58.4851 325.699 58.4609 325.65 58.4126C325.602 58.3642 325.578 58.2917 325.578 58.195C325.578 58.1386 325.591 58.0822 325.624 58.0284C325.653 57.972 325.699 57.9156 325.758 57.8538L326.781 56.7632C326.937 56.5993 327.05 56.4489 327.117 56.3146C327.184 56.1803 327.219 56.0433 327.219 55.9063C327.219 55.7397 327.165 55.6108 327.058 55.5195C326.953 55.4308 326.797 55.3852 326.593 55.3852C326.478 55.3852 326.362 55.4013 326.247 55.4362C326.131 55.4684 326.013 55.5248 325.895 55.6027C325.836 55.6457 325.779 55.6618 325.728 55.6538C325.675 55.6457 325.629 55.6242 325.589 55.5866C325.551 55.549 325.524 55.506 325.511 55.4523C325.495 55.3959 325.497 55.3395 325.516 55.2858C325.535 55.2294 325.575 55.181 325.64 55.1407C325.785 55.0386 325.949 54.9661 326.126 54.9178C326.309 54.8667 326.491 54.8398 326.679 54.8398C326.937 54.8398 327.152 54.8801 327.329 54.958C327.509 55.0359 327.644 55.1515 327.732 55.2992C327.824 55.4496 327.872 55.6323 327.872 55.8472C327.872 55.9896 327.85 56.1292 327.805 56.2662C327.759 56.4006 327.689 56.5403 327.593 56.6799C327.499 56.8196 327.378 56.9647 327.23 57.1232L326.274 58.1198V57.9452H327.773C327.864 57.9452 327.934 57.9666 327.979 58.0123C328.028 58.058 328.052 58.1251 328.052 58.2138C328.052 58.2997 328.028 58.3669 327.979 58.4152C327.934 58.4636 327.864 58.4878 327.773 58.4878H325.887V58.4851Z" fill="white"/>
<path d="M329.806 58.5337C329.381 58.5337 329.053 58.3752 328.825 58.0529C328.602 57.7332 328.489 57.2738 328.489 56.6775C328.489 56.2799 328.54 55.9441 328.64 55.6702C328.742 55.3935 328.887 55.1866 329.083 55.0496C329.279 54.9073 329.521 54.8374 329.806 54.8374C330.233 54.8374 330.558 54.9932 330.778 55.3075C331.001 55.6218 331.114 56.0758 331.114 56.6721C331.114 57.0724 331.063 57.4108 330.963 57.6902C330.861 57.9669 330.714 58.1764 330.52 58.3215C330.327 58.4639 330.088 58.5337 329.806 58.5337ZM329.806 57.9964C330.037 57.9964 330.206 57.889 330.316 57.6768C330.429 57.4619 330.483 57.1261 330.483 56.6694C330.483 56.2155 330.426 55.885 330.316 55.6782C330.206 55.474 330.037 55.3693 329.806 55.3693C329.575 55.3693 329.403 55.474 329.29 55.6782C329.177 55.885 329.123 56.2128 329.123 56.6694C329.123 57.1261 329.18 57.4619 329.29 57.6768C329.403 57.8917 329.572 57.9964 329.806 57.9964Z" fill="white"/>
<path d="M332.011 58.4851C331.9 58.4851 331.823 58.4609 331.774 58.4126C331.726 58.3642 331.702 58.2917 331.702 58.195C331.702 58.1386 331.715 58.0822 331.747 58.0284C331.777 57.972 331.823 57.9156 331.882 57.8538L332.905 56.7632C333.061 56.5993 333.174 56.4489 333.241 56.3146C333.308 56.1803 333.343 56.0433 333.343 55.9063C333.343 55.7397 333.289 55.6108 333.182 55.5195C333.077 55.4308 332.921 55.3852 332.717 55.3852C332.602 55.3852 332.486 55.4013 332.371 55.4362C332.255 55.4684 332.137 55.5248 332.019 55.6027C331.96 55.6457 331.903 55.6618 331.852 55.6538C331.798 55.6457 331.753 55.6242 331.712 55.5866C331.675 55.549 331.648 55.506 331.634 55.4523C331.618 55.3959 331.621 55.3395 331.64 55.2858C331.659 55.2294 331.699 55.181 331.763 55.1407C331.908 55.0386 332.072 54.9661 332.25 54.9178C332.432 54.8667 332.615 54.8398 332.803 54.8398C333.061 54.8398 333.276 54.8801 333.453 54.958C333.633 55.0359 333.767 55.1515 333.856 55.2992C333.947 55.4496 333.996 55.6323 333.996 55.8472C333.996 55.9896 333.974 56.1292 333.929 56.2662C333.883 56.4006 333.813 56.5403 333.716 56.6799C333.622 56.8196 333.501 56.9647 333.354 57.1232L332.397 58.1198V57.9452H333.896C333.988 57.9452 334.058 57.9666 334.103 58.0123C334.152 58.058 334.176 58.1251 334.176 58.2138C334.176 58.2997 334.152 58.3669 334.103 58.4152C334.058 58.4636 333.988 58.4878 333.896 58.4878H332.011V58.4851Z" fill="white"/>
<path d="M335.956 58.5334C335.776 58.5334 335.593 58.5119 335.403 58.4663C335.215 58.4179 335.045 58.3427 334.887 58.2433C334.822 58.203 334.779 58.1547 334.758 58.0983C334.736 58.0418 334.731 57.9854 334.742 57.9317C334.755 57.8753 334.782 57.8296 334.82 57.792C334.86 57.7517 334.908 57.7276 334.965 57.7195C335.021 57.7114 335.083 57.7276 335.15 57.7652C335.276 57.8404 335.403 57.8968 335.532 57.9317C335.661 57.9693 335.8 57.9881 335.945 57.9881C336.09 57.9881 336.214 57.9639 336.316 57.9102C336.418 57.8592 336.493 57.7867 336.544 57.698C336.601 57.6067 336.628 57.4965 336.628 57.373C336.628 57.1822 336.568 57.0291 336.453 56.9136C336.337 56.7954 336.179 56.7336 335.983 56.7336C335.87 56.7336 335.765 56.7524 335.663 56.7901C335.561 56.8223 335.462 56.8841 335.362 56.9754C335.333 57.0023 335.292 57.0291 335.244 57.0533C335.198 57.0802 335.15 57.0936 335.094 57.0936C335.008 57.0936 334.943 57.0721 334.898 57.0264C334.852 56.9808 334.83 56.919 334.83 56.8411V55.1729C334.83 55.0816 334.855 55.0091 334.903 54.9607C334.954 54.9124 335.027 54.8882 335.121 54.8882H336.799C336.888 54.8882 336.958 54.9124 337.006 54.9607C337.057 55.0064 337.084 55.0708 337.084 55.1568C337.084 55.2428 337.057 55.3099 337.006 55.3583C336.958 55.4066 336.888 55.4308 336.799 55.4308H335.467V56.5725H335.301C335.389 56.4543 335.507 56.3629 335.652 56.2985C335.798 56.2313 335.959 56.1964 336.133 56.1964C336.359 56.1964 336.558 56.2448 336.727 56.3415C336.894 56.4382 337.025 56.5751 337.119 56.7498C337.216 56.9217 337.264 57.1232 337.264 57.3488C337.264 57.5852 337.21 57.792 337.103 57.9693C336.998 58.1466 336.848 58.2836 336.649 58.383C336.456 58.4851 336.225 58.5334 335.956 58.5334Z" fill="white"/>
<path d="M340.904 58.5337C340.531 58.5337 340.211 58.4585 339.942 58.3107C339.676 58.1576 339.472 57.9454 339.327 57.666C339.185 57.3867 339.115 57.0589 339.115 56.6802C339.115 56.3981 339.155 56.1429 339.238 55.92C339.319 55.6943 339.437 55.4982 339.59 55.337C339.743 55.1732 339.931 55.0496 340.154 54.961C340.377 54.875 340.627 54.832 340.904 54.832C341.095 54.832 341.28 54.8562 341.457 54.9045C341.637 54.9502 341.796 55.0174 341.933 55.106C342.003 55.1517 342.051 55.2054 342.072 55.2672C342.097 55.3317 342.102 55.3935 342.089 55.4526C342.072 55.5117 342.043 55.5627 342 55.603C341.957 55.646 341.906 55.6675 341.844 55.6701C341.785 55.6755 341.718 55.654 341.643 55.6083C341.533 55.5385 341.42 55.4875 341.296 55.4579C341.175 55.4284 341.052 55.4123 340.925 55.4123C340.681 55.4123 340.477 55.4633 340.31 55.5627C340.146 55.6594 340.02 55.8018 339.934 55.9871C339.848 56.1752 339.805 56.4035 339.805 56.6748C339.805 56.9434 339.848 57.1718 339.934 57.3625C340.02 57.5532 340.144 57.6983 340.31 57.7976C340.477 57.8944 340.684 57.9427 340.925 57.9427C341.054 57.9427 341.183 57.9293 341.307 57.897C341.433 57.8648 341.554 57.8138 341.664 57.7466C341.739 57.7009 341.806 57.6821 341.866 57.6848C341.925 57.6902 341.976 57.7117 342.016 57.752C342.056 57.7896 342.083 57.8353 342.094 57.8917C342.107 57.9481 342.105 58.0072 342.083 58.0663C342.064 58.1254 342.024 58.1764 341.965 58.2167C341.831 58.3188 341.67 58.394 341.479 58.445C341.291 58.5068 341.097 58.5337 340.904 58.5337Z" fill="white"/>
<path d="M342.999 58.5121C342.884 58.5121 342.79 58.4772 342.72 58.4047C342.653 58.3295 342.618 58.2381 342.618 58.1253C342.618 58.0179 342.65 57.9292 342.72 57.8621C342.79 57.7922 342.884 57.7546 342.999 57.7546C343.117 57.7546 343.209 57.7922 343.273 57.8621C343.34 57.9292 343.375 58.0179 343.375 58.1253C343.375 58.2381 343.343 58.3322 343.273 58.4047C343.209 58.4772 343.117 58.5121 342.999 58.5121Z" fill="white"/>
<path d="M344.159 58.5229C344.076 58.5229 344.009 58.5041 343.958 58.4665C343.909 58.4289 343.88 58.3806 343.869 58.3161C343.861 58.2543 343.874 58.1845 343.909 58.1092L345.258 55.1221C345.304 55.0254 345.355 54.9583 345.414 54.9153C345.475 54.8696 345.551 54.8481 345.631 54.8481C345.709 54.8481 345.779 54.8696 345.843 54.9153C345.905 54.9583 345.962 55.0254 346.005 55.1221L347.353 58.1092C347.391 58.1845 347.404 58.2543 347.393 58.3215C347.385 58.3859 347.356 58.437 347.31 58.4719C347.262 58.5041 347.197 58.5229 347.119 58.5229C347.025 58.5229 346.953 58.5014 346.902 58.4558C346.848 58.4101 346.802 58.3403 346.762 58.2436L346.426 57.4699L346.706 57.6499H344.551L344.825 57.4699L344.5 58.2436C344.455 58.3456 344.409 58.4182 344.361 58.4611C344.312 58.5014 344.245 58.5229 344.159 58.5229ZM345.621 55.5976L344.909 57.298L344.774 57.1315H346.48L346.351 57.298L345.629 55.5976H345.621Z" fill="white"/>
<path d="M348.265 58.5121C348.149 58.5121 348.055 58.4772 347.986 58.4047C347.918 58.3295 347.883 58.2381 347.883 58.1253C347.883 58.0179 347.916 57.9292 347.986 57.8621C348.055 57.7922 348.149 57.7546 348.265 57.7546C348.383 57.7546 348.474 57.7922 348.539 57.8621C348.606 57.9292 348.641 58.0179 348.641 58.1253C348.641 58.2381 348.609 58.3322 348.539 58.4047C348.474 58.4772 348.383 58.5121 348.265 58.5121Z" fill="white"/>
<path d="M0 0H67.5002V64H0V0Z" fill="#FF4431"/>
<path d="M64.6045 20.4449C64.5293 20.4449 64.4541 20.4288 64.3843 20.3939L49.8328 13.4096C49.8194 13.8905 49.5857 14.3606 49.1559 14.6561L24.5659 31.6144C24.2946 31.8024 23.983 31.8911 23.6768 31.8911C23.1798 31.8911 22.6882 31.6547 22.3847 31.2114C21.8931 30.4969 22.0704 29.5218 22.7849 29.0302L47.3749 12.0719C47.8665 11.7307 48.487 11.7119 48.984 11.9671C49.0807 11.9537 49.1828 11.9644 49.2768 12.0128L64.8221 19.4752C65.0773 19.5961 65.1821 19.8996 65.0612 20.1548C64.9753 20.3402 64.7926 20.4449 64.6045 20.4449Z" fill="white"/>
<path d="M64.6045 27.9076C64.5293 27.9076 64.4541 27.8915 64.3843 27.8565L49.8328 20.8723C49.8194 21.3531 49.5857 21.8232 49.1559 22.1187L24.5659 39.077C24.2946 39.2651 23.983 39.3537 23.6768 39.3537C23.1798 39.3537 22.6882 39.1173 22.3847 38.6741C21.8931 37.9595 22.0704 36.9844 22.7849 36.4928L47.3749 19.5345C47.8665 19.1934 48.487 19.1746 48.984 19.4298C49.0807 19.4163 49.1828 19.4271 49.2768 19.4754L64.8221 26.9378C65.0773 27.0587 65.1821 27.3623 65.0612 27.6175C64.9753 27.8028 64.7926 27.9076 64.6045 27.9076Z" fill="white"/>
<path d="M64.8247 26.9403L49.3277 19.502C48.9946 19.3435 48.6319 19.2603 48.2612 19.2603V20.6786L50.1335 20.5953L64.728 27.5285L64.8247 26.9403Z" fill="white"/>
<path d="M48.2612 22.4007C49.1291 22.4007 49.8326 21.6972 49.8326 20.8293C49.8326 19.9614 49.1291 19.2578 48.2612 19.2578C47.3933 19.2578 46.6897 19.9614 46.6897 20.8293C46.6897 21.6972 47.3933 22.4007 48.2612 22.4007Z" fill="white"/>
<path d="M64.6045 35.3697C64.5293 35.3697 64.4541 35.3536 64.3843 35.3187L49.8328 28.3344C49.8194 28.8153 49.5857 29.2854 49.1559 29.5809L24.5659 46.5392C24.2946 46.7272 23.983 46.8159 23.6768 46.8159C23.1798 46.8159 22.6882 46.5795 22.3847 46.1362C21.8931 45.4217 22.0704 44.4466 22.7849 43.955L47.3749 26.9967C47.8665 26.6555 48.487 26.6367 48.984 26.8919C49.0807 26.8785 49.1828 26.8892 49.2768 26.9376L64.8221 34.4C65.0773 34.5209 65.1821 34.8244 65.0612 35.0796C64.9753 35.2623 64.7926 35.3697 64.6045 35.3697Z" fill="white"/>
<path d="M64.8247 34.4029L49.3277 26.9647C48.9946 26.8062 48.6319 26.7229 48.2612 26.7229V28.1413L50.1335 28.058L64.728 34.9912L64.8247 34.4029Z" fill="white"/>
<path d="M48.2612 29.8631C49.1291 29.8631 49.8326 29.1596 49.8326 28.2917C49.8326 27.4238 49.1291 26.7202 48.2612 26.7202C47.3933 26.7202 46.6897 27.4238 46.6897 28.2917C46.6897 29.1596 47.3933 29.8631 48.2612 29.8631Z" fill="white"/>
<path d="M64.6045 42.8324C64.5293 42.8324 64.4541 42.8163 64.3843 42.7813L49.8328 35.7971C49.8194 36.2779 49.5857 36.748 49.1559 37.0435L24.5659 54.0018C24.2946 54.1899 23.983 54.2785 23.6768 54.2785C23.1798 54.2785 22.6882 54.0421 22.3847 53.5989C21.8931 52.8843 22.0704 51.9092 22.7849 51.4176L47.3749 34.4593C47.8665 34.1182 48.487 34.0994 48.984 34.3546C49.0807 34.3411 49.1828 34.3519 49.2768 34.4002L64.8221 41.8626C65.0773 41.9835 65.1821 42.2871 65.0612 42.5423C64.9753 42.7249 64.7926 42.8324 64.6045 42.8324Z" fill="white"/>
<path d="M64.8247 41.8626L49.3277 34.4244C48.9946 34.2659 48.6319 34.1826 48.2612 34.1826V35.601L50.1335 35.5177L64.728 42.4509L64.8247 41.8626Z" fill="white"/>
<path d="M48.2612 37.3255C49.1291 37.3255 49.8326 36.622 49.8326 35.7541C49.8326 34.8862 49.1291 34.1826 48.2612 34.1826C47.3933 34.1826 46.6897 34.8862 46.6897 35.7541C46.6897 36.622 47.3933 37.3255 48.2612 37.3255Z" fill="white"/>
<path d="M64.6045 50.2921C64.5293 50.2921 64.4541 50.276 64.3843 50.2411L49.8328 43.2568C49.8194 43.7376 49.5857 44.2077 49.1559 44.5032L24.5659 61.4615C24.2946 61.6496 23.983 61.7382 23.6768 61.7382C23.1798 61.7382 22.6882 61.5018 22.3847 61.0586C21.8931 60.3441 22.0704 59.369 22.7849 58.8774L47.3749 41.919C47.8665 41.5779 48.487 41.5591 48.984 41.8143C49.0807 41.8008 49.1828 41.8116 49.2768 41.86L64.8221 49.3224C65.0773 49.4432 65.1821 49.7468 65.0612 50.002C64.9753 50.1873 64.7926 50.2921 64.6045 50.2921Z" fill="white"/>
<path d="M64.8247 49.325L49.3277 41.8868C48.9946 41.7283 48.6319 41.645 48.2612 41.645V43.0634L50.1335 42.9801L64.728 49.9133L64.8247 49.325Z" fill="white"/>
<path d="M48.2612 44.7852C49.1291 44.7852 49.8326 44.0817 49.8326 43.2138C49.8326 42.3459 49.1291 41.6423 48.2612 41.6423C47.3933 41.6423 46.6897 42.3459 46.6897 43.2138C46.6897 44.0817 47.3933 44.7852 48.2612 44.7852Z" fill="white"/>
<path d="M64.8248 19.4779L49.3278 12.0396C48.9947 11.8811 48.6321 11.7979 48.2614 11.7979V13.2162L50.1337 13.1329L64.7281 20.0661L64.8248 19.4779Z" fill="white"/>
<path d="M48.2614 14.9383C49.1293 14.9383 49.8329 14.2348 49.8329 13.3669C49.8329 12.499 49.1293 11.7954 48.2614 11.7954C47.3935 11.7954 46.6899 12.499 46.6899 13.3669C46.6899 14.2348 47.3935 14.9383 48.2614 14.9383Z" fill="white"/>
</svg>
