<svg preserveAspectRatio="none" width="100%" height="100%" overflow="visible" style="display: block;" viewBox="0 0 40 40" fill="none" xmlns="http://www.w3.org/2000/svg">
<g id="Frame 17">
<g clip-path="url(#clip0_0_31)">
<path id="Vector" d="M20.1961 9.97546C16.2419 9.97546 13.0392 13.1782 13.0392 17.1323C13.0392 21.0865 16.2419 24.2892 20.1961 24.2892C24.1502 24.2892 27.3529 21.0865 27.3529 17.1323C27.3529 13.1782 24.1502 9.97546 20.1961 9.97546ZM20.1961 26.0784C15.4189 26.0784 5.88235 28.476 5.88235 33.2353V43.9706H34.5098V33.2353C34.5098 28.476 24.9733 26.0784 20.1961 26.0784Z" fill="var(--fill-0, white)"/>
</g>
</g>
<defs>
<clipPath id="clip0_0_31">
<path d="M0 20C0 8.95431 8.95431 0 20 0V0C31.0457 0 40 8.95431 40 20V20C40 31.0457 31.0457 40 20 40V40C8.95431 40 0 31.0457 0 20V20Z" fill="white"/>
</clipPath>
</defs>
</svg>
