<svg width="35" height="40" viewBox="0 0 35 40" fill="none" xmlns="http://www.w3.org/2000/svg">
<g clip-path="url(#clip0_2061_23994)">
<path d="M5 4C5 1.79086 6.79086 0 9 0H22.5L35 12.5V36C35 38.2091 33.2091 40 31 40H9C6.79086 40 5 38.2091 5 36V4Z" fill="white"/>
<path d="M5 36V4C5 1.79086 6.79086 0 9 0H22.5L35 12.5V36C35 38.2091 33.2091 40 31 40V38.5C32.3807 38.5 33.5 37.3807 33.5 36V13.1211L21.8789 1.5H9C7.61929 1.5 6.5 2.61929 6.5 4V36C6.5 37.3807 7.61929 38.5 9 38.5V40L8.79395 39.9951C6.68056 39.8879 5 38.14 5 36ZM31 38.5V40H9V38.5H31Z" fill="#E8E8E8"/>
<path d="M21.25 10V1C21.25 0.585786 21.5858 0.25 22 0.25C22.4142 0.25 22.75 0.585786 22.75 1V10C22.75 11.2426 23.7574 12.25 25 12.25H34C34.4142 12.25 34.75 12.5858 34.75 13C34.75 13.4142 34.4142 13.75 34 13.75H25C22.9289 13.75 21.25 12.0711 21.25 10Z" fill="#E8E8E8"/>
</g>
<path d="M0 28.0996C0 25.8905 1.79086 24.0996 4 24.0996H10.7527C12.9618 24.0996 14.7527 25.8905 14.7527 28.0996V31.2496C14.7527 33.4587 12.9618 35.2496 10.7527 35.2496H4C1.79086 35.2496 0 33.4587 0 31.2496V28.0996Z" fill="#FF5C00"/>
<path d="M10.4827 26.0996H12.2527V33.2496H10.4827V26.0996Z" fill="white"/>
<path d="M5.07 26.0996H6.89L9.47 33.2496H7.61L7.19 31.9596H4.69L4.28 33.2496H2.5L5.07 26.0996ZM6.78 30.6896L6.24 28.9596C6.20667 28.8663 6.17333 28.7629 6.14 28.6496C6.10667 28.5363 6.07667 28.4263 6.05 28.3196C6.01667 28.1996 5.98667 28.0763 5.96 27.9496H5.94C5.90667 28.0763 5.87333 28.1996 5.84 28.3196C5.80667 28.4263 5.77333 28.5363 5.74 28.6496C5.71333 28.7629 5.68333 28.8663 5.65 28.9596L5.1 30.6896H6.78Z" fill="white"/>
<defs>
<clipPath id="clip0_2061_23994">
<rect width="30" height="40" fill="white" transform="translate(5)"/>
</clipPath>
</defs>
</svg>
