<svg width="35" height="40" viewBox="0 0 35 40" fill="none" xmlns="http://www.w3.org/2000/svg">
<g clip-path="url(#clip0_2061_24001)">
<path d="M5 4C5 1.79086 6.79086 0 9 0H22.5L35 12.5V36C35 38.2091 33.2091 40 31 40H9C6.79086 40 5 38.2091 5 36V4Z" fill="white"/>
<path d="M5 36V4C5 1.79086 6.79086 0 9 0H22.5L35 12.5V36C35 38.2091 33.2091 40 31 40V38.5C32.3807 38.5 33.5 37.3807 33.5 36V13.1211L21.8789 1.5H9C7.61929 1.5 6.5 2.61929 6.5 4V36C6.5 37.3807 7.61929 38.5 9 38.5V40L8.79395 39.9951C6.68056 39.8879 5 38.14 5 36ZM31 38.5V40H9V38.5H31Z" fill="#E8E8E8"/>
<path d="M21.25 10V1C21.25 0.585786 21.5858 0.25 22 0.25C22.4142 0.25 22.75 0.585786 22.75 1V10C22.75 11.2426 23.7574 12.25 25 12.25H34C34.4142 12.25 34.75 12.5858 34.75 13C34.75 13.4142 34.4142 13.75 34 13.75H25C22.9289 13.75 21.25 12.0711 21.25 10Z" fill="#E8E8E8"/>
</g>
<path d="M0 27.7891C0 25.5799 1.79086 23.7891 4 23.7891H22.9115C25.1206 23.7891 26.9115 25.5799 26.9115 27.7891V31.2491C26.9115 33.4582 25.1206 35.2491 22.9115 35.2491H4C1.79086 35.2491 0 33.4582 0 31.2491V27.7891Z" fill="#3873FF"/>
<path d="M21.2615 33.2391C20.7348 33.2391 20.2548 33.1457 19.8215 32.9591C19.3882 32.7724 19.0148 32.5157 18.7015 32.1891C18.3948 31.8557 18.1548 31.4624 17.9815 31.0091C17.8148 30.5557 17.7315 30.0624 17.7315 29.5291C17.7315 28.9957 17.8148 28.5024 17.9815 28.0491C18.1482 27.5891 18.3848 27.1924 18.6915 26.8591C18.9982 26.5257 19.3682 26.2657 19.8015 26.0791C20.2348 25.8857 20.7182 25.7891 21.2515 25.7891C21.6715 25.7891 22.0515 25.8457 22.3915 25.9591C22.7382 26.0724 23.0382 26.2257 23.2915 26.4191C23.6048 26.6524 23.8482 26.9391 24.0215 27.2791C24.2015 27.6191 24.3148 27.9891 24.3615 28.3891H22.5915C22.5448 28.0691 22.4015 27.8024 22.1615 27.5891C21.9282 27.3691 21.6215 27.2591 21.2415 27.2591C20.9482 27.2591 20.6948 27.3157 20.4815 27.4291C20.2682 27.5424 20.0915 27.7024 19.9515 27.9091C19.8115 28.1091 19.7048 28.3491 19.6315 28.6291C19.5648 28.9024 19.5315 29.2024 19.5315 29.5291C19.5315 29.8557 19.5715 30.1591 19.6515 30.4391C19.7315 30.7124 19.8448 30.9491 19.9915 31.1491C20.1448 31.3491 20.3248 31.5057 20.5315 31.6191C20.7448 31.7324 20.9848 31.7891 21.2515 31.7891C21.6515 31.7891 21.9715 31.6791 22.2115 31.4591C22.4582 31.2324 22.6015 30.9457 22.6415 30.5991H24.4115C24.3848 30.9591 24.2948 31.2957 24.1415 31.6091C23.9948 31.9224 23.7982 32.1957 23.5515 32.4291C23.2715 32.6957 22.9448 32.8991 22.5715 33.0391C22.2048 33.1724 21.7682 33.2391 21.2615 33.2391Z" fill="white"/>
<path d="M13.3008 31.8091C13.5874 31.8091 13.8374 31.7524 14.0508 31.6391C14.2708 31.5191 14.4541 31.3591 14.6008 31.1591C14.7474 30.9524 14.8541 30.7091 14.9208 30.4291C14.9941 30.1491 15.0308 29.8457 15.0308 29.5191C15.0308 29.1924 14.9941 28.8891 14.9208 28.6091C14.8541 28.3291 14.7474 28.0857 14.6008 27.8791C14.4541 27.6724 14.2708 27.5124 14.0508 27.3991C13.8374 27.2791 13.5874 27.2191 13.3008 27.2191C13.0141 27.2191 12.7608 27.2791 12.5408 27.3991C12.3274 27.5124 12.1474 27.6724 12.0008 27.8791C11.8541 28.0857 11.7441 28.3291 11.6708 28.6091C11.5974 28.8891 11.5608 29.1924 11.5608 29.5191C11.5608 29.8457 11.5974 30.1491 11.6708 30.4291C11.7441 30.7091 11.8541 30.9524 12.0008 31.1591C12.1474 31.3591 12.3274 31.5191 12.5408 31.6391C12.7608 31.7524 13.0141 31.8091 13.3008 31.8091ZM13.2908 33.2491C12.7508 33.2491 12.2608 33.1557 11.8208 32.9691C11.3874 32.7824 11.0174 32.5224 10.7108 32.1891C10.4108 31.8557 10.1774 31.4624 10.0108 31.0091C9.84411 30.5491 9.76078 30.0524 9.76078 29.5191C9.76078 28.9857 9.84411 28.4924 10.0108 28.0391C10.1774 27.5791 10.4108 27.1824 10.7108 26.8491C11.0174 26.5157 11.3874 26.2557 11.8208 26.0691C12.2608 25.8824 12.7508 25.7891 13.2908 25.7891C13.8308 25.7891 14.3174 25.8824 14.7508 26.0691C15.1908 26.2557 15.5641 26.5157 15.8708 26.8491C16.1774 27.1824 16.4141 27.5791 16.5808 28.0391C16.7474 28.4924 16.8308 28.9857 16.8308 29.5191C16.8308 30.0524 16.7474 30.5491 16.5808 31.0091C16.4141 31.4624 16.1774 31.8557 15.8708 32.1891C15.5641 32.5224 15.1908 32.7824 14.7508 32.9691C14.3174 33.1557 13.8308 33.2491 13.2908 33.2491Z" fill="white"/>
<path d="M5.31 31.5877C5.89667 31.5877 6.33667 31.4144 6.63 31.0677C6.92333 30.7144 7.07 30.2077 7.07 29.5477C7.07 28.8944 6.92 28.3744 6.62 27.9877C6.32 27.6011 5.89 27.4077 5.33 27.4077H4.27V31.5877H5.31ZM2.5 25.9277H5.55C6.04333 25.9277 6.49333 26.0144 6.9 26.1877C7.30667 26.3611 7.65333 26.6044 7.94 26.9177C8.23333 27.2311 8.46 27.6111 8.62 28.0577C8.78 28.5044 8.86 29.0011 8.86 29.5477C8.86 30.1811 8.75333 30.7444 8.54 31.2377C8.32667 31.7244 8.02 32.1211 7.62 32.4277C7.34 32.6411 7.02 32.8044 6.66 32.9177C6.3 33.0244 5.89333 33.0777 5.44 33.0777H2.5V25.9277Z" fill="white"/>
<defs>
<clipPath id="clip0_2061_24001">
<rect width="30" height="40" fill="white" transform="translate(5)"/>
</clipPath>
</defs>
</svg>
