<svg width="35" height="40" viewBox="0 0 35 40" fill="none" xmlns="http://www.w3.org/2000/svg">
<g clip-path="url(#clip0_2061_24029)">
<path d="M5 4C5 1.79086 6.79086 0 9 0H22.5L35 12.5V36C35 38.2091 33.2091 40 31 40H9C6.79086 40 5 38.2091 5 36V4Z" fill="white"/>
<path d="M5 36V4C5 1.79086 6.79086 0 9 0H22.5L35 12.5V36C35 38.2091 33.2091 40 31 40V38.5C32.3807 38.5 33.5 37.3807 33.5 36V13.1211L21.8789 1.5H9C7.61929 1.5 6.5 2.61929 6.5 4V36C6.5 37.3807 7.61929 38.5 9 38.5V40L8.79395 39.9951C6.68056 39.8879 5 38.14 5 36ZM31 38.5V40H9V38.5H31Z" fill="#E8E8E8"/>
<path d="M21.25 10V1C21.25 0.585786 21.5858 0.25 22 0.25C22.4142 0.25 22.75 0.585786 22.75 1V10C22.75 11.2426 23.7574 12.25 25 12.25H34C34.4142 12.25 34.75 12.5858 34.75 13C34.75 13.4142 34.4142 13.75 34 13.75H25C22.9289 13.75 21.25 12.0711 21.25 10Z" fill="#E8E8E8"/>
</g>
<path d="M0 28.0996C0 25.8905 1.79086 24.0996 4 24.0996H20.8942C23.1034 24.0996 24.8942 25.8905 24.8942 28.0996V31.2496C24.8942 33.4587 23.1034 35.2496 20.8942 35.2496H4C1.79086 35.2496 0 33.4587 0 31.2496V28.0996Z" fill="#FF1607"/>
<path d="M17.0742 26.0996H22.3942V27.5896H18.8442V29.0396H21.8142V30.4696H18.8442V33.2496H17.0742V26.0996Z" fill="white"/>
<path d="M12.3334 31.7596C12.9201 31.7596 13.3601 31.5863 13.6534 31.2396C13.9468 30.8863 14.0934 30.3796 14.0934 29.7196C14.0934 29.0663 13.9434 28.5463 13.6434 28.1596C13.3434 27.7729 12.9134 27.5796 12.3534 27.5796H11.2934V31.7596H12.3334ZM9.52344 26.0996H12.5734C13.0668 26.0996 13.5168 26.1863 13.9234 26.3596C14.3301 26.5329 14.6768 26.7763 14.9634 27.0896C15.2568 27.4029 15.4834 27.7829 15.6434 28.2296C15.8034 28.6763 15.8834 29.1729 15.8834 29.7196C15.8834 30.3529 15.7768 30.9163 15.5634 31.4096C15.3501 31.8963 15.0434 32.2929 14.6434 32.5996C14.3634 32.8129 14.0434 32.9763 13.6834 33.0896C13.3234 33.1963 12.9168 33.2496 12.4634 33.2496H9.52344V26.0996Z" fill="white"/>
<path d="M2.5 26.0996H5.72C6.16 26.0996 6.54 26.1563 6.86 26.2696C7.18 26.3829 7.45 26.5463 7.67 26.7596C7.90333 26.9729 8.08 27.2296 8.2 27.5296C8.32667 27.8296 8.39 28.1596 8.39 28.5196C8.39 28.8596 8.33333 29.1729 8.22 29.4596C8.10667 29.7463 7.94333 29.9929 7.73 30.1996C7.52333 30.4063 7.27 30.5696 6.97 30.6896C6.67 30.8029 6.33667 30.8596 5.97 30.8596H4.3V33.2496H2.5V26.0996ZM5.61 29.4596C5.93 29.4596 6.17667 29.3729 6.35 29.1996C6.52333 29.0263 6.61 28.7963 6.61 28.5096C6.61 28.2229 6.52333 27.9996 6.35 27.8396C6.17667 27.6729 5.93 27.5896 5.61 27.5896H4.3V29.4596H5.61Z" fill="white"/>
<defs>
<clipPath id="clip0_2061_24029">
<rect width="30" height="40" fill="white" transform="translate(5)"/>
</clipPath>
</defs>
</svg>
